M48
; DRILL file {KiCad (5.99.0-12741-g2662433374)} date Tuesday, 19 October 2021 at 15:00:31
; FORMAT={-:-/ absolute / inch / decimal}
; #@! TF.CreationDate,2021-10-19T15:00:31+11:00
; #@! TF.GenerationSoftware,Kicad,Pcbnew,(5.99.0-12741-g2662433374)
; #@! TF.FileFunction,MixedPlating,1,2
FMAT,2
INCH
; #@! TA.AperFunction,Plated,PTH,ViaDrill
T1C0.0197
; #@! TA.AperFunction,Plated,PTH,ComponentDrill
T2C0.0276
; #@! TA.AperFunction,Plated,PTH,ComponentDrill
T3C0.0315
; #@! TA.AperFunction,Plated,PTH,ComponentDrill
T4C0.0354
; #@! TA.AperFunction,Plated,PTH,ComponentDrill
T5C0.0394
; #@! TA.AperFunction,Plated,PTH,ComponentDrill
T6C0.0433
; #@! TA.AperFunction,Plated,PTH,ComponentDrill
T7C0.0598
%
G90
G05
T1
X4.22Y-4.13
T2
X4.24Y-3.26
X4.2893Y-3.95
X4.2893Y-4.07
X4.54Y-3.26
X4.5893Y-3.95
X4.5893Y-4.07
T3
X3.7616Y-4.23
X3.8008Y-2.97
X3.86Y-4.23
X3.8992Y-2.97
X4.0008Y-2.97
X4.0992Y-2.97
T4
X4.2854Y-3.02
X4.3838Y-3.02
X4.4822Y-3.02
X4.4987Y-3.5402
X4.4987Y-3.6402
T5
X3.9006Y-2.61
X3.91Y-4.51
X4.0006Y-2.61
X4.01Y-4.51
X4.1006Y-2.61
X4.11Y-4.51
X4.76Y-2.61
X4.76Y-2.71
X4.76Y-4.414
X4.76Y-4.514
T6
X3.83Y-3.1428
X3.83Y-4.05
X3.93Y-3.1428
X3.93Y-4.05
X4.03Y-3.1428
X4.03Y-4.05
T7
X4.32Y-2.6966
X4.32Y-4.4278
X4.52Y-2.6966
X4.52Y-4.4278
T5
G00X4.04Y-3.5529
M15
G01X4.04Y-3.6317
M16
G05
G00X4.1187Y-3.7773
M15
G01X4.1975Y-3.7773
M16
G05
G00X4.2762Y-3.5529
M15
G01X4.2762Y-3.6317
M16
G05
T0
M30
