%TF.GenerationSoftware,KiCad,Pcbnew,(5.99.0-12741-g2662433374)*%
%TF.CreationDate,2021-10-19T15:00:24+11:00*%
%TF.ProjectId,Breadboard Power Supply,42726561-6462-46f6-9172-6420506f7765,rev?*%
%TF.SameCoordinates,Original*%
%TF.FileFunction,Soldermask,Bot*%
%TF.FilePolarity,Negative*%
%FSLAX46Y46*%
G04 Gerber Fmt 4.6, Leading zero omitted, Abs format (unit mm)*
G04 Created by KiCad (PCBNEW (5.99.0-12741-g2662433374)) date 2021-10-19 15:00:24*
%MOMM*%
%LPD*%
G01*
G04 APERTURE LIST*
G04 Aperture macros list*
%AMRoundRect*
0 Rectangle with rounded corners*
0 $1 Rounding radius*
0 $2 $3 $4 $5 $6 $7 $8 $9 X,Y pos of 4 corners*
0 Add a 4 corners polygon primitive as box body*
4,1,4,$2,$3,$4,$5,$6,$7,$8,$9,$2,$3,0*
0 Add four circle primitives for the rounded corners*
1,1,$1+$1,$2,$3*
1,1,$1+$1,$4,$5*
1,1,$1+$1,$6,$7*
1,1,$1+$1,$8,$9*
0 Add four rect primitives between the rounded corners*
20,1,$1+$1,$2,$3,$4,$5,0*
20,1,$1+$1,$4,$5,$6,$7,0*
20,1,$1+$1,$6,$7,$8,$9,0*
20,1,$1+$1,$8,$9,$2,$3,0*%
G04 Aperture macros list end*
%ADD10R,1.700000X1.700000*%
%ADD11O,1.700000X1.700000*%
%ADD12C,1.400000*%
%ADD13O,1.400000X1.400000*%
%ADD14R,3.000000X3.000000*%
%ADD15C,3.000000*%
%ADD16C,1.600000*%
%ADD17R,3.500000X3.500000*%
%ADD18RoundRect,0.750000X-0.750000X-1.000000X0.750000X-1.000000X0.750000X1.000000X-0.750000X1.000000X0*%
%ADD19RoundRect,0.875000X-0.875000X-0.875000X0.875000X-0.875000X0.875000X0.875000X-0.875000X0.875000X0*%
%ADD20R,1.905000X2.000000*%
%ADD21O,1.905000X2.000000*%
%ADD22R,1.800000X1.800000*%
%ADD23C,1.800000*%
%ADD24R,1.900000X1.900000*%
%ADD25C,1.900000*%
G04 APERTURE END LIST*
D10*
%TO.C,J3*%
X99075000Y-66294000D03*
D11*
X101615000Y-66294000D03*
X104155000Y-66294000D03*
%TD*%
D12*
%TO.C,R2*%
X116568000Y-103378000D03*
D13*
X108948000Y-103378000D03*
%TD*%
D14*
%TO.C,J2*%
X109728000Y-68494000D03*
D15*
X114808000Y-68494000D03*
%TD*%
D10*
%TO.C,J7*%
X99314000Y-114554000D03*
D11*
X101854000Y-114554000D03*
X104394000Y-114554000D03*
%TD*%
D14*
%TO.C,J5*%
X109728000Y-112465600D03*
D15*
X114808000Y-112465600D03*
%TD*%
D16*
%TO.C,C2*%
X98044000Y-107442000D03*
X95544000Y-107442000D03*
%TD*%
D17*
%TO.C,J1*%
X108616000Y-91244500D03*
D18*
X102616000Y-91244500D03*
D19*
X105616000Y-95944500D03*
%TD*%
D10*
%TO.C,J4*%
X120904000Y-112115600D03*
D11*
X120904000Y-114655600D03*
%TD*%
D20*
%TO.C,U1*%
X97282000Y-102870000D03*
D21*
X99822000Y-102870000D03*
X102362000Y-102870000D03*
%TD*%
D22*
%TO.C,D1*%
X114268000Y-92461000D03*
D23*
X114268000Y-89921000D03*
%TD*%
D12*
%TO.C,R1*%
X107696000Y-82804000D03*
D13*
X115316000Y-82804000D03*
%TD*%
D16*
%TO.C,C1*%
X104120000Y-75438000D03*
X101620000Y-75438000D03*
%TD*%
D10*
%TO.C,J6*%
X120904000Y-66294000D03*
D11*
X120904000Y-68834000D03*
%TD*%
D20*
%TO.C,U2*%
X102362000Y-79827000D03*
D21*
X99822000Y-79827000D03*
X97282000Y-79827000D03*
%TD*%
D16*
%TO.C,C3*%
X99040000Y-75438000D03*
X96540000Y-75438000D03*
%TD*%
D12*
%TO.C,R3*%
X108948000Y-100330000D03*
D13*
X116568000Y-100330000D03*
%TD*%
D24*
%TO.C,S1*%
X113848000Y-76708000D03*
D25*
X111348000Y-76708000D03*
X108848000Y-76708000D03*
%TD*%
M02*
