%TF.GenerationSoftware,KiCad,Pcbnew,(5.99.0-12741-g2662433374)*%
%TF.CreationDate,2021-10-19T15:00:23+11:00*%
%TF.ProjectId,Breadboard Power Supply,42726561-6462-46f6-9172-6420506f7765,rev?*%
%TF.SameCoordinates,Original*%
%TF.FileFunction,Copper,L2,Bot*%
%TF.FilePolarity,Positive*%
%FSLAX46Y46*%
G04 Gerber Fmt 4.6, Leading zero omitted, Abs format (unit mm)*
G04 Created by KiCad (PCBNEW (5.99.0-12741-g2662433374)) date 2021-10-19 15:00:23*
%MOMM*%
%LPD*%
G01*
G04 APERTURE LIST*
G04 Aperture macros list*
%AMRoundRect*
0 Rectangle with rounded corners*
0 $1 Rounding radius*
0 $2 $3 $4 $5 $6 $7 $8 $9 X,Y pos of 4 corners*
0 Add a 4 corners polygon primitive as box body*
4,1,4,$2,$3,$4,$5,$6,$7,$8,$9,$2,$3,0*
0 Add four circle primitives for the rounded corners*
1,1,$1+$1,$2,$3*
1,1,$1+$1,$4,$5*
1,1,$1+$1,$6,$7*
1,1,$1+$1,$8,$9*
0 Add four rect primitives between the rounded corners*
20,1,$1+$1,$2,$3,$4,$5,0*
20,1,$1+$1,$4,$5,$6,$7,0*
20,1,$1+$1,$6,$7,$8,$9,0*
20,1,$1+$1,$8,$9,$2,$3,0*%
G04 Aperture macros list end*
%TA.AperFunction,ComponentPad*%
%ADD10R,1.700000X1.700000*%
%TD*%
%TA.AperFunction,ComponentPad*%
%ADD11O,1.700000X1.700000*%
%TD*%
%TA.AperFunction,ComponentPad*%
%ADD12C,1.400000*%
%TD*%
%TA.AperFunction,ComponentPad*%
%ADD13O,1.400000X1.400000*%
%TD*%
%TA.AperFunction,ComponentPad*%
%ADD14R,3.000000X3.000000*%
%TD*%
%TA.AperFunction,ComponentPad*%
%ADD15C,3.000000*%
%TD*%
%TA.AperFunction,ComponentPad*%
%ADD16C,1.600000*%
%TD*%
%TA.AperFunction,ComponentPad*%
%ADD17R,3.500000X3.500000*%
%TD*%
%TA.AperFunction,ComponentPad*%
%ADD18RoundRect,0.750000X-0.750000X-1.000000X0.750000X-1.000000X0.750000X1.000000X-0.750000X1.000000X0*%
%TD*%
%TA.AperFunction,ComponentPad*%
%ADD19RoundRect,0.875000X-0.875000X-0.875000X0.875000X-0.875000X0.875000X0.875000X-0.875000X0.875000X0*%
%TD*%
%TA.AperFunction,ComponentPad*%
%ADD20R,1.905000X2.000000*%
%TD*%
%TA.AperFunction,ComponentPad*%
%ADD21O,1.905000X2.000000*%
%TD*%
%TA.AperFunction,ComponentPad*%
%ADD22R,1.800000X1.800000*%
%TD*%
%TA.AperFunction,ComponentPad*%
%ADD23C,1.800000*%
%TD*%
%TA.AperFunction,ComponentPad*%
%ADD24R,1.900000X1.900000*%
%TD*%
%TA.AperFunction,ComponentPad*%
%ADD25C,1.900000*%
%TD*%
%TA.AperFunction,ViaPad*%
%ADD26C,0.900000*%
%TD*%
%TA.AperFunction,Conductor*%
%ADD27C,0.350000*%
%TD*%
%TA.AperFunction,Conductor*%
%ADD28C,0.250000*%
%TD*%
G04 APERTURE END LIST*
D10*
%TO.P,J3,1,Pin_1*%
%TO.N,/3.3v*%
X99075000Y-66294000D03*
D11*
%TO.P,J3,2,Pin_2*%
%TO.N,/PWR_output*%
X101615000Y-66294000D03*
%TO.P,J3,3,Pin_3*%
%TO.N,/5V*%
X104155000Y-66294000D03*
%TD*%
D12*
%TO.P,R2,1*%
%TO.N,Net-(R2-Pad1)*%
X116568000Y-103378000D03*
D13*
%TO.P,R2,2*%
%TO.N,/3.3v*%
X108948000Y-103378000D03*
%TD*%
D14*
%TO.P,J2,1,Pin_1*%
%TO.N,GND*%
X109728000Y-68494000D03*
D15*
%TO.P,J2,2,Pin_2*%
%TO.N,/PWR_output*%
X114808000Y-68494000D03*
%TD*%
D10*
%TO.P,J7,1,Pin_1*%
%TO.N,/3.3v*%
X99314000Y-114554000D03*
D11*
%TO.P,J7,2,Pin_2*%
%TO.N,/PWR_output*%
X101854000Y-114554000D03*
%TO.P,J7,3,Pin_3*%
%TO.N,/5V*%
X104394000Y-114554000D03*
%TD*%
D14*
%TO.P,J5,1,Pin_1*%
%TO.N,GND*%
X109728000Y-112465600D03*
D15*
%TO.P,J5,2,Pin_2*%
%TO.N,/PWR_output*%
X114808000Y-112465600D03*
%TD*%
D16*
%TO.P,C2,1*%
%TO.N,/3.3v*%
X98044000Y-107442000D03*
%TO.P,C2,2*%
%TO.N,GND*%
X95544000Y-107442000D03*
%TD*%
D17*
%TO.P,J1,1*%
%TO.N,/PWR_input*%
X108616000Y-91244500D03*
D18*
%TO.P,J1,2*%
%TO.N,GND*%
X102616000Y-91244500D03*
D19*
%TO.P,J1,3*%
X105616000Y-95944500D03*
%TD*%
D10*
%TO.P,J4,1,Pin_1*%
%TO.N,GND*%
X120904000Y-112115600D03*
D11*
%TO.P,J4,2,Pin_2*%
%TO.N,/PWR_output*%
X120904000Y-114655600D03*
%TD*%
D20*
%TO.P,U1,1,ADJ*%
%TO.N,Net-(R2-Pad1)*%
X97282000Y-102870000D03*
D21*
%TO.P,U1,2,VO*%
%TO.N,/3.3v*%
X99822000Y-102870000D03*
%TO.P,U1,3,VI*%
%TO.N,/12V*%
X102362000Y-102870000D03*
%TD*%
D22*
%TO.P,D1,1,K*%
%TO.N,GND*%
X114268000Y-92461000D03*
D23*
%TO.P,D1,2,A*%
%TO.N,Net-(D1-Pad2)*%
X114268000Y-89921000D03*
%TD*%
D12*
%TO.P,R1,1*%
%TO.N,Net-(D1-Pad2)*%
X107696000Y-82804000D03*
D13*
%TO.P,R1,2*%
%TO.N,/12V*%
X115316000Y-82804000D03*
%TD*%
D16*
%TO.P,C1,1*%
%TO.N,/12V*%
X104120000Y-75438000D03*
%TO.P,C1,2*%
%TO.N,GND*%
X101620000Y-75438000D03*
%TD*%
D10*
%TO.P,J6,1,Pin_1*%
%TO.N,GND*%
X120904000Y-66294000D03*
D11*
%TO.P,J6,2,Pin_2*%
%TO.N,/PWR_output*%
X120904000Y-68834000D03*
%TD*%
D20*
%TO.P,U2,1,VI*%
%TO.N,/12V*%
X102362000Y-79827000D03*
D21*
%TO.P,U2,2,GND*%
%TO.N,GND*%
X99822000Y-79827000D03*
%TO.P,U2,3,VO*%
%TO.N,/5V*%
X97282000Y-79827000D03*
%TD*%
D16*
%TO.P,C3,1*%
%TO.N,/5V*%
X99040000Y-75438000D03*
%TO.P,C3,2*%
%TO.N,GND*%
X96540000Y-75438000D03*
%TD*%
D12*
%TO.P,R3,1*%
%TO.N,GND*%
X108948000Y-100330000D03*
D13*
%TO.P,R3,2*%
%TO.N,Net-(R2-Pad1)*%
X116568000Y-100330000D03*
%TD*%
D24*
%TO.P,S1,1*%
%TO.N,/12V*%
X113848000Y-76708000D03*
D25*
%TO.P,S1,2*%
%TO.N,/PWR_input*%
X111348000Y-76708000D03*
%TO.P,S1,3*%
%TO.N,unconnected-(S1-Pad3)*%
X108848000Y-76708000D03*
%TD*%
D26*
%TO.N,/3.3v*%
X107188000Y-104902000D03*
%TD*%
D27*
%TO.N,/12V*%
X99568000Y-88138000D02*
X99568000Y-95758000D01*
X102362000Y-85344000D02*
X99568000Y-88138000D01*
X99568000Y-95758000D02*
X102362000Y-98552000D01*
X102362000Y-98552000D02*
X102362000Y-102870000D01*
X102362000Y-79827000D02*
X102362000Y-85344000D01*
%TO.N,/3.3v*%
X101854000Y-104902000D02*
X99822000Y-102870000D01*
X107188000Y-104902000D02*
X101854000Y-104902000D01*
D28*
%TO.N,Net-(R2-Pad1)*%
X108204000Y-105918000D02*
X102108000Y-105918000D01*
X97282000Y-103378000D02*
X97282000Y-102870000D01*
X101854000Y-105664000D02*
X99568000Y-105664000D01*
X99568000Y-105664000D02*
X97282000Y-103378000D01*
X115298000Y-104648000D02*
X109474000Y-104648000D01*
X116568000Y-103378000D02*
X115298000Y-104648000D01*
X102108000Y-105918000D02*
X101854000Y-105664000D01*
X109474000Y-104648000D02*
X108204000Y-105918000D01*
%TD*%
%TA.AperFunction,Conductor*%
%TO.N,GND*%
G36*
X97966260Y-64790002D02*
G01*
X98012753Y-64843658D01*
X98022857Y-64913932D01*
X97993363Y-64978512D01*
X97973705Y-64996825D01*
X97861739Y-65080739D01*
X97774385Y-65197295D01*
X97723255Y-65333684D01*
X97716500Y-65395866D01*
X97716500Y-67192134D01*
X97723255Y-67254316D01*
X97774385Y-67390705D01*
X97861739Y-67507261D01*
X97978295Y-67594615D01*
X98114684Y-67645745D01*
X98176866Y-67652500D01*
X99973134Y-67652500D01*
X100035316Y-67645745D01*
X100171705Y-67594615D01*
X100288261Y-67507261D01*
X100375615Y-67390705D01*
X100397799Y-67331529D01*
X100419598Y-67273382D01*
X100462240Y-67216618D01*
X100528802Y-67191918D01*
X100598150Y-67207126D01*
X100632817Y-67235114D01*
X100661250Y-67267938D01*
X100833126Y-67410632D01*
X101026000Y-67523338D01*
X101234692Y-67603030D01*
X101239760Y-67604061D01*
X101239763Y-67604062D01*
X101347017Y-67625883D01*
X101453597Y-67647567D01*
X101458772Y-67647757D01*
X101458774Y-67647757D01*
X101671673Y-67655564D01*
X101671677Y-67655564D01*
X101676837Y-67655753D01*
X101681957Y-67655097D01*
X101681959Y-67655097D01*
X101893288Y-67628025D01*
X101893289Y-67628025D01*
X101898416Y-67627368D01*
X101955803Y-67610151D01*
X102107429Y-67564661D01*
X102107434Y-67564659D01*
X102112384Y-67563174D01*
X102312994Y-67464896D01*
X102494860Y-67335173D01*
X102653096Y-67177489D01*
X102783453Y-66996077D01*
X102784776Y-66997028D01*
X102831645Y-66953857D01*
X102901580Y-66941625D01*
X102967026Y-66969144D01*
X102994875Y-67000994D01*
X103008806Y-67023728D01*
X103054987Y-67099088D01*
X103201250Y-67267938D01*
X103373126Y-67410632D01*
X103566000Y-67523338D01*
X103774692Y-67603030D01*
X103779760Y-67604061D01*
X103779763Y-67604062D01*
X103887017Y-67625883D01*
X103993597Y-67647567D01*
X103998772Y-67647757D01*
X103998774Y-67647757D01*
X104211673Y-67655564D01*
X104211677Y-67655564D01*
X104216837Y-67655753D01*
X104221957Y-67655097D01*
X104221959Y-67655097D01*
X104433288Y-67628025D01*
X104433289Y-67628025D01*
X104438416Y-67627368D01*
X104495803Y-67610151D01*
X104647429Y-67564661D01*
X104647434Y-67564659D01*
X104652384Y-67563174D01*
X104852994Y-67464896D01*
X105034860Y-67335173D01*
X105193096Y-67177489D01*
X105323453Y-66996077D01*
X105344320Y-66953857D01*
X105420136Y-66800453D01*
X105420137Y-66800451D01*
X105422430Y-66795811D01*
X105487370Y-66582069D01*
X105516529Y-66360590D01*
X105518156Y-66294000D01*
X105499852Y-66071361D01*
X105445431Y-65854702D01*
X105356354Y-65649840D01*
X105235014Y-65462277D01*
X105084670Y-65297051D01*
X105080619Y-65293852D01*
X105080615Y-65293848D01*
X104913414Y-65161800D01*
X104913410Y-65161798D01*
X104909359Y-65158598D01*
X104713789Y-65050638D01*
X104708920Y-65048914D01*
X104708916Y-65048912D01*
X104612509Y-65014773D01*
X104554973Y-64973179D01*
X104529057Y-64907081D01*
X104542991Y-64837465D01*
X104592350Y-64786434D01*
X104654569Y-64770000D01*
X119727973Y-64770000D01*
X119796094Y-64790002D01*
X119842587Y-64843658D01*
X119852691Y-64913932D01*
X119823197Y-64978512D01*
X119803538Y-64996826D01*
X119698276Y-65075715D01*
X119685715Y-65088276D01*
X119609214Y-65190351D01*
X119600676Y-65205946D01*
X119555522Y-65326394D01*
X119551895Y-65341649D01*
X119546369Y-65392514D01*
X119546000Y-65399328D01*
X119546000Y-66021885D01*
X119550475Y-66037124D01*
X119551865Y-66038329D01*
X119559548Y-66040000D01*
X121032000Y-66040000D01*
X121100121Y-66060002D01*
X121146614Y-66113658D01*
X121158000Y-66166000D01*
X121158000Y-66422000D01*
X121137998Y-66490121D01*
X121084342Y-66536614D01*
X121032000Y-66548000D01*
X119564116Y-66548000D01*
X119548877Y-66552475D01*
X119547672Y-66553865D01*
X119546001Y-66561548D01*
X119546001Y-67188669D01*
X119546371Y-67195490D01*
X119551895Y-67246352D01*
X119555521Y-67261604D01*
X119600676Y-67382054D01*
X119609214Y-67397649D01*
X119685715Y-67499724D01*
X119698276Y-67512285D01*
X119800351Y-67588786D01*
X119815946Y-67597324D01*
X119924827Y-67638142D01*
X119981591Y-67680784D01*
X120006291Y-67747345D01*
X119991083Y-67816694D01*
X119971691Y-67843175D01*
X119870970Y-67948574D01*
X119844629Y-67976138D01*
X119718743Y-68160680D01*
X119624688Y-68363305D01*
X119564989Y-68578570D01*
X119541251Y-68800695D01*
X119554110Y-69023715D01*
X119555247Y-69028761D01*
X119555248Y-69028767D01*
X119568597Y-69088000D01*
X119603222Y-69241639D01*
X119687266Y-69448616D01*
X119689965Y-69453020D01*
X119763319Y-69572723D01*
X119803987Y-69639088D01*
X119950250Y-69807938D01*
X120016019Y-69862540D01*
X120113978Y-69943867D01*
X120122126Y-69950632D01*
X120315000Y-70063338D01*
X120440637Y-70111314D01*
X120448430Y-70114290D01*
X120504933Y-70157278D01*
X120529226Y-70223989D01*
X120513596Y-70293243D01*
X120463005Y-70343054D01*
X120403481Y-70358000D01*
X118925206Y-70358000D01*
X118904302Y-70356254D01*
X118895665Y-70354801D01*
X118884538Y-70352929D01*
X118878210Y-70352852D01*
X118876858Y-70352835D01*
X118876854Y-70352835D01*
X118871999Y-70352776D01*
X118865296Y-70353736D01*
X118857858Y-70354801D01*
X118848985Y-70355753D01*
X118788372Y-70360088D01*
X118654557Y-70369659D01*
X118650154Y-70370617D01*
X118650153Y-70370617D01*
X118445949Y-70415039D01*
X118445945Y-70415040D01*
X118441542Y-70415998D01*
X118437325Y-70417571D01*
X118437321Y-70417572D01*
X118330295Y-70457491D01*
X118237290Y-70492180D01*
X118045959Y-70596655D01*
X117973261Y-70651076D01*
X117875046Y-70724598D01*
X117875039Y-70724604D01*
X117871443Y-70727296D01*
X117717296Y-70881443D01*
X117714604Y-70885039D01*
X117714598Y-70885046D01*
X117644006Y-70979347D01*
X117586655Y-71055959D01*
X117482180Y-71247290D01*
X117480607Y-71251508D01*
X117408391Y-71445127D01*
X117405998Y-71451542D01*
X117405040Y-71455945D01*
X117405039Y-71455949D01*
X117360617Y-71660153D01*
X117359659Y-71664557D01*
X117359338Y-71669049D01*
X117346966Y-71842017D01*
X117345542Y-71853926D01*
X117342929Y-71869460D01*
X117342776Y-71881999D01*
X117346727Y-71909587D01*
X117348000Y-71927450D01*
X117348000Y-99162508D01*
X117327998Y-99230629D01*
X117274342Y-99277122D01*
X117204068Y-99287226D01*
X117168752Y-99276704D01*
X117020201Y-99207433D01*
X116987892Y-99192367D01*
X116987891Y-99192366D01*
X116982910Y-99190044D01*
X116977602Y-99188622D01*
X116977600Y-99188621D01*
X116783970Y-99136738D01*
X116783968Y-99136738D01*
X116778655Y-99135314D01*
X116568000Y-99116884D01*
X116357345Y-99135314D01*
X116352032Y-99136738D01*
X116352030Y-99136738D01*
X116158400Y-99188621D01*
X116158398Y-99188622D01*
X116153090Y-99190044D01*
X116148109Y-99192366D01*
X116148108Y-99192367D01*
X115966423Y-99277088D01*
X115966420Y-99277090D01*
X115961442Y-99279411D01*
X115788224Y-99400699D01*
X115638699Y-99550224D01*
X115517411Y-99723442D01*
X115428044Y-99915090D01*
X115373314Y-100119345D01*
X115354884Y-100330000D01*
X115373314Y-100540655D01*
X115374738Y-100545968D01*
X115374738Y-100545970D01*
X115423346Y-100727375D01*
X115428044Y-100744910D01*
X115517411Y-100936558D01*
X115638699Y-101109776D01*
X115788224Y-101259301D01*
X115961442Y-101380589D01*
X115966420Y-101382910D01*
X115966423Y-101382912D01*
X116133961Y-101461036D01*
X116153090Y-101469956D01*
X116158398Y-101471378D01*
X116158400Y-101471379D01*
X116352030Y-101523262D01*
X116352032Y-101523262D01*
X116357345Y-101524686D01*
X116568000Y-101543116D01*
X116778655Y-101524686D01*
X116783968Y-101523262D01*
X116783970Y-101523262D01*
X116977600Y-101471379D01*
X116977602Y-101471378D01*
X116982910Y-101469956D01*
X117010118Y-101457269D01*
X117045076Y-101440968D01*
X117168751Y-101383297D01*
X117238941Y-101372636D01*
X117303754Y-101401616D01*
X117342611Y-101461036D01*
X117348000Y-101497492D01*
X117348000Y-102210508D01*
X117327998Y-102278629D01*
X117274342Y-102325122D01*
X117204068Y-102335226D01*
X117168752Y-102324704D01*
X116982910Y-102238044D01*
X116977602Y-102236622D01*
X116977600Y-102236621D01*
X116783970Y-102184738D01*
X116783968Y-102184738D01*
X116778655Y-102183314D01*
X116568000Y-102164884D01*
X116357345Y-102183314D01*
X116352032Y-102184738D01*
X116352030Y-102184738D01*
X116158400Y-102236621D01*
X116158398Y-102236622D01*
X116153090Y-102238044D01*
X116148109Y-102240366D01*
X116148108Y-102240367D01*
X115966423Y-102325088D01*
X115966420Y-102325090D01*
X115961442Y-102327411D01*
X115788224Y-102448699D01*
X115638699Y-102598224D01*
X115517411Y-102771442D01*
X115428044Y-102963090D01*
X115373314Y-103167345D01*
X115354884Y-103378000D01*
X115355363Y-103383475D01*
X115372835Y-103583175D01*
X115373314Y-103588655D01*
X115374736Y-103593961D01*
X115375547Y-103598561D01*
X115367679Y-103669121D01*
X115340557Y-103709538D01*
X115072500Y-103977595D01*
X115010188Y-104011621D01*
X114983405Y-104014500D01*
X110182408Y-104014500D01*
X110114287Y-103994498D01*
X110067794Y-103940842D01*
X110057690Y-103870568D01*
X110068213Y-103835251D01*
X110085631Y-103797897D01*
X110085633Y-103797892D01*
X110087956Y-103792910D01*
X110110296Y-103709538D01*
X110141262Y-103593970D01*
X110141262Y-103593968D01*
X110142686Y-103588655D01*
X110161116Y-103378000D01*
X110142686Y-103167345D01*
X110087956Y-102963090D01*
X109998589Y-102771442D01*
X109877301Y-102598224D01*
X109727776Y-102448699D01*
X109554558Y-102327411D01*
X109549580Y-102325090D01*
X109549577Y-102325088D01*
X109367892Y-102240367D01*
X109367891Y-102240366D01*
X109362910Y-102238044D01*
X109357602Y-102236622D01*
X109357600Y-102236621D01*
X109163970Y-102184738D01*
X109163968Y-102184738D01*
X109158655Y-102183314D01*
X108948000Y-102164884D01*
X108737345Y-102183314D01*
X108732032Y-102184738D01*
X108732030Y-102184738D01*
X108538400Y-102236621D01*
X108538398Y-102236622D01*
X108533090Y-102238044D01*
X108528109Y-102240366D01*
X108528108Y-102240367D01*
X108346423Y-102325088D01*
X108346420Y-102325090D01*
X108341442Y-102327411D01*
X108168224Y-102448699D01*
X108018699Y-102598224D01*
X107897411Y-102771442D01*
X107808044Y-102963090D01*
X107753314Y-103167345D01*
X107734884Y-103378000D01*
X107753314Y-103588655D01*
X107754738Y-103593968D01*
X107754738Y-103593970D01*
X107785705Y-103709538D01*
X107808044Y-103792910D01*
X107810366Y-103797891D01*
X107810367Y-103797892D01*
X107868167Y-103921844D01*
X107878828Y-103992036D01*
X107849848Y-104056848D01*
X107790428Y-104095705D01*
X107719434Y-104096268D01*
X107694044Y-104085930D01*
X107640257Y-104056848D01*
X107561231Y-104014119D01*
X107381666Y-103958534D01*
X107375541Y-103957890D01*
X107375540Y-103957890D01*
X107200852Y-103939529D01*
X107200851Y-103939529D01*
X107194724Y-103938885D01*
X107117673Y-103945897D01*
X107013665Y-103955363D01*
X107013662Y-103955364D01*
X107007526Y-103955922D01*
X107001620Y-103957660D01*
X107001616Y-103957661D01*
X106876455Y-103994498D01*
X106827202Y-104008994D01*
X106660621Y-104096080D01*
X106607777Y-104138568D01*
X106542943Y-104190696D01*
X106477321Y-104217793D01*
X106463991Y-104218500D01*
X103434372Y-104218500D01*
X103366251Y-104198498D01*
X103319758Y-104144842D01*
X103309654Y-104074568D01*
X103343278Y-104005449D01*
X103388946Y-103957661D01*
X103501301Y-103840088D01*
X103636686Y-103641622D01*
X103656675Y-103598561D01*
X103735658Y-103428405D01*
X103735659Y-103428401D01*
X103737837Y-103423710D01*
X103802040Y-103192202D01*
X103823000Y-102996072D01*
X103823000Y-102761598D01*
X103808322Y-102583063D01*
X103749794Y-102350056D01*
X103653997Y-102129737D01*
X103639935Y-102108000D01*
X105154000Y-102108000D01*
X106680000Y-102108000D01*
X106680000Y-101818937D01*
X110532024Y-101818937D01*
X110594306Y-101881219D01*
X110598108Y-101885189D01*
X110643016Y-101934197D01*
X110646640Y-101938330D01*
X110660758Y-101955155D01*
X110664199Y-101959442D01*
X110704671Y-102012185D01*
X110707922Y-102016619D01*
X110771908Y-102108000D01*
X111760000Y-102108000D01*
X112774000Y-102108000D01*
X114300000Y-102108000D01*
X114300000Y-100582000D01*
X112774000Y-100582000D01*
X112774000Y-102108000D01*
X111760000Y-102108000D01*
X111760000Y-100582000D01*
X111156441Y-100582000D01*
X111152334Y-100628943D01*
X111151735Y-100634407D01*
X111143059Y-100700311D01*
X111142223Y-100705744D01*
X111138409Y-100727375D01*
X111137337Y-100732766D01*
X111122948Y-100797673D01*
X111121641Y-100803015D01*
X111066933Y-101007185D01*
X111065393Y-101012465D01*
X111045395Y-101075884D01*
X111043628Y-101081090D01*
X111036116Y-101101727D01*
X111034125Y-101106848D01*
X111008696Y-101168238D01*
X111006482Y-101173268D01*
X110917153Y-101364837D01*
X110914722Y-101369767D01*
X110884031Y-101428726D01*
X110881387Y-101433545D01*
X110870405Y-101452567D01*
X110867552Y-101457269D01*
X110831829Y-101513343D01*
X110828775Y-101517914D01*
X110793918Y-101567695D01*
X110781895Y-101582374D01*
X110623970Y-101748001D01*
X110609880Y-101760709D01*
X110550699Y-101806494D01*
X110540665Y-101813504D01*
X110532024Y-101818937D01*
X106680000Y-101818937D01*
X106680000Y-101344261D01*
X108298294Y-101344261D01*
X108307590Y-101356276D01*
X108337189Y-101377001D01*
X108346677Y-101382479D01*
X108528277Y-101467159D01*
X108538571Y-101470907D01*
X108732122Y-101522769D01*
X108742909Y-101524671D01*
X108942525Y-101542135D01*
X108953475Y-101542135D01*
X109153091Y-101524671D01*
X109163878Y-101522769D01*
X109357429Y-101470907D01*
X109367723Y-101467159D01*
X109549323Y-101382479D01*
X109558811Y-101377001D01*
X109589248Y-101355689D01*
X109597623Y-101345212D01*
X109590554Y-101331764D01*
X108960812Y-100702022D01*
X108946868Y-100694408D01*
X108945035Y-100694539D01*
X108938420Y-100698790D01*
X108304724Y-101332486D01*
X108298294Y-101344261D01*
X106680000Y-101344261D01*
X106680000Y-100582000D01*
X105154000Y-100582000D01*
X105154000Y-102108000D01*
X103639935Y-102108000D01*
X103530170Y-101938330D01*
X103526310Y-101932363D01*
X103526308Y-101932360D01*
X103523502Y-101928023D01*
X103361814Y-101750330D01*
X103267545Y-101675881D01*
X103177331Y-101604634D01*
X103177328Y-101604632D01*
X103173276Y-101601432D01*
X103143664Y-101585085D01*
X103110607Y-101566837D01*
X103060636Y-101516404D01*
X103045500Y-101456528D01*
X103045500Y-100335475D01*
X107735865Y-100335475D01*
X107753329Y-100535091D01*
X107755231Y-100545878D01*
X107807093Y-100739429D01*
X107810841Y-100749723D01*
X107895521Y-100931323D01*
X107900999Y-100940811D01*
X107922311Y-100971248D01*
X107932788Y-100979623D01*
X107946236Y-100972554D01*
X108575978Y-100342812D01*
X108582356Y-100331132D01*
X109312408Y-100331132D01*
X109312539Y-100332965D01*
X109316790Y-100339580D01*
X109950486Y-100973276D01*
X109962261Y-100979706D01*
X109974276Y-100970410D01*
X109995001Y-100940811D01*
X110000479Y-100931323D01*
X110085159Y-100749723D01*
X110088907Y-100739429D01*
X110140769Y-100545878D01*
X110142671Y-100535091D01*
X110160135Y-100335475D01*
X110160135Y-100324525D01*
X110142671Y-100124909D01*
X110140769Y-100114122D01*
X110088907Y-99920571D01*
X110085159Y-99910277D01*
X110000479Y-99728677D01*
X109995001Y-99719189D01*
X109973689Y-99688752D01*
X109963212Y-99680377D01*
X109949764Y-99687446D01*
X109320022Y-100317188D01*
X109312408Y-100331132D01*
X108582356Y-100331132D01*
X108583592Y-100328868D01*
X108583461Y-100327035D01*
X108579210Y-100320420D01*
X107945514Y-99686724D01*
X107933739Y-99680294D01*
X107921724Y-99689590D01*
X107900999Y-99719189D01*
X107895521Y-99728677D01*
X107810841Y-99910277D01*
X107807093Y-99920571D01*
X107755231Y-100114122D01*
X107753329Y-100124909D01*
X107735865Y-100324525D01*
X107735865Y-100335475D01*
X103045500Y-100335475D01*
X103045500Y-99568000D01*
X105154000Y-99568000D01*
X106680000Y-99568000D01*
X106680000Y-99314788D01*
X108298377Y-99314788D01*
X108305446Y-99328236D01*
X108935188Y-99957978D01*
X108949132Y-99965592D01*
X108950965Y-99965461D01*
X108957580Y-99961210D01*
X109591276Y-99327514D01*
X109597706Y-99315739D01*
X109588410Y-99303724D01*
X109558811Y-99282999D01*
X109549323Y-99277521D01*
X109367723Y-99192841D01*
X109357429Y-99189093D01*
X109163878Y-99137231D01*
X109153091Y-99135329D01*
X108953475Y-99117865D01*
X108942525Y-99117865D01*
X108742909Y-99135329D01*
X108732122Y-99137231D01*
X108538571Y-99189093D01*
X108528277Y-99192841D01*
X108346677Y-99277521D01*
X108337189Y-99282999D01*
X108306752Y-99304311D01*
X108298377Y-99314788D01*
X106680000Y-99314788D01*
X106680000Y-99212751D01*
X106638162Y-99215017D01*
X106636454Y-99215097D01*
X106615817Y-99215934D01*
X106614112Y-99215992D01*
X106607298Y-99216176D01*
X106605600Y-99216210D01*
X106585031Y-99216488D01*
X106583328Y-99216500D01*
X105870000Y-99216500D01*
X105856532Y-99215778D01*
X105694561Y-99198365D01*
X105681246Y-99196208D01*
X105628904Y-99184822D01*
X105622352Y-99183211D01*
X105612372Y-99180473D01*
X105612178Y-99180530D01*
X105594611Y-99184352D01*
X105379932Y-99215218D01*
X105362000Y-99216500D01*
X105154000Y-99216500D01*
X105154000Y-99568000D01*
X103045500Y-99568000D01*
X103045500Y-98580056D01*
X103045792Y-98571486D01*
X103048745Y-98528167D01*
X110234000Y-98528167D01*
X110366001Y-98654030D01*
X110378709Y-98668120D01*
X110424494Y-98727301D01*
X110431504Y-98737335D01*
X110482039Y-98817710D01*
X110544784Y-98850215D01*
X110565497Y-98863672D01*
X110620954Y-98908000D01*
X110634160Y-98920198D01*
X110782582Y-99078352D01*
X110793918Y-99092305D01*
X110828775Y-99142086D01*
X110831829Y-99146657D01*
X110867552Y-99202731D01*
X110870405Y-99207433D01*
X110881387Y-99226455D01*
X110884031Y-99231274D01*
X110914722Y-99290233D01*
X110917153Y-99295163D01*
X111006482Y-99486732D01*
X111008696Y-99491762D01*
X111034125Y-99553152D01*
X111036116Y-99558273D01*
X111039657Y-99568000D01*
X111760000Y-99568000D01*
X112774000Y-99568000D01*
X114300000Y-99568000D01*
X114300000Y-98042000D01*
X112774000Y-98042000D01*
X112774000Y-99568000D01*
X111760000Y-99568000D01*
X111760000Y-98042000D01*
X110234000Y-98042000D01*
X110234000Y-98528167D01*
X103048745Y-98528167D01*
X103049577Y-98515966D01*
X103038997Y-98455342D01*
X103038034Y-98448819D01*
X103031558Y-98395308D01*
X103031558Y-98395307D01*
X103030645Y-98387765D01*
X103027959Y-98380655D01*
X103026754Y-98375752D01*
X103023886Y-98365266D01*
X103022439Y-98360474D01*
X103021134Y-98352996D01*
X103018082Y-98346043D01*
X102996405Y-98296659D01*
X102993914Y-98290554D01*
X102974855Y-98240118D01*
X102974853Y-98240115D01*
X102972169Y-98233011D01*
X102967869Y-98226754D01*
X102965533Y-98222286D01*
X102960275Y-98212840D01*
X102957693Y-98208474D01*
X102954638Y-98201515D01*
X102917177Y-98152696D01*
X102913314Y-98147377D01*
X102882769Y-98102935D01*
X102878466Y-98096674D01*
X102833676Y-98056767D01*
X102828402Y-98051787D01*
X101686746Y-96910131D01*
X103358000Y-96910131D01*
X103358091Y-96913516D01*
X103360882Y-96965045D01*
X103361955Y-96973689D01*
X103405080Y-97194518D01*
X103407994Y-97204746D01*
X103487364Y-97414240D01*
X103491962Y-97423838D01*
X103605493Y-97616960D01*
X103611646Y-97625649D01*
X103756101Y-97796892D01*
X103763608Y-97804399D01*
X103934851Y-97948854D01*
X103943540Y-97955007D01*
X104136662Y-98068538D01*
X104146260Y-98073136D01*
X104355754Y-98152506D01*
X104365982Y-98155420D01*
X104586811Y-98198545D01*
X104595455Y-98199618D01*
X104646984Y-98202409D01*
X104650369Y-98202500D01*
X105343885Y-98202500D01*
X105359124Y-98198025D01*
X105360329Y-98196635D01*
X105362000Y-98188951D01*
X105362000Y-98184385D01*
X105870000Y-98184385D01*
X105874475Y-98199624D01*
X105875865Y-98200829D01*
X105883548Y-98202500D01*
X106581631Y-98202500D01*
X106585016Y-98202409D01*
X106636545Y-98199618D01*
X106645189Y-98198545D01*
X106866018Y-98155420D01*
X106876246Y-98152506D01*
X107085740Y-98073136D01*
X107095338Y-98068538D01*
X107288460Y-97955007D01*
X107297149Y-97948854D01*
X107468392Y-97804399D01*
X107475899Y-97796892D01*
X107620354Y-97625649D01*
X107626507Y-97616960D01*
X107740038Y-97423838D01*
X107744636Y-97414240D01*
X107824006Y-97204746D01*
X107826920Y-97194518D01*
X107870045Y-96973689D01*
X107871118Y-96965045D01*
X107873909Y-96913516D01*
X107874000Y-96910131D01*
X107874000Y-96216615D01*
X107869525Y-96201376D01*
X107868135Y-96200171D01*
X107860452Y-96198500D01*
X105888115Y-96198500D01*
X105872876Y-96202975D01*
X105871671Y-96204365D01*
X105870000Y-96212048D01*
X105870000Y-98184385D01*
X105362000Y-98184385D01*
X105362000Y-96216615D01*
X105357525Y-96201376D01*
X105356135Y-96200171D01*
X105348452Y-96198500D01*
X103376115Y-96198500D01*
X103360876Y-96202975D01*
X103359671Y-96204365D01*
X103358000Y-96212048D01*
X103358000Y-96910131D01*
X101686746Y-96910131D01*
X100724743Y-95948128D01*
X108851973Y-95948128D01*
X108852030Y-95948322D01*
X108855852Y-95965889D01*
X108886718Y-96180568D01*
X108888000Y-96198500D01*
X108888000Y-96911828D01*
X108887988Y-96913531D01*
X108887710Y-96934100D01*
X108887676Y-96935798D01*
X108887492Y-96942612D01*
X108887434Y-96944317D01*
X108886597Y-96964954D01*
X108886517Y-96966662D01*
X108883399Y-97024237D01*
X108883130Y-97028000D01*
X109220000Y-97028000D01*
X110234000Y-97028000D01*
X111760000Y-97028000D01*
X112774000Y-97028000D01*
X114300000Y-97028000D01*
X115314000Y-97028000D01*
X116334000Y-97028000D01*
X116334000Y-95502000D01*
X115314000Y-95502000D01*
X115314000Y-97028000D01*
X114300000Y-97028000D01*
X114300000Y-95502000D01*
X112774000Y-95502000D01*
X112774000Y-97028000D01*
X111760000Y-97028000D01*
X111760000Y-95502000D01*
X110234000Y-95502000D01*
X110234000Y-97028000D01*
X109220000Y-97028000D01*
X109220000Y-95502000D01*
X108888000Y-95502000D01*
X108888000Y-95690500D01*
X108887278Y-95703968D01*
X108869865Y-95865939D01*
X108867708Y-95879254D01*
X108856322Y-95931596D01*
X108854711Y-95938148D01*
X108851973Y-95948128D01*
X100724743Y-95948128D01*
X100449000Y-95672385D01*
X103358000Y-95672385D01*
X103362475Y-95687624D01*
X103363865Y-95688829D01*
X103371548Y-95690500D01*
X105343885Y-95690500D01*
X105359124Y-95686025D01*
X105360329Y-95684635D01*
X105362000Y-95676952D01*
X105362000Y-95672385D01*
X105870000Y-95672385D01*
X105874475Y-95687624D01*
X105875865Y-95688829D01*
X105883548Y-95690500D01*
X107855885Y-95690500D01*
X107871124Y-95686025D01*
X107872329Y-95684635D01*
X107874000Y-95676952D01*
X107874000Y-94978870D01*
X107873909Y-94975484D01*
X107871118Y-94923955D01*
X107870045Y-94915311D01*
X107826920Y-94694482D01*
X107824006Y-94684254D01*
X107749652Y-94488000D01*
X110681852Y-94488000D01*
X111760000Y-94488000D01*
X111760000Y-93611195D01*
X111717517Y-93703877D01*
X111713497Y-93711885D01*
X111696341Y-93743220D01*
X111691762Y-93750920D01*
X111633140Y-93841969D01*
X111628025Y-93849324D01*
X111540671Y-93965880D01*
X111535046Y-93972854D01*
X111464103Y-94054680D01*
X111457997Y-94061236D01*
X111432736Y-94086497D01*
X111426180Y-94092603D01*
X111344354Y-94163546D01*
X111337380Y-94169171D01*
X111220824Y-94256525D01*
X111213469Y-94261640D01*
X111122420Y-94320262D01*
X111114720Y-94324841D01*
X111083385Y-94341997D01*
X111075377Y-94346017D01*
X110976920Y-94391147D01*
X110968648Y-94394589D01*
X110832259Y-94445719D01*
X110824790Y-94448255D01*
X110733574Y-94476078D01*
X110725959Y-94478143D01*
X110695337Y-94485424D01*
X110687609Y-94487007D01*
X110681852Y-94488000D01*
X107749652Y-94488000D01*
X107744636Y-94474760D01*
X107740038Y-94465162D01*
X107626507Y-94272040D01*
X107620354Y-94263351D01*
X107475899Y-94092108D01*
X107468392Y-94084601D01*
X107297149Y-93940146D01*
X107288460Y-93933993D01*
X107095338Y-93820462D01*
X107085740Y-93815864D01*
X106903520Y-93746827D01*
X106846904Y-93703988D01*
X106822436Y-93637341D01*
X106837885Y-93568045D01*
X106888345Y-93518103D01*
X106948160Y-93503000D01*
X110414134Y-93503000D01*
X110476316Y-93496245D01*
X110612705Y-93445115D01*
X110665338Y-93405669D01*
X112860001Y-93405669D01*
X112860371Y-93412490D01*
X112865895Y-93463352D01*
X112869521Y-93478604D01*
X112914676Y-93599054D01*
X112923214Y-93614649D01*
X112999715Y-93716724D01*
X113012276Y-93729285D01*
X113114351Y-93805786D01*
X113129946Y-93814324D01*
X113250394Y-93859478D01*
X113265649Y-93863105D01*
X113316514Y-93868631D01*
X113323328Y-93869000D01*
X113995885Y-93869000D01*
X114011124Y-93864525D01*
X114012329Y-93863135D01*
X114014000Y-93855452D01*
X114014000Y-93850884D01*
X114522000Y-93850884D01*
X114526475Y-93866123D01*
X114527865Y-93867328D01*
X114535548Y-93868999D01*
X115212669Y-93868999D01*
X115219490Y-93868629D01*
X115270352Y-93863105D01*
X115285604Y-93859479D01*
X115406054Y-93814324D01*
X115421649Y-93805786D01*
X115523724Y-93729285D01*
X115536285Y-93716724D01*
X115612786Y-93614649D01*
X115621324Y-93599054D01*
X115666478Y-93478606D01*
X115670105Y-93463351D01*
X115675631Y-93412486D01*
X115676000Y-93405672D01*
X115676000Y-92733115D01*
X115671525Y-92717876D01*
X115670135Y-92716671D01*
X115662452Y-92715000D01*
X114540115Y-92715000D01*
X114524876Y-92719475D01*
X114523671Y-92720865D01*
X114522000Y-92728548D01*
X114522000Y-93850884D01*
X114014000Y-93850884D01*
X114014000Y-92733115D01*
X114009525Y-92717876D01*
X114008135Y-92716671D01*
X114000452Y-92715000D01*
X112878116Y-92715000D01*
X112862877Y-92719475D01*
X112861672Y-92720865D01*
X112860001Y-92728548D01*
X112860001Y-93405669D01*
X110665338Y-93405669D01*
X110729261Y-93357761D01*
X110816615Y-93241205D01*
X110867745Y-93104816D01*
X110874500Y-93042634D01*
X110874500Y-89886469D01*
X112855095Y-89886469D01*
X112855392Y-89891622D01*
X112855392Y-89891625D01*
X112861067Y-89990041D01*
X112868427Y-90117697D01*
X112869564Y-90122743D01*
X112869565Y-90122749D01*
X112901741Y-90265523D01*
X112919346Y-90343642D01*
X112921288Y-90348424D01*
X112921289Y-90348428D01*
X113004540Y-90553450D01*
X113006484Y-90558237D01*
X113127501Y-90755719D01*
X113130882Y-90759622D01*
X113239653Y-90885191D01*
X113269135Y-90949776D01*
X113259020Y-91020049D01*
X113212519Y-91073697D01*
X113188646Y-91085670D01*
X113129944Y-91107677D01*
X113114351Y-91116214D01*
X113012276Y-91192715D01*
X112999715Y-91205276D01*
X112923214Y-91307351D01*
X112914676Y-91322946D01*
X112869522Y-91443394D01*
X112865895Y-91458649D01*
X112860369Y-91509514D01*
X112860000Y-91516328D01*
X112860000Y-92188885D01*
X112864475Y-92204124D01*
X112865865Y-92205329D01*
X112873548Y-92207000D01*
X115657884Y-92207000D01*
X115673123Y-92202525D01*
X115674328Y-92201135D01*
X115675999Y-92193452D01*
X115675999Y-91516331D01*
X115675629Y-91509510D01*
X115670105Y-91458648D01*
X115666479Y-91443396D01*
X115621324Y-91322946D01*
X115612786Y-91307351D01*
X115536285Y-91205276D01*
X115523724Y-91192715D01*
X115421649Y-91116214D01*
X115406052Y-91107675D01*
X115347415Y-91085693D01*
X115290650Y-91043052D01*
X115265950Y-90976490D01*
X115281157Y-90907141D01*
X115302703Y-90878461D01*
X115340641Y-90840654D01*
X115344303Y-90837005D01*
X115479458Y-90648917D01*
X115526641Y-90553450D01*
X115579784Y-90445922D01*
X115579785Y-90445920D01*
X115582078Y-90441280D01*
X115649408Y-90219671D01*
X115679640Y-89990041D01*
X115681327Y-89921000D01*
X115672840Y-89817769D01*
X115662773Y-89695318D01*
X115662772Y-89695312D01*
X115662349Y-89690167D01*
X115605925Y-89465533D01*
X115594346Y-89438903D01*
X115515630Y-89257868D01*
X115515628Y-89257865D01*
X115513570Y-89253131D01*
X115387764Y-89058665D01*
X115382125Y-89052467D01*
X115235976Y-88891852D01*
X115231887Y-88887358D01*
X115227836Y-88884159D01*
X115227832Y-88884155D01*
X115054177Y-88747011D01*
X115054172Y-88747008D01*
X115050123Y-88743810D01*
X115045607Y-88741317D01*
X115045604Y-88741315D01*
X114851879Y-88634373D01*
X114851875Y-88634371D01*
X114847355Y-88631876D01*
X114842486Y-88630152D01*
X114842482Y-88630150D01*
X114633903Y-88556288D01*
X114633899Y-88556287D01*
X114629028Y-88554562D01*
X114623935Y-88553655D01*
X114623932Y-88553654D01*
X114406095Y-88514851D01*
X114406089Y-88514850D01*
X114401006Y-88513945D01*
X114328096Y-88513054D01*
X114174581Y-88511179D01*
X114174579Y-88511179D01*
X114169411Y-88511116D01*
X113940464Y-88546150D01*
X113720314Y-88618106D01*
X113715726Y-88620494D01*
X113715722Y-88620496D01*
X113689065Y-88634373D01*
X113514872Y-88725052D01*
X113510739Y-88728155D01*
X113510736Y-88728157D01*
X113333790Y-88861012D01*
X113329655Y-88864117D01*
X113311056Y-88883580D01*
X113200421Y-88999353D01*
X113169639Y-89031564D01*
X113166725Y-89035836D01*
X113166724Y-89035837D01*
X113152833Y-89056201D01*
X113039119Y-89222899D01*
X112941602Y-89432981D01*
X112879707Y-89656169D01*
X112855095Y-89886469D01*
X110874500Y-89886469D01*
X110874500Y-89446366D01*
X110867745Y-89384184D01*
X110816615Y-89247795D01*
X110729261Y-89131239D01*
X110612705Y-89043885D01*
X110476316Y-88992755D01*
X110414134Y-88986000D01*
X106817866Y-88986000D01*
X106755684Y-88992755D01*
X106619295Y-89043885D01*
X106502739Y-89131239D01*
X106415385Y-89247795D01*
X106364255Y-89384184D01*
X106357500Y-89446366D01*
X106357500Y-93042634D01*
X106364255Y-93104816D01*
X106415385Y-93241205D01*
X106502739Y-93357761D01*
X106619295Y-93445115D01*
X106627700Y-93448266D01*
X106630831Y-93449980D01*
X106680977Y-93500238D01*
X106695991Y-93569629D01*
X106671106Y-93636122D01*
X106614222Y-93678605D01*
X106570322Y-93686500D01*
X105888115Y-93686500D01*
X105872876Y-93690975D01*
X105871671Y-93692365D01*
X105870000Y-93700048D01*
X105870000Y-95672385D01*
X105362000Y-95672385D01*
X105362000Y-93704615D01*
X105357525Y-93689376D01*
X105356135Y-93688171D01*
X105348452Y-93686500D01*
X104650370Y-93686500D01*
X104646984Y-93686591D01*
X104595455Y-93689382D01*
X104586811Y-93690455D01*
X104365982Y-93733580D01*
X104355754Y-93736494D01*
X104146260Y-93815864D01*
X104136662Y-93820462D01*
X103943540Y-93933993D01*
X103934851Y-93940146D01*
X103763608Y-94084601D01*
X103756101Y-94092108D01*
X103611646Y-94263351D01*
X103605493Y-94272040D01*
X103491962Y-94465162D01*
X103487364Y-94474760D01*
X103407994Y-94684254D01*
X103405080Y-94694482D01*
X103361955Y-94915311D01*
X103360882Y-94923955D01*
X103358091Y-94975484D01*
X103358000Y-94978870D01*
X103358000Y-95672385D01*
X100449000Y-95672385D01*
X100288405Y-95511790D01*
X100254379Y-95449478D01*
X100251500Y-95422695D01*
X100251500Y-92304461D01*
X100608001Y-92304461D01*
X100608209Y-92309571D01*
X100619082Y-92443267D01*
X100620852Y-92453820D01*
X100673967Y-92660685D01*
X100677701Y-92671231D01*
X100766510Y-92865205D01*
X100772046Y-92874912D01*
X100893803Y-93050097D01*
X100900976Y-93058676D01*
X101051824Y-93209524D01*
X101060403Y-93216697D01*
X101235588Y-93338454D01*
X101245295Y-93343990D01*
X101439269Y-93432799D01*
X101449815Y-93436533D01*
X101656679Y-93489647D01*
X101667234Y-93491418D01*
X101800930Y-93502293D01*
X101806036Y-93502500D01*
X102343885Y-93502500D01*
X102359124Y-93498025D01*
X102360329Y-93496635D01*
X102362000Y-93488952D01*
X102362000Y-93484384D01*
X102870000Y-93484384D01*
X102874475Y-93499623D01*
X102875865Y-93500828D01*
X102883548Y-93502499D01*
X103425961Y-93502499D01*
X103431071Y-93502291D01*
X103564767Y-93491418D01*
X103575320Y-93489648D01*
X103782185Y-93436533D01*
X103792731Y-93432799D01*
X103986705Y-93343990D01*
X103996412Y-93338454D01*
X104171597Y-93216697D01*
X104180176Y-93209524D01*
X104331024Y-93058676D01*
X104338197Y-93050097D01*
X104459954Y-92874912D01*
X104465490Y-92865205D01*
X104554299Y-92671231D01*
X104558033Y-92660685D01*
X104611147Y-92453821D01*
X104612918Y-92443266D01*
X104623793Y-92309570D01*
X104624000Y-92304464D01*
X104624000Y-91516615D01*
X104619525Y-91501376D01*
X104618135Y-91500171D01*
X104610452Y-91498500D01*
X102888115Y-91498500D01*
X102872876Y-91502975D01*
X102871671Y-91504365D01*
X102870000Y-91512048D01*
X102870000Y-93484384D01*
X102362000Y-93484384D01*
X102362000Y-91516615D01*
X102357525Y-91501376D01*
X102356135Y-91500171D01*
X102348452Y-91498500D01*
X100626116Y-91498500D01*
X100610877Y-91502975D01*
X100609672Y-91504365D01*
X100608001Y-91512048D01*
X100608001Y-92304461D01*
X100251500Y-92304461D01*
X100251500Y-90972385D01*
X100608000Y-90972385D01*
X100612475Y-90987624D01*
X100613865Y-90988829D01*
X100621548Y-90990500D01*
X102343885Y-90990500D01*
X102359124Y-90986025D01*
X102360329Y-90984635D01*
X102362000Y-90976952D01*
X102362000Y-90972385D01*
X102870000Y-90972385D01*
X102874475Y-90987624D01*
X102875865Y-90988829D01*
X102883548Y-90990500D01*
X104605884Y-90990500D01*
X104621123Y-90986025D01*
X104622328Y-90984635D01*
X104623999Y-90976952D01*
X104623999Y-90184539D01*
X104623791Y-90179429D01*
X104612918Y-90045733D01*
X104611148Y-90035180D01*
X104558033Y-89828315D01*
X104554299Y-89817769D01*
X104465490Y-89623795D01*
X104459954Y-89614088D01*
X104338197Y-89438903D01*
X104331024Y-89430324D01*
X104180176Y-89279476D01*
X104171597Y-89272303D01*
X103996412Y-89150546D01*
X103986705Y-89145010D01*
X103792731Y-89056201D01*
X103782185Y-89052467D01*
X103575321Y-88999353D01*
X103564766Y-88997582D01*
X103431070Y-88986707D01*
X103425964Y-88986500D01*
X102888115Y-88986500D01*
X102872876Y-88990975D01*
X102871671Y-88992365D01*
X102870000Y-89000048D01*
X102870000Y-90972385D01*
X102362000Y-90972385D01*
X102362000Y-89004616D01*
X102357525Y-88989377D01*
X102356135Y-88988172D01*
X102348452Y-88986501D01*
X101806039Y-88986501D01*
X101800929Y-88986709D01*
X101667233Y-88997582D01*
X101656680Y-88999352D01*
X101449815Y-89052467D01*
X101439269Y-89056201D01*
X101245295Y-89145010D01*
X101235588Y-89150546D01*
X101060403Y-89272303D01*
X101051824Y-89279476D01*
X100900976Y-89430324D01*
X100893803Y-89438903D01*
X100772046Y-89614088D01*
X100766510Y-89623795D01*
X100677701Y-89817769D01*
X100673967Y-89828315D01*
X100620853Y-90035179D01*
X100619082Y-90045734D01*
X100608207Y-90179430D01*
X100608000Y-90184536D01*
X100608000Y-90972385D01*
X100251500Y-90972385D01*
X100251500Y-88837514D01*
X105154000Y-88837514D01*
X105164338Y-88851059D01*
X105167642Y-88855593D01*
X105295802Y-89039992D01*
X105298899Y-89044668D01*
X105335082Y-89102016D01*
X105337968Y-89106823D01*
X105349067Y-89126282D01*
X105351736Y-89131212D01*
X105373397Y-89173450D01*
X105373493Y-89172891D01*
X105375076Y-89165163D01*
X105382357Y-89134541D01*
X105384422Y-89126926D01*
X105412245Y-89035710D01*
X105414781Y-89028241D01*
X105465911Y-88891852D01*
X105469353Y-88883580D01*
X105514483Y-88785123D01*
X105518503Y-88777115D01*
X105535659Y-88745780D01*
X105540238Y-88738080D01*
X105598860Y-88647031D01*
X105603975Y-88639676D01*
X105691329Y-88523120D01*
X105696954Y-88516146D01*
X105767897Y-88434320D01*
X105774003Y-88427764D01*
X105799264Y-88402503D01*
X105805820Y-88396397D01*
X105887646Y-88325454D01*
X105894620Y-88319829D01*
X106011176Y-88232475D01*
X106018531Y-88227360D01*
X106109580Y-88168738D01*
X106117280Y-88164159D01*
X106148615Y-88147003D01*
X106156623Y-88142983D01*
X106255080Y-88097853D01*
X106263352Y-88094411D01*
X106399741Y-88043281D01*
X106407210Y-88040745D01*
X106498426Y-88012922D01*
X106506041Y-88010857D01*
X106536663Y-88003576D01*
X106544391Y-88001993D01*
X106638364Y-87985783D01*
X106646174Y-87984686D01*
X106680000Y-87981011D01*
X106680000Y-87972000D01*
X110234000Y-87972000D01*
X110414134Y-87972000D01*
X110417542Y-87972046D01*
X110458751Y-87973161D01*
X110462157Y-87973299D01*
X110475765Y-87974036D01*
X110479167Y-87974267D01*
X110520252Y-87977609D01*
X110523644Y-87977931D01*
X110585826Y-87984686D01*
X110593636Y-87985783D01*
X110687609Y-88001993D01*
X110695337Y-88003576D01*
X110725959Y-88010857D01*
X110733574Y-88012922D01*
X110824790Y-88040745D01*
X110832259Y-88043281D01*
X110968648Y-88094411D01*
X110976920Y-88097853D01*
X111075377Y-88142983D01*
X111083385Y-88147003D01*
X111114720Y-88164159D01*
X111122420Y-88168738D01*
X111213469Y-88227360D01*
X111220824Y-88232475D01*
X111337380Y-88319829D01*
X111344354Y-88325454D01*
X111426180Y-88396397D01*
X111432736Y-88402503D01*
X111457997Y-88427764D01*
X111464103Y-88434320D01*
X111535046Y-88516146D01*
X111540671Y-88523120D01*
X111628025Y-88639676D01*
X111633140Y-88647031D01*
X111691762Y-88738080D01*
X111696341Y-88745780D01*
X111713497Y-88777115D01*
X111717517Y-88785123D01*
X111760000Y-88877805D01*
X111760000Y-87882000D01*
X110234000Y-87882000D01*
X110234000Y-87972000D01*
X106680000Y-87972000D01*
X106680000Y-87882000D01*
X105154000Y-87882000D01*
X105154000Y-88837514D01*
X100251500Y-88837514D01*
X100251500Y-88473305D01*
X100271502Y-88405184D01*
X100288405Y-88384210D01*
X101804615Y-86868000D01*
X103238625Y-86868000D01*
X104140000Y-86868000D01*
X105154000Y-86868000D01*
X106680000Y-86868000D01*
X107694000Y-86868000D01*
X109220000Y-86868000D01*
X110234000Y-86868000D01*
X111760000Y-86868000D01*
X112774000Y-86868000D01*
X114300000Y-86868000D01*
X115314000Y-86868000D01*
X116334000Y-86868000D01*
X116334000Y-85342000D01*
X115314000Y-85342000D01*
X115314000Y-86868000D01*
X114300000Y-86868000D01*
X114300000Y-85342000D01*
X112774000Y-85342000D01*
X112774000Y-86868000D01*
X111760000Y-86868000D01*
X111760000Y-85342000D01*
X110234000Y-85342000D01*
X110234000Y-86868000D01*
X109220000Y-86868000D01*
X109220000Y-85342000D01*
X107694000Y-85342000D01*
X107694000Y-86868000D01*
X106680000Y-86868000D01*
X106680000Y-85342000D01*
X105154000Y-85342000D01*
X105154000Y-86868000D01*
X104140000Y-86868000D01*
X104140000Y-85342000D01*
X104061674Y-85342000D01*
X104061448Y-85428163D01*
X104061199Y-85435745D01*
X104059298Y-85465957D01*
X104058594Y-85473509D01*
X104047340Y-85564509D01*
X104046183Y-85572005D01*
X104039212Y-85609620D01*
X104034213Y-85647589D01*
X104032997Y-85655077D01*
X104015578Y-85745108D01*
X104013914Y-85752508D01*
X104006385Y-85781832D01*
X104004278Y-85789118D01*
X103997586Y-85809901D01*
X103992321Y-85831095D01*
X103990272Y-85838397D01*
X103981218Y-85867289D01*
X103978732Y-85874458D01*
X103946087Y-85960170D01*
X103943174Y-85967175D01*
X103927435Y-86002033D01*
X103913530Y-86037697D01*
X103910563Y-86044680D01*
X103872170Y-86127960D01*
X103868789Y-86134748D01*
X103854482Y-86161431D01*
X103850696Y-86168009D01*
X103839236Y-86186600D01*
X103829066Y-86205930D01*
X103825332Y-86212535D01*
X103809648Y-86238432D01*
X103805525Y-86244799D01*
X103753381Y-86320244D01*
X103748883Y-86326351D01*
X103725281Y-86356452D01*
X103703278Y-86387759D01*
X103698733Y-86393829D01*
X103641590Y-86465542D01*
X103636687Y-86471329D01*
X103616430Y-86493828D01*
X103611185Y-86499311D01*
X103545815Y-86563664D01*
X103540251Y-86568822D01*
X103521072Y-86585553D01*
X103238625Y-86868000D01*
X101804615Y-86868000D01*
X102825459Y-85847156D01*
X102831724Y-85841302D01*
X102867945Y-85809704D01*
X102873670Y-85804710D01*
X102909066Y-85754345D01*
X102912980Y-85749077D01*
X102946248Y-85706649D01*
X102950935Y-85700672D01*
X102954061Y-85693748D01*
X102956671Y-85689439D01*
X102962042Y-85680024D01*
X102964427Y-85675576D01*
X102968795Y-85669361D01*
X102991144Y-85612039D01*
X102993698Y-85605962D01*
X103015887Y-85556820D01*
X103019014Y-85549895D01*
X103020400Y-85542418D01*
X103021910Y-85537598D01*
X103024878Y-85527182D01*
X103026131Y-85522302D01*
X103028889Y-85515228D01*
X103036921Y-85454223D01*
X103037953Y-85447710D01*
X103047777Y-85394701D01*
X103047777Y-85394699D01*
X103049161Y-85387232D01*
X103045709Y-85327357D01*
X103045500Y-85320105D01*
X103045500Y-84328000D01*
X105154000Y-84328000D01*
X106076913Y-84328000D01*
X110234000Y-84328000D01*
X111760000Y-84328000D01*
X112774000Y-84328000D01*
X113696913Y-84328000D01*
X113669694Y-84300781D01*
X113665892Y-84296811D01*
X113620984Y-84247803D01*
X113617360Y-84243670D01*
X113603242Y-84226845D01*
X113599801Y-84222558D01*
X113559329Y-84169815D01*
X113556078Y-84165380D01*
X113434790Y-83992162D01*
X113431736Y-83987593D01*
X113396032Y-83931550D01*
X113393182Y-83926852D01*
X113382200Y-83907832D01*
X113379554Y-83903011D01*
X113348847Y-83844025D01*
X113346415Y-83839093D01*
X113257048Y-83647445D01*
X113254835Y-83642415D01*
X113229395Y-83581000D01*
X113227402Y-83575875D01*
X113219890Y-83555236D01*
X113218122Y-83550028D01*
X113198133Y-83486628D01*
X113196595Y-83481352D01*
X113141865Y-83277097D01*
X113140559Y-83271758D01*
X113126172Y-83206865D01*
X113125099Y-83201474D01*
X113121285Y-83179845D01*
X113120449Y-83174411D01*
X113111771Y-83108497D01*
X113111172Y-83103032D01*
X113092742Y-82892377D01*
X113092383Y-82886892D01*
X113089483Y-82820479D01*
X113089363Y-82814982D01*
X113089363Y-82804000D01*
X114102884Y-82804000D01*
X114121314Y-83014655D01*
X114122738Y-83019968D01*
X114122738Y-83019970D01*
X114172817Y-83206865D01*
X114176044Y-83218910D01*
X114265411Y-83410558D01*
X114386699Y-83583776D01*
X114536224Y-83733301D01*
X114709442Y-83854589D01*
X114714420Y-83856910D01*
X114714423Y-83856912D01*
X114864410Y-83926852D01*
X114901090Y-83943956D01*
X114906398Y-83945378D01*
X114906400Y-83945379D01*
X115100030Y-83997262D01*
X115100032Y-83997262D01*
X115105345Y-83998686D01*
X115316000Y-84017116D01*
X115526655Y-83998686D01*
X115531968Y-83997262D01*
X115531970Y-83997262D01*
X115725600Y-83945379D01*
X115725602Y-83945378D01*
X115730910Y-83943956D01*
X115767590Y-83926852D01*
X115917577Y-83856912D01*
X115917580Y-83856910D01*
X115922558Y-83854589D01*
X116095776Y-83733301D01*
X116245301Y-83583776D01*
X116366589Y-83410558D01*
X116455956Y-83218910D01*
X116459184Y-83206865D01*
X116509262Y-83019970D01*
X116509262Y-83019968D01*
X116510686Y-83014655D01*
X116529116Y-82804000D01*
X116510686Y-82593345D01*
X116455956Y-82389090D01*
X116366589Y-82197442D01*
X116245301Y-82024224D01*
X116095776Y-81874699D01*
X115922558Y-81753411D01*
X115917580Y-81751090D01*
X115917577Y-81751088D01*
X115735892Y-81666367D01*
X115735891Y-81666366D01*
X115730910Y-81664044D01*
X115725602Y-81662622D01*
X115725600Y-81662621D01*
X115531970Y-81610738D01*
X115531968Y-81610738D01*
X115526655Y-81609314D01*
X115316000Y-81590884D01*
X115105345Y-81609314D01*
X115100032Y-81610738D01*
X115100030Y-81610738D01*
X114906400Y-81662621D01*
X114906398Y-81662622D01*
X114901090Y-81664044D01*
X114896109Y-81666366D01*
X114896108Y-81666367D01*
X114714423Y-81751088D01*
X114714420Y-81751090D01*
X114709442Y-81753411D01*
X114536224Y-81874699D01*
X114386699Y-82024224D01*
X114265411Y-82197442D01*
X114176044Y-82389090D01*
X114121314Y-82593345D01*
X114102884Y-82804000D01*
X113089363Y-82804000D01*
X113089363Y-82802000D01*
X112774000Y-82802000D01*
X112774000Y-84328000D01*
X111760000Y-84328000D01*
X111760000Y-82802000D01*
X110234000Y-82802000D01*
X110234000Y-84328000D01*
X106076913Y-84328000D01*
X106049694Y-84300781D01*
X106045892Y-84296811D01*
X106000984Y-84247803D01*
X105997360Y-84243670D01*
X105983242Y-84226845D01*
X105979801Y-84222558D01*
X105939329Y-84169815D01*
X105936078Y-84165380D01*
X105814790Y-83992162D01*
X105811736Y-83987593D01*
X105776032Y-83931550D01*
X105773182Y-83926852D01*
X105762200Y-83907832D01*
X105759554Y-83903011D01*
X105728847Y-83844025D01*
X105726415Y-83839093D01*
X105637048Y-83647445D01*
X105634835Y-83642415D01*
X105609395Y-83581000D01*
X105607402Y-83575875D01*
X105599890Y-83555236D01*
X105598122Y-83550028D01*
X105578133Y-83486628D01*
X105576595Y-83481352D01*
X105521865Y-83277097D01*
X105520559Y-83271758D01*
X105506172Y-83206865D01*
X105505099Y-83201474D01*
X105501285Y-83179845D01*
X105500449Y-83174411D01*
X105491771Y-83108497D01*
X105491172Y-83103032D01*
X105472742Y-82892377D01*
X105472383Y-82886892D01*
X105469483Y-82820479D01*
X105469363Y-82814982D01*
X105469363Y-82804000D01*
X106482884Y-82804000D01*
X106501314Y-83014655D01*
X106502738Y-83019968D01*
X106502738Y-83019970D01*
X106552817Y-83206865D01*
X106556044Y-83218910D01*
X106645411Y-83410558D01*
X106766699Y-83583776D01*
X106916224Y-83733301D01*
X107089442Y-83854589D01*
X107094420Y-83856910D01*
X107094423Y-83856912D01*
X107244410Y-83926852D01*
X107281090Y-83943956D01*
X107286398Y-83945378D01*
X107286400Y-83945379D01*
X107480030Y-83997262D01*
X107480032Y-83997262D01*
X107485345Y-83998686D01*
X107696000Y-84017116D01*
X107906655Y-83998686D01*
X107911968Y-83997262D01*
X107911970Y-83997262D01*
X108105600Y-83945379D01*
X108105602Y-83945378D01*
X108110910Y-83943956D01*
X108147590Y-83926852D01*
X108297577Y-83856912D01*
X108297580Y-83856910D01*
X108302558Y-83854589D01*
X108475776Y-83733301D01*
X108625301Y-83583776D01*
X108746589Y-83410558D01*
X108835956Y-83218910D01*
X108839184Y-83206865D01*
X108889262Y-83019970D01*
X108889262Y-83019968D01*
X108890686Y-83014655D01*
X108909116Y-82804000D01*
X108890686Y-82593345D01*
X108835956Y-82389090D01*
X108746589Y-82197442D01*
X108625301Y-82024224D01*
X108475776Y-81874699D01*
X108351956Y-81788000D01*
X110234000Y-81788000D01*
X111760000Y-81788000D01*
X112774000Y-81788000D01*
X113337512Y-81788000D01*
X113346415Y-81768907D01*
X113348847Y-81763975D01*
X113379554Y-81704989D01*
X113382200Y-81700168D01*
X113393182Y-81681148D01*
X113396032Y-81676450D01*
X113431736Y-81620407D01*
X113434790Y-81615838D01*
X113556078Y-81442620D01*
X113559329Y-81438185D01*
X113599801Y-81385442D01*
X113603242Y-81381155D01*
X113617360Y-81364330D01*
X113620984Y-81360197D01*
X113665892Y-81311189D01*
X113669694Y-81307219D01*
X113819219Y-81157694D01*
X113823189Y-81153892D01*
X113872197Y-81108984D01*
X113876330Y-81105360D01*
X113893155Y-81091242D01*
X113897442Y-81087801D01*
X113950185Y-81047329D01*
X113954620Y-81044078D01*
X114127838Y-80922790D01*
X114132407Y-80919736D01*
X114188450Y-80884032D01*
X114193148Y-80881182D01*
X114212168Y-80870200D01*
X114216989Y-80867554D01*
X114275975Y-80836847D01*
X114280907Y-80834415D01*
X114300000Y-80825512D01*
X114300000Y-80262000D01*
X112774000Y-80262000D01*
X112774000Y-81788000D01*
X111760000Y-81788000D01*
X111760000Y-80262000D01*
X110234000Y-80262000D01*
X110234000Y-81788000D01*
X108351956Y-81788000D01*
X108302558Y-81753411D01*
X108297580Y-81751090D01*
X108297577Y-81751088D01*
X108115892Y-81666367D01*
X108115891Y-81666366D01*
X108110910Y-81664044D01*
X108105602Y-81662622D01*
X108105600Y-81662621D01*
X107911970Y-81610738D01*
X107911968Y-81610738D01*
X107906655Y-81609314D01*
X107696000Y-81590884D01*
X107485345Y-81609314D01*
X107480032Y-81610738D01*
X107480030Y-81610738D01*
X107286400Y-81662621D01*
X107286398Y-81662622D01*
X107281090Y-81664044D01*
X107276109Y-81666366D01*
X107276108Y-81666367D01*
X107094423Y-81751088D01*
X107094420Y-81751090D01*
X107089442Y-81753411D01*
X106916224Y-81874699D01*
X106766699Y-82024224D01*
X106645411Y-82197442D01*
X106556044Y-82389090D01*
X106501314Y-82593345D01*
X106482884Y-82804000D01*
X105469363Y-82804000D01*
X105469363Y-82802000D01*
X105154000Y-82802000D01*
X105154000Y-84328000D01*
X103045500Y-84328000D01*
X103045500Y-81788000D01*
X105154000Y-81788000D01*
X105717512Y-81788000D01*
X105726415Y-81768907D01*
X105728847Y-81763975D01*
X105759554Y-81704989D01*
X105762200Y-81700168D01*
X105773182Y-81681148D01*
X105776032Y-81676450D01*
X105811736Y-81620407D01*
X105814790Y-81615838D01*
X105936078Y-81442620D01*
X105939329Y-81438185D01*
X105979801Y-81385442D01*
X105983242Y-81381155D01*
X105997360Y-81364330D01*
X106000984Y-81360197D01*
X106045892Y-81311189D01*
X106049694Y-81307219D01*
X106199219Y-81157694D01*
X106203189Y-81153892D01*
X106252197Y-81108984D01*
X106256330Y-81105360D01*
X106273155Y-81091242D01*
X106277442Y-81087801D01*
X106330185Y-81047329D01*
X106334620Y-81044078D01*
X106507838Y-80922790D01*
X106512407Y-80919736D01*
X106568450Y-80884032D01*
X106573148Y-80881182D01*
X106592168Y-80870200D01*
X106596989Y-80867554D01*
X106655975Y-80836847D01*
X106660907Y-80834415D01*
X106680000Y-80825512D01*
X106680000Y-80577363D01*
X107694000Y-80577363D01*
X107706982Y-80577363D01*
X107712479Y-80577483D01*
X107778892Y-80580383D01*
X107784377Y-80580742D01*
X107995032Y-80599172D01*
X108000497Y-80599771D01*
X108066411Y-80608449D01*
X108071845Y-80609285D01*
X108093474Y-80613099D01*
X108098865Y-80614172D01*
X108163758Y-80628559D01*
X108169097Y-80629865D01*
X108373352Y-80684595D01*
X108378628Y-80686133D01*
X108442028Y-80706122D01*
X108447236Y-80707890D01*
X108467875Y-80715402D01*
X108473000Y-80717395D01*
X108534415Y-80742835D01*
X108539445Y-80745048D01*
X108731093Y-80834415D01*
X108736025Y-80836847D01*
X108795011Y-80867554D01*
X108799832Y-80870200D01*
X108818852Y-80881182D01*
X108823550Y-80884032D01*
X108879593Y-80919736D01*
X108884162Y-80922790D01*
X109057380Y-81044078D01*
X109061815Y-81047329D01*
X109114558Y-81087801D01*
X109118845Y-81091242D01*
X109135670Y-81105360D01*
X109139803Y-81108984D01*
X109188811Y-81153892D01*
X109192781Y-81157694D01*
X109220000Y-81184913D01*
X109220000Y-80262000D01*
X107694000Y-80262000D01*
X107694000Y-80577363D01*
X106680000Y-80577363D01*
X106680000Y-80262000D01*
X105154000Y-80262000D01*
X105154000Y-81788000D01*
X103045500Y-81788000D01*
X103045500Y-81461500D01*
X103065502Y-81393379D01*
X103119158Y-81346886D01*
X103171500Y-81335500D01*
X103362634Y-81335500D01*
X103424816Y-81328745D01*
X103561205Y-81277615D01*
X103677761Y-81190261D01*
X103765115Y-81073705D01*
X103816245Y-80937316D01*
X103823000Y-80875134D01*
X103823000Y-79248000D01*
X105154000Y-79248000D01*
X106680000Y-79248000D01*
X115314000Y-79248000D01*
X116334000Y-79248000D01*
X116334000Y-77722000D01*
X116320117Y-77722000D01*
X116319339Y-77750751D01*
X116319201Y-77754157D01*
X116318464Y-77767765D01*
X116318233Y-77771167D01*
X116314891Y-77812252D01*
X116314569Y-77815644D01*
X116307814Y-77877826D01*
X116306717Y-77885636D01*
X116290507Y-77979609D01*
X116288924Y-77987337D01*
X116281643Y-78017959D01*
X116279578Y-78025574D01*
X116251755Y-78116790D01*
X116249219Y-78124259D01*
X116198089Y-78260648D01*
X116194647Y-78268920D01*
X116149517Y-78367377D01*
X116145497Y-78375385D01*
X116128341Y-78406720D01*
X116123762Y-78414420D01*
X116065140Y-78505469D01*
X116060025Y-78512824D01*
X115972671Y-78629380D01*
X115967046Y-78636354D01*
X115896103Y-78718180D01*
X115889997Y-78724736D01*
X115864736Y-78749997D01*
X115858180Y-78756103D01*
X115776354Y-78827046D01*
X115769380Y-78832671D01*
X115652824Y-78920025D01*
X115645469Y-78925140D01*
X115554420Y-78983762D01*
X115546720Y-78988341D01*
X115515385Y-79005497D01*
X115507377Y-79009517D01*
X115408920Y-79054647D01*
X115400648Y-79058089D01*
X115314000Y-79090572D01*
X115314000Y-79248000D01*
X106680000Y-79248000D01*
X106680000Y-77902364D01*
X106677123Y-77897669D01*
X106674514Y-77893209D01*
X106644074Y-77838631D01*
X106641650Y-77834067D01*
X106632341Y-77815638D01*
X106630106Y-77810979D01*
X106604245Y-77754100D01*
X106602204Y-77749354D01*
X106591097Y-77722000D01*
X105154000Y-77722000D01*
X105154000Y-79248000D01*
X103823000Y-79248000D01*
X103823000Y-78778866D01*
X103816245Y-78716684D01*
X103765115Y-78580295D01*
X103677761Y-78463739D01*
X103561205Y-78376385D01*
X103424816Y-78325255D01*
X103362634Y-78318500D01*
X101361366Y-78318500D01*
X101299184Y-78325255D01*
X101162795Y-78376385D01*
X101046239Y-78463739D01*
X100958885Y-78580295D01*
X100955734Y-78588701D01*
X100951242Y-78600683D01*
X100908599Y-78657447D01*
X100842038Y-78682146D01*
X100772689Y-78666938D01*
X100755168Y-78655334D01*
X100637056Y-78562055D01*
X100628469Y-78556350D01*
X100427278Y-78445286D01*
X100417866Y-78441056D01*
X100201232Y-78364341D01*
X100191261Y-78361707D01*
X100093837Y-78344353D01*
X100080540Y-78345813D01*
X100076000Y-78360370D01*
X100076000Y-81295096D01*
X100079918Y-81308440D01*
X100094194Y-81310427D01*
X100156515Y-81300890D01*
X100166543Y-81298501D01*
X100384988Y-81227102D01*
X100394497Y-81223105D01*
X100598344Y-81116989D01*
X100607061Y-81111500D01*
X100758099Y-80998098D01*
X100824584Y-80973193D01*
X100893980Y-80988186D01*
X100944253Y-81038316D01*
X100951732Y-81054625D01*
X100958885Y-81073705D01*
X101046239Y-81190261D01*
X101162795Y-81277615D01*
X101299184Y-81328745D01*
X101361366Y-81335500D01*
X101552500Y-81335500D01*
X101620621Y-81355502D01*
X101667114Y-81409158D01*
X101678500Y-81461500D01*
X101678500Y-85008695D01*
X101658498Y-85076816D01*
X101641595Y-85097790D01*
X99104541Y-87634844D01*
X99098276Y-87640698D01*
X99056330Y-87677290D01*
X99020934Y-87727655D01*
X99017022Y-87732920D01*
X98979065Y-87781328D01*
X98975939Y-87788252D01*
X98973329Y-87792561D01*
X98967958Y-87801976D01*
X98965573Y-87806424D01*
X98961205Y-87812639D01*
X98958446Y-87819716D01*
X98938858Y-87869957D01*
X98936306Y-87876029D01*
X98910986Y-87932105D01*
X98909600Y-87939582D01*
X98908090Y-87944402D01*
X98905118Y-87954835D01*
X98903870Y-87959696D01*
X98901111Y-87966772D01*
X98895036Y-88012922D01*
X98893082Y-88027762D01*
X98892050Y-88034278D01*
X98890381Y-88043281D01*
X98880839Y-88094767D01*
X98881276Y-88102347D01*
X98881276Y-88102348D01*
X98884291Y-88154642D01*
X98884500Y-88161894D01*
X98884500Y-95729955D01*
X98884208Y-95738523D01*
X98880424Y-95794034D01*
X98881729Y-95801511D01*
X98881729Y-95801514D01*
X98891002Y-95854647D01*
X98891965Y-95861171D01*
X98898442Y-95914691D01*
X98899355Y-95922235D01*
X98902042Y-95929345D01*
X98903246Y-95934248D01*
X98906114Y-95944734D01*
X98907561Y-95949526D01*
X98908866Y-95957004D01*
X98911918Y-95963956D01*
X98911918Y-95963957D01*
X98933595Y-96013341D01*
X98936086Y-96019446D01*
X98955145Y-96069882D01*
X98957831Y-96076989D01*
X98962131Y-96083246D01*
X98964467Y-96087714D01*
X98969725Y-96097160D01*
X98972307Y-96101526D01*
X98975362Y-96108485D01*
X99012823Y-96157304D01*
X99016686Y-96162623D01*
X99027658Y-96178587D01*
X99051534Y-96213326D01*
X99057203Y-96218377D01*
X99096323Y-96253232D01*
X99101598Y-96258213D01*
X101641595Y-98798210D01*
X101675621Y-98860522D01*
X101678500Y-98887305D01*
X101678500Y-101454657D01*
X101658498Y-101522778D01*
X101610680Y-101566420D01*
X101585397Y-101579581D01*
X101585389Y-101579586D01*
X101580800Y-101581975D01*
X101558209Y-101598937D01*
X101412514Y-101708328D01*
X101388680Y-101726223D01*
X101365643Y-101750330D01*
X101236769Y-101885189D01*
X101222699Y-101899912D01*
X101197465Y-101936903D01*
X101142556Y-101981904D01*
X101072032Y-101990075D01*
X101008284Y-101958821D01*
X100987589Y-101934340D01*
X100986311Y-101932365D01*
X100983502Y-101928023D01*
X100821814Y-101750330D01*
X100744983Y-101689653D01*
X100637330Y-101604633D01*
X100637325Y-101604630D01*
X100633276Y-101601432D01*
X100628760Y-101598939D01*
X100628757Y-101598937D01*
X100427474Y-101487823D01*
X100427470Y-101487821D01*
X100422950Y-101485326D01*
X100418081Y-101483602D01*
X100418077Y-101483600D01*
X100201360Y-101406856D01*
X100201356Y-101406855D01*
X100196485Y-101405130D01*
X100191392Y-101404223D01*
X100191389Y-101404222D01*
X99965052Y-101363905D01*
X99965046Y-101363904D01*
X99959963Y-101362999D01*
X99867474Y-101361869D01*
X99724907Y-101360127D01*
X99724905Y-101360127D01*
X99719737Y-101360064D01*
X99482256Y-101396404D01*
X99383366Y-101428726D01*
X99258817Y-101469434D01*
X99258811Y-101469437D01*
X99253899Y-101471042D01*
X99249313Y-101473429D01*
X99249309Y-101473431D01*
X99117331Y-101542135D01*
X99040800Y-101581975D01*
X98885717Y-101698415D01*
X98819235Y-101723320D01*
X98749839Y-101708328D01*
X98699565Y-101658198D01*
X98692085Y-101641885D01*
X98688269Y-101631707D01*
X98688267Y-101631703D01*
X98685115Y-101623295D01*
X98597761Y-101506739D01*
X98481205Y-101419385D01*
X98344816Y-101368255D01*
X98282634Y-101361500D01*
X96281366Y-101361500D01*
X96219184Y-101368255D01*
X96082795Y-101419385D01*
X95966239Y-101506739D01*
X95878885Y-101623295D01*
X95827755Y-101759684D01*
X95821000Y-101821866D01*
X95821000Y-103918134D01*
X95827755Y-103980316D01*
X95878885Y-104116705D01*
X95966239Y-104233261D01*
X96082795Y-104320615D01*
X96219184Y-104371745D01*
X96281366Y-104378500D01*
X97334406Y-104378500D01*
X97402527Y-104398502D01*
X97423501Y-104415405D01*
X99064343Y-106056247D01*
X99071887Y-106064537D01*
X99076000Y-106071018D01*
X99081777Y-106076443D01*
X99125667Y-106117658D01*
X99128509Y-106120413D01*
X99148230Y-106140134D01*
X99151425Y-106142612D01*
X99160447Y-106150318D01*
X99192679Y-106180586D01*
X99199628Y-106184406D01*
X99210432Y-106190346D01*
X99226956Y-106201199D01*
X99242959Y-106213613D01*
X99283543Y-106231176D01*
X99294173Y-106236383D01*
X99332940Y-106257695D01*
X99340617Y-106259666D01*
X99340622Y-106259668D01*
X99352558Y-106262732D01*
X99371266Y-106269137D01*
X99389855Y-106277181D01*
X99397683Y-106278421D01*
X99397690Y-106278423D01*
X99433524Y-106284099D01*
X99445144Y-106286505D01*
X99480180Y-106295500D01*
X99487970Y-106297500D01*
X99508224Y-106297500D01*
X99527934Y-106299051D01*
X99547943Y-106302220D01*
X99555835Y-106301474D01*
X99591961Y-106298059D01*
X99603819Y-106297500D01*
X101536809Y-106297500D01*
X101604930Y-106317502D01*
X101623061Y-106331649D01*
X101665666Y-106371657D01*
X101668509Y-106374413D01*
X101688230Y-106394134D01*
X101691425Y-106396612D01*
X101700447Y-106404318D01*
X101732679Y-106434586D01*
X101739628Y-106438406D01*
X101750432Y-106444346D01*
X101766956Y-106455199D01*
X101782959Y-106467613D01*
X101823543Y-106485176D01*
X101834173Y-106490383D01*
X101872940Y-106511695D01*
X101880617Y-106513666D01*
X101880622Y-106513668D01*
X101892558Y-106516732D01*
X101911266Y-106523137D01*
X101929855Y-106531181D01*
X101937683Y-106532421D01*
X101937690Y-106532423D01*
X101973524Y-106538099D01*
X101985144Y-106540505D01*
X102016959Y-106548673D01*
X102027970Y-106551500D01*
X102048224Y-106551500D01*
X102067934Y-106553051D01*
X102087943Y-106556220D01*
X102095835Y-106555474D01*
X102114580Y-106553702D01*
X102131962Y-106552059D01*
X102143819Y-106551500D01*
X108125233Y-106551500D01*
X108136416Y-106552027D01*
X108143909Y-106553702D01*
X108151835Y-106553453D01*
X108151836Y-106553453D01*
X108211986Y-106551562D01*
X108215945Y-106551500D01*
X108243856Y-106551500D01*
X108247791Y-106551003D01*
X108247856Y-106550995D01*
X108259693Y-106550062D01*
X108291951Y-106549048D01*
X108295970Y-106548922D01*
X108303889Y-106548673D01*
X108323343Y-106543021D01*
X108342700Y-106539013D01*
X108354930Y-106537468D01*
X108354931Y-106537468D01*
X108362797Y-106536474D01*
X108370168Y-106533555D01*
X108370170Y-106533555D01*
X108403912Y-106520196D01*
X108415142Y-106516351D01*
X108449983Y-106506229D01*
X108449984Y-106506229D01*
X108457593Y-106504018D01*
X108464412Y-106499985D01*
X108464417Y-106499983D01*
X108475028Y-106493707D01*
X108492776Y-106485012D01*
X108511617Y-106477552D01*
X108531987Y-106462753D01*
X108547387Y-106451564D01*
X108557307Y-106445048D01*
X108588535Y-106426580D01*
X108588538Y-106426578D01*
X108595362Y-106422542D01*
X108609683Y-106408221D01*
X108624717Y-106395380D01*
X108626432Y-106394134D01*
X108641107Y-106383472D01*
X108669298Y-106349395D01*
X108677288Y-106340616D01*
X109699499Y-105318405D01*
X109761811Y-105284379D01*
X109788594Y-105281500D01*
X115219233Y-105281500D01*
X115230416Y-105282027D01*
X115237909Y-105283702D01*
X115245835Y-105283453D01*
X115245836Y-105283453D01*
X115305986Y-105281562D01*
X115309945Y-105281500D01*
X115337856Y-105281500D01*
X115341791Y-105281003D01*
X115341856Y-105280995D01*
X115353693Y-105280062D01*
X115385951Y-105279048D01*
X115389970Y-105278922D01*
X115397889Y-105278673D01*
X115417343Y-105273021D01*
X115436700Y-105269013D01*
X115448930Y-105267468D01*
X115448931Y-105267468D01*
X115456797Y-105266474D01*
X115464168Y-105263555D01*
X115464170Y-105263555D01*
X115497912Y-105250196D01*
X115509142Y-105246351D01*
X115543983Y-105236229D01*
X115543984Y-105236229D01*
X115551593Y-105234018D01*
X115558412Y-105229985D01*
X115558417Y-105229983D01*
X115569028Y-105223707D01*
X115586776Y-105215012D01*
X115605617Y-105207552D01*
X115641387Y-105181564D01*
X115651307Y-105175048D01*
X115682535Y-105156580D01*
X115682538Y-105156578D01*
X115689362Y-105152542D01*
X115703683Y-105138221D01*
X115718717Y-105125380D01*
X115728694Y-105118131D01*
X115735107Y-105113472D01*
X115763298Y-105079395D01*
X115771288Y-105070616D01*
X116236461Y-104605443D01*
X116298773Y-104571417D01*
X116347437Y-104570452D01*
X116352029Y-104571262D01*
X116357345Y-104572686D01*
X116568000Y-104591116D01*
X116778655Y-104572686D01*
X116783968Y-104571262D01*
X116783970Y-104571262D01*
X116977600Y-104519379D01*
X116977602Y-104519378D01*
X116982910Y-104517956D01*
X117168751Y-104431297D01*
X117238941Y-104420636D01*
X117303754Y-104449616D01*
X117342611Y-104509036D01*
X117348000Y-104545492D01*
X117348000Y-108912794D01*
X117346254Y-108933698D01*
X117342929Y-108953462D01*
X117342776Y-108966001D01*
X117343466Y-108970818D01*
X117344801Y-108980142D01*
X117345753Y-108989015D01*
X117349514Y-109041599D01*
X117359659Y-109183443D01*
X117360617Y-109187846D01*
X117360617Y-109187847D01*
X117398757Y-109363170D01*
X117405998Y-109396458D01*
X117407571Y-109400675D01*
X117407572Y-109400679D01*
X117445001Y-109501030D01*
X117482180Y-109600710D01*
X117586655Y-109792041D01*
X117625024Y-109843296D01*
X117714598Y-109962954D01*
X117714604Y-109962961D01*
X117717296Y-109966557D01*
X117871443Y-110120704D01*
X117875039Y-110123396D01*
X117875046Y-110123402D01*
X117973261Y-110196924D01*
X118045959Y-110251345D01*
X118237290Y-110355820D01*
X118257318Y-110363290D01*
X118437321Y-110430428D01*
X118437325Y-110430429D01*
X118441542Y-110432002D01*
X118445945Y-110432960D01*
X118445949Y-110432961D01*
X118642490Y-110475716D01*
X118654557Y-110478341D01*
X118728201Y-110483608D01*
X118832017Y-110491034D01*
X118843926Y-110492458D01*
X118859460Y-110495071D01*
X118865815Y-110495149D01*
X118867140Y-110495165D01*
X118867144Y-110495165D01*
X118871999Y-110495224D01*
X118899587Y-110491273D01*
X118917450Y-110490000D01*
X121870671Y-110490000D01*
X121890056Y-110491500D01*
X121904857Y-110493805D01*
X121904860Y-110493805D01*
X121913729Y-110495186D01*
X121922631Y-110494022D01*
X121922633Y-110494022D01*
X121922691Y-110494014D01*
X121922730Y-110494009D01*
X121953168Y-110493738D01*
X122018935Y-110501148D01*
X122046443Y-110507427D01*
X122127011Y-110535619D01*
X122152432Y-110547861D01*
X122224713Y-110593278D01*
X122246772Y-110610870D01*
X122307130Y-110671228D01*
X122324722Y-110693287D01*
X122370139Y-110765568D01*
X122382381Y-110790989D01*
X122410573Y-110871557D01*
X122416851Y-110899062D01*
X122418520Y-110913872D01*
X122406273Y-110983804D01*
X122358161Y-111036013D01*
X122289461Y-111053923D01*
X122221983Y-111031848D01*
X122192486Y-111003547D01*
X122122281Y-110909872D01*
X122109724Y-110897315D01*
X122007649Y-110820814D01*
X121992054Y-110812276D01*
X121871606Y-110767122D01*
X121856351Y-110763495D01*
X121805486Y-110757969D01*
X121798672Y-110757600D01*
X121176115Y-110757600D01*
X121160876Y-110762075D01*
X121159671Y-110763465D01*
X121158000Y-110771148D01*
X121158000Y-112243600D01*
X121137998Y-112311721D01*
X121084342Y-112358214D01*
X121032000Y-112369600D01*
X119564116Y-112369600D01*
X119548877Y-112374075D01*
X119547672Y-112375465D01*
X119546001Y-112383148D01*
X119546001Y-113010269D01*
X119546371Y-113017090D01*
X119551895Y-113067952D01*
X119555521Y-113083204D01*
X119600676Y-113203654D01*
X119609214Y-113219249D01*
X119685715Y-113321324D01*
X119698276Y-113333885D01*
X119800351Y-113410386D01*
X119815946Y-113418924D01*
X119924827Y-113459742D01*
X119981591Y-113502384D01*
X120006291Y-113568945D01*
X119991083Y-113638294D01*
X119971691Y-113664775D01*
X119872943Y-113768109D01*
X119844629Y-113797738D01*
X119718743Y-113982280D01*
X119703003Y-114016190D01*
X119649862Y-114130673D01*
X119624688Y-114184905D01*
X119564989Y-114400170D01*
X119541251Y-114622295D01*
X119554110Y-114845315D01*
X119555247Y-114850361D01*
X119555248Y-114850367D01*
X119576275Y-114943669D01*
X119603222Y-115063239D01*
X119641461Y-115157411D01*
X119670589Y-115229144D01*
X119687266Y-115270216D01*
X119689965Y-115274620D01*
X119798613Y-115451918D01*
X119803987Y-115460688D01*
X119950250Y-115629538D01*
X120122126Y-115772232D01*
X120205403Y-115820895D01*
X120243594Y-115843212D01*
X120292318Y-115894851D01*
X120305389Y-115964634D01*
X120278658Y-116030405D01*
X120220611Y-116071284D01*
X120180024Y-116078000D01*
X104900460Y-116078000D01*
X104832339Y-116057998D01*
X104785846Y-116004342D01*
X104775742Y-115934068D01*
X104805236Y-115869488D01*
X104864253Y-115831314D01*
X104886425Y-115824662D01*
X104886427Y-115824661D01*
X104891384Y-115823174D01*
X105091994Y-115724896D01*
X105273860Y-115595173D01*
X105281125Y-115587934D01*
X105417616Y-115451918D01*
X105432096Y-115437489D01*
X105486429Y-115361877D01*
X105559435Y-115260277D01*
X105562453Y-115256077D01*
X105583320Y-115213857D01*
X105659136Y-115060453D01*
X105659137Y-115060451D01*
X105661430Y-115055811D01*
X105726370Y-114842069D01*
X105730855Y-114808000D01*
X117854000Y-114808000D01*
X118536274Y-114808000D01*
X118528932Y-114680664D01*
X118528740Y-114675501D01*
X118527704Y-114613038D01*
X118527725Y-114607872D01*
X118528229Y-114587230D01*
X118528461Y-114582067D01*
X118532548Y-114519695D01*
X118532991Y-114514545D01*
X118556729Y-114292420D01*
X118557384Y-114287290D01*
X118566573Y-114225449D01*
X118567438Y-114220353D01*
X118571308Y-114200070D01*
X118572379Y-114195019D01*
X118586590Y-114134194D01*
X118587869Y-114129188D01*
X118647568Y-113913923D01*
X118649050Y-113908974D01*
X118668196Y-113849518D01*
X118669879Y-113844635D01*
X118677008Y-113825257D01*
X118678892Y-113820443D01*
X118702864Y-113762709D01*
X118704944Y-113757977D01*
X118724787Y-113715229D01*
X118724102Y-113714077D01*
X118706946Y-113682742D01*
X118702926Y-113674735D01*
X118657796Y-113576279D01*
X118654354Y-113568006D01*
X118603274Y-113431751D01*
X118600737Y-113424279D01*
X118572911Y-113333045D01*
X118570847Y-113325431D01*
X118563566Y-113294806D01*
X118561983Y-113287080D01*
X118561107Y-113282000D01*
X117854000Y-113282000D01*
X117854000Y-114808000D01*
X105730855Y-114808000D01*
X105755529Y-114620590D01*
X105757156Y-114554000D01*
X105738852Y-114331361D01*
X105684431Y-114114702D01*
X105639022Y-114010269D01*
X107720001Y-114010269D01*
X107720371Y-114017090D01*
X107725895Y-114067952D01*
X107729521Y-114083204D01*
X107774676Y-114203654D01*
X107783214Y-114219249D01*
X107859715Y-114321324D01*
X107872276Y-114333885D01*
X107974351Y-114410386D01*
X107989946Y-114418924D01*
X108110394Y-114464078D01*
X108125649Y-114467705D01*
X108176514Y-114473231D01*
X108183328Y-114473600D01*
X109455885Y-114473600D01*
X109471124Y-114469125D01*
X109472329Y-114467735D01*
X109474000Y-114460052D01*
X109474000Y-114455484D01*
X109982000Y-114455484D01*
X109986475Y-114470723D01*
X109987865Y-114471928D01*
X109995548Y-114473599D01*
X111272669Y-114473599D01*
X111279490Y-114473229D01*
X111330352Y-114467705D01*
X111345604Y-114464079D01*
X111466054Y-114418924D01*
X111481649Y-114410386D01*
X111583724Y-114333885D01*
X111596285Y-114321324D01*
X111672786Y-114219249D01*
X111681324Y-114203654D01*
X111726478Y-114083206D01*
X111730105Y-114067951D01*
X111735631Y-114017086D01*
X111736000Y-114010272D01*
X111736000Y-112737715D01*
X111731525Y-112722476D01*
X111730135Y-112721271D01*
X111722452Y-112719600D01*
X110000115Y-112719600D01*
X109984876Y-112724075D01*
X109983671Y-112725465D01*
X109982000Y-112733148D01*
X109982000Y-114455484D01*
X109474000Y-114455484D01*
X109474000Y-112737715D01*
X109469525Y-112722476D01*
X109468135Y-112721271D01*
X109460452Y-112719600D01*
X107738116Y-112719600D01*
X107722877Y-112724075D01*
X107721672Y-112725465D01*
X107720001Y-112733148D01*
X107720001Y-114010269D01*
X105639022Y-114010269D01*
X105595354Y-113909840D01*
X105539742Y-113823877D01*
X105476822Y-113726617D01*
X105476820Y-113726614D01*
X105474014Y-113722277D01*
X105323670Y-113557051D01*
X105319619Y-113553852D01*
X105319615Y-113553848D01*
X105152414Y-113421800D01*
X105152410Y-113421798D01*
X105148359Y-113418598D01*
X104952789Y-113310638D01*
X104947920Y-113308914D01*
X104947916Y-113308912D01*
X104747087Y-113237795D01*
X104747083Y-113237794D01*
X104742212Y-113236069D01*
X104737119Y-113235162D01*
X104737116Y-113235161D01*
X104527373Y-113197800D01*
X104527367Y-113197799D01*
X104522284Y-113196894D01*
X104448452Y-113195992D01*
X104304081Y-113194228D01*
X104304079Y-113194228D01*
X104298911Y-113194165D01*
X104078091Y-113227955D01*
X103865756Y-113297357D01*
X103667607Y-113400507D01*
X103663474Y-113403610D01*
X103663471Y-113403612D01*
X103493100Y-113531530D01*
X103488965Y-113534635D01*
X103485393Y-113538373D01*
X103347431Y-113682742D01*
X103334629Y-113696138D01*
X103227201Y-113853621D01*
X103172293Y-113898621D01*
X103101768Y-113906792D01*
X103038021Y-113875538D01*
X103017324Y-113851054D01*
X102936822Y-113726617D01*
X102936820Y-113726614D01*
X102934014Y-113722277D01*
X102783670Y-113557051D01*
X102779619Y-113553852D01*
X102779615Y-113553848D01*
X102612414Y-113421800D01*
X102612410Y-113421798D01*
X102608359Y-113418598D01*
X102412789Y-113310638D01*
X102407920Y-113308914D01*
X102407916Y-113308912D01*
X102207087Y-113237795D01*
X102207083Y-113237794D01*
X102202212Y-113236069D01*
X102197119Y-113235162D01*
X102197116Y-113235161D01*
X101987373Y-113197800D01*
X101987367Y-113197799D01*
X101982284Y-113196894D01*
X101908452Y-113195992D01*
X101764081Y-113194228D01*
X101764079Y-113194228D01*
X101758911Y-113194165D01*
X101538091Y-113227955D01*
X101325756Y-113297357D01*
X101127607Y-113400507D01*
X101123474Y-113403610D01*
X101123471Y-113403612D01*
X100953100Y-113531530D01*
X100948965Y-113534635D01*
X100892537Y-113593684D01*
X100868283Y-113619064D01*
X100806759Y-113654494D01*
X100735846Y-113651037D01*
X100678060Y-113609791D01*
X100659207Y-113576243D01*
X100617767Y-113465703D01*
X100614615Y-113457295D01*
X100527261Y-113340739D01*
X100410705Y-113253385D01*
X100274316Y-113202255D01*
X100212134Y-113195500D01*
X98415866Y-113195500D01*
X98353684Y-113202255D01*
X98217295Y-113253385D01*
X98100739Y-113340739D01*
X98013385Y-113457295D01*
X97962255Y-113593684D01*
X97955500Y-113655866D01*
X97955500Y-115452134D01*
X97962255Y-115514316D01*
X98013385Y-115650705D01*
X98100739Y-115767261D01*
X98190176Y-115834290D01*
X98212704Y-115851174D01*
X98255219Y-115908033D01*
X98260245Y-115978852D01*
X98226185Y-116041145D01*
X98163854Y-116075135D01*
X98137139Y-116078000D01*
X95299329Y-116078000D01*
X95279944Y-116076500D01*
X95265143Y-116074195D01*
X95265140Y-116074195D01*
X95256271Y-116072814D01*
X95247369Y-116073978D01*
X95247367Y-116073978D01*
X95247309Y-116073986D01*
X95247270Y-116073991D01*
X95216832Y-116074262D01*
X95151065Y-116066852D01*
X95123557Y-116060573D01*
X95095567Y-116050779D01*
X95055171Y-116036644D01*
X94995986Y-115993315D01*
X94773796Y-115697061D01*
X94749388Y-115635569D01*
X94748709Y-115629538D01*
X94746478Y-115609742D01*
X94745695Y-115594096D01*
X94745804Y-115585143D01*
X94747186Y-115576269D01*
X94743064Y-115544747D01*
X94742000Y-115528410D01*
X94742000Y-114808000D01*
X95756000Y-114808000D01*
X96520000Y-114808000D01*
X96520000Y-113282000D01*
X95756000Y-113282000D01*
X95756000Y-114808000D01*
X94742000Y-114808000D01*
X94742000Y-112444518D01*
X112794917Y-112444518D01*
X112810682Y-112717920D01*
X112811507Y-112722125D01*
X112811508Y-112722133D01*
X112822127Y-112776257D01*
X112863405Y-112986653D01*
X112864792Y-112990703D01*
X112864793Y-112990708D01*
X112948799Y-113236069D01*
X112952112Y-113245744D01*
X112978642Y-113298494D01*
X113058511Y-113457295D01*
X113075160Y-113490399D01*
X113077586Y-113493928D01*
X113077589Y-113493934D01*
X113227843Y-113712553D01*
X113230274Y-113716090D01*
X113233161Y-113719263D01*
X113233162Y-113719264D01*
X113403798Y-113906792D01*
X113414582Y-113918643D01*
X113624675Y-114094307D01*
X113628316Y-114096591D01*
X113853024Y-114237551D01*
X113853028Y-114237553D01*
X113856664Y-114239834D01*
X113924544Y-114270483D01*
X114102345Y-114350764D01*
X114102349Y-114350766D01*
X114106257Y-114352530D01*
X114110377Y-114353750D01*
X114110376Y-114353750D01*
X114364723Y-114429091D01*
X114364727Y-114429092D01*
X114368836Y-114430309D01*
X114373070Y-114430957D01*
X114373075Y-114430958D01*
X114635298Y-114471083D01*
X114635300Y-114471083D01*
X114639540Y-114471732D01*
X114778912Y-114473922D01*
X114909071Y-114475967D01*
X114909077Y-114475967D01*
X114913362Y-114476034D01*
X115185235Y-114443134D01*
X115450127Y-114373641D01*
X115454087Y-114372001D01*
X115454092Y-114371999D01*
X115658596Y-114287290D01*
X115703136Y-114268841D01*
X115939582Y-114130673D01*
X116155089Y-113961694D01*
X116196809Y-113918643D01*
X116342686Y-113768109D01*
X116345669Y-113765031D01*
X116348202Y-113761583D01*
X116348206Y-113761578D01*
X116505257Y-113547778D01*
X116507795Y-113544323D01*
X116530566Y-113502384D01*
X116636418Y-113307430D01*
X116636419Y-113307428D01*
X116638468Y-113303654D01*
X116735269Y-113047477D01*
X116796407Y-112780533D01*
X116800229Y-112737715D01*
X116820531Y-112510227D01*
X116820531Y-112510225D01*
X116820751Y-112507761D01*
X116821193Y-112465600D01*
X116815572Y-112383148D01*
X116802859Y-112196655D01*
X116802858Y-112196649D01*
X116802567Y-112192378D01*
X116747032Y-111924212D01*
X116655617Y-111666065D01*
X116530013Y-111422712D01*
X116520040Y-111408521D01*
X116439546Y-111293990D01*
X117854000Y-111293990D01*
X117854000Y-112268000D01*
X118542198Y-112268000D01*
X118550136Y-112194161D01*
X118552293Y-112180846D01*
X118563679Y-112128504D01*
X118565289Y-112121953D01*
X118568027Y-112111973D01*
X118567969Y-112111776D01*
X118564148Y-112094211D01*
X118533282Y-111879532D01*
X118532000Y-111861600D01*
X118532000Y-111843485D01*
X119546000Y-111843485D01*
X119550475Y-111858724D01*
X119551865Y-111859929D01*
X119559548Y-111861600D01*
X120631885Y-111861600D01*
X120647124Y-111857125D01*
X120648329Y-111855735D01*
X120650000Y-111848052D01*
X120650000Y-110775716D01*
X120645525Y-110760477D01*
X120644135Y-110759272D01*
X120636452Y-110757601D01*
X120009331Y-110757601D01*
X120002510Y-110757971D01*
X119951648Y-110763495D01*
X119936396Y-110767121D01*
X119815946Y-110812276D01*
X119800351Y-110820814D01*
X119698276Y-110897315D01*
X119685715Y-110909876D01*
X119609214Y-111011951D01*
X119600676Y-111027546D01*
X119555522Y-111147994D01*
X119551895Y-111163249D01*
X119546369Y-111214114D01*
X119546000Y-111220928D01*
X119546000Y-111843485D01*
X118532000Y-111843485D01*
X118532000Y-111484438D01*
X118523628Y-111483538D01*
X118519163Y-111482977D01*
X118501369Y-111480418D01*
X118496933Y-111479699D01*
X118443426Y-111470045D01*
X118439015Y-111469167D01*
X118226000Y-111422828D01*
X118221623Y-111421794D01*
X118168949Y-111408350D01*
X118164616Y-111407162D01*
X118147367Y-111402098D01*
X118143074Y-111400754D01*
X118091432Y-111383568D01*
X118087186Y-111382070D01*
X117882934Y-111305888D01*
X117878747Y-111304241D01*
X117854000Y-111293990D01*
X116439546Y-111293990D01*
X116375008Y-111202162D01*
X116372545Y-111198657D01*
X116213539Y-111027546D01*
X116189046Y-111001188D01*
X116189043Y-111001185D01*
X116186125Y-110998045D01*
X116182810Y-110995331D01*
X116182806Y-110995328D01*
X115977523Y-110827306D01*
X115974205Y-110824590D01*
X115740704Y-110681501D01*
X115736768Y-110679773D01*
X115493873Y-110573149D01*
X115493869Y-110573148D01*
X115489945Y-110571425D01*
X115226566Y-110496400D01*
X115222324Y-110495796D01*
X115222318Y-110495795D01*
X114995366Y-110463495D01*
X114955443Y-110457813D01*
X114811589Y-110457060D01*
X114685877Y-110456402D01*
X114685871Y-110456402D01*
X114681591Y-110456380D01*
X114677347Y-110456939D01*
X114677343Y-110456939D01*
X114569416Y-110471148D01*
X114410078Y-110492125D01*
X114405938Y-110493258D01*
X114405936Y-110493258D01*
X114377095Y-110501148D01*
X114145928Y-110564388D01*
X114141980Y-110566072D01*
X113897982Y-110670146D01*
X113897978Y-110670148D01*
X113894030Y-110671832D01*
X113826996Y-110711951D01*
X113662725Y-110810264D01*
X113662721Y-110810267D01*
X113659043Y-110812468D01*
X113445318Y-110983694D01*
X113378673Y-111053923D01*
X113274927Y-111163249D01*
X113256808Y-111182342D01*
X113097002Y-111404736D01*
X112968857Y-111646761D01*
X112967385Y-111650784D01*
X112967383Y-111650788D01*
X112891874Y-111857125D01*
X112874743Y-111903937D01*
X112816404Y-112171507D01*
X112794917Y-112444518D01*
X94742000Y-112444518D01*
X94742000Y-112268000D01*
X95756000Y-112268000D01*
X96520000Y-112268000D01*
X97534000Y-112268000D01*
X97957145Y-112268000D01*
X97997742Y-112252781D01*
X98005210Y-112250245D01*
X98096426Y-112222422D01*
X98104041Y-112220357D01*
X98134663Y-112213076D01*
X98142391Y-112211493D01*
X98236364Y-112195283D01*
X98244174Y-112194186D01*
X98306356Y-112187431D01*
X98309748Y-112187109D01*
X98350833Y-112183767D01*
X98354235Y-112183536D01*
X98367843Y-112182799D01*
X98371249Y-112182661D01*
X98412458Y-112181546D01*
X98415866Y-112181500D01*
X99060000Y-112181500D01*
X100074000Y-112181500D01*
X100212134Y-112181500D01*
X100215542Y-112181546D01*
X100256751Y-112182661D01*
X100260157Y-112182799D01*
X100273765Y-112183536D01*
X100277167Y-112183767D01*
X100318252Y-112187109D01*
X100321644Y-112187431D01*
X100383826Y-112194186D01*
X100391636Y-112195283D01*
X100485609Y-112211493D01*
X100493337Y-112213076D01*
X100523959Y-112220357D01*
X100531574Y-112222422D01*
X100622790Y-112250245D01*
X100630258Y-112252781D01*
X100670855Y-112268000D01*
X101211231Y-112268000D01*
X102614000Y-112268000D01*
X103751231Y-112268000D01*
X105154000Y-112268000D01*
X106680000Y-112268000D01*
X106680000Y-112193485D01*
X107720000Y-112193485D01*
X107724475Y-112208724D01*
X107725865Y-112209929D01*
X107733548Y-112211600D01*
X109455885Y-112211600D01*
X109471124Y-112207125D01*
X109472329Y-112205735D01*
X109474000Y-112198052D01*
X109474000Y-112193485D01*
X109982000Y-112193485D01*
X109986475Y-112208724D01*
X109987865Y-112209929D01*
X109995548Y-112211600D01*
X111717884Y-112211600D01*
X111733123Y-112207125D01*
X111734328Y-112205735D01*
X111735999Y-112198052D01*
X111735999Y-110920931D01*
X111735629Y-110914110D01*
X111730105Y-110863248D01*
X111726479Y-110847996D01*
X111681324Y-110727546D01*
X111672786Y-110711951D01*
X111596285Y-110609876D01*
X111583724Y-110597315D01*
X111481649Y-110520814D01*
X111466054Y-110512276D01*
X111345606Y-110467122D01*
X111330351Y-110463495D01*
X111279486Y-110457969D01*
X111272672Y-110457600D01*
X110000115Y-110457600D01*
X109984876Y-110462075D01*
X109983671Y-110463465D01*
X109982000Y-110471148D01*
X109982000Y-112193485D01*
X109474000Y-112193485D01*
X109474000Y-110475716D01*
X109469525Y-110460477D01*
X109468135Y-110459272D01*
X109460452Y-110457601D01*
X108183331Y-110457601D01*
X108176510Y-110457971D01*
X108125648Y-110463495D01*
X108110396Y-110467121D01*
X107989946Y-110512276D01*
X107974351Y-110520814D01*
X107872276Y-110597315D01*
X107859715Y-110609876D01*
X107783214Y-110711951D01*
X107774676Y-110727546D01*
X107729522Y-110847994D01*
X107725895Y-110863249D01*
X107720369Y-110914114D01*
X107720000Y-110920928D01*
X107720000Y-112193485D01*
X106680000Y-112193485D01*
X106680000Y-110742000D01*
X105154000Y-110742000D01*
X105154000Y-112268000D01*
X103751231Y-112268000D01*
X103763065Y-112264132D01*
X103768009Y-112262628D01*
X103828159Y-112245664D01*
X103833161Y-112244363D01*
X103853247Y-112239578D01*
X103858298Y-112238484D01*
X103919624Y-112226509D01*
X103924713Y-112225623D01*
X104140000Y-112192680D01*
X104140000Y-110742000D01*
X102614000Y-110742000D01*
X102614000Y-112268000D01*
X101211231Y-112268000D01*
X101223065Y-112264132D01*
X101228009Y-112262628D01*
X101288159Y-112245664D01*
X101293161Y-112244363D01*
X101313247Y-112239578D01*
X101318298Y-112238484D01*
X101379624Y-112226509D01*
X101384713Y-112225623D01*
X101600000Y-112192680D01*
X101600000Y-110742000D01*
X100074000Y-110742000D01*
X100074000Y-112181500D01*
X99060000Y-112181500D01*
X99060000Y-110742000D01*
X97534000Y-110742000D01*
X97534000Y-112268000D01*
X96520000Y-112268000D01*
X96520000Y-110742000D01*
X95756000Y-110742000D01*
X95756000Y-112268000D01*
X94742000Y-112268000D01*
X94742000Y-109728000D01*
X100074000Y-109728000D01*
X101600000Y-109728000D01*
X102614000Y-109728000D01*
X104140000Y-109728000D01*
X105154000Y-109728000D01*
X106680000Y-109728000D01*
X112774000Y-109728000D01*
X113522301Y-109728000D01*
X113748096Y-109631690D01*
X113752069Y-109630075D01*
X113800431Y-109611365D01*
X113804455Y-109609886D01*
X113820642Y-109604249D01*
X113824716Y-109602907D01*
X113874245Y-109587528D01*
X113878361Y-109586327D01*
X114142511Y-109514064D01*
X114146665Y-109513003D01*
X114197116Y-109501030D01*
X114201304Y-109500111D01*
X114218106Y-109496723D01*
X114222325Y-109495947D01*
X114273485Y-109487432D01*
X114277726Y-109486800D01*
X114294249Y-109484625D01*
X115314000Y-109484625D01*
X115369442Y-109492516D01*
X115373678Y-109493193D01*
X115424760Y-109502247D01*
X115428970Y-109503067D01*
X115445735Y-109506631D01*
X115449913Y-109507594D01*
X115500219Y-109520091D01*
X115504360Y-109521195D01*
X115767739Y-109596220D01*
X115771842Y-109597464D01*
X115821201Y-109613359D01*
X115825259Y-109614743D01*
X115841386Y-109620549D01*
X115845396Y-109622070D01*
X115893566Y-109641288D01*
X115897522Y-109642945D01*
X116091282Y-109728000D01*
X116448253Y-109728000D01*
X116437246Y-109694926D01*
X116435902Y-109690633D01*
X116430838Y-109673384D01*
X116429650Y-109669051D01*
X116416206Y-109616377D01*
X116415172Y-109612000D01*
X116368833Y-109398985D01*
X116367955Y-109394574D01*
X116358301Y-109341067D01*
X116357582Y-109336631D01*
X116355023Y-109318837D01*
X116354462Y-109314372D01*
X116348644Y-109260264D01*
X116348243Y-109255782D01*
X116335325Y-109075163D01*
X116332337Y-109046445D01*
X116331928Y-109041599D01*
X116330664Y-109022199D01*
X116330441Y-109017336D01*
X116328886Y-108958496D01*
X116328851Y-108953630D01*
X116329004Y-108941091D01*
X116329158Y-108936228D01*
X116332147Y-108877455D01*
X116332488Y-108872599D01*
X116334000Y-108855741D01*
X116334000Y-108202000D01*
X115314000Y-108202000D01*
X115314000Y-109484625D01*
X114294249Y-109484625D01*
X114300000Y-109483868D01*
X114300000Y-108202000D01*
X112774000Y-108202000D01*
X112774000Y-109728000D01*
X106680000Y-109728000D01*
X106680000Y-109540310D01*
X107694000Y-109540310D01*
X107761849Y-109514874D01*
X107769321Y-109512337D01*
X107860555Y-109484511D01*
X107868169Y-109482447D01*
X107898794Y-109475166D01*
X107906520Y-109473583D01*
X108000490Y-109457374D01*
X108008303Y-109456277D01*
X108070422Y-109449530D01*
X108073815Y-109449208D01*
X108114877Y-109445869D01*
X108118273Y-109445638D01*
X108131878Y-109444901D01*
X108135284Y-109444763D01*
X108176502Y-109443647D01*
X108179912Y-109443601D01*
X109220000Y-109443601D01*
X109220000Y-109443600D01*
X110234000Y-109443600D01*
X111276089Y-109443600D01*
X111279497Y-109443646D01*
X111320706Y-109444761D01*
X111324112Y-109444899D01*
X111337720Y-109445636D01*
X111341122Y-109445867D01*
X111382206Y-109449209D01*
X111385598Y-109449531D01*
X111447716Y-109456279D01*
X111455526Y-109457376D01*
X111549500Y-109473586D01*
X111557228Y-109475169D01*
X111587850Y-109482450D01*
X111595464Y-109484515D01*
X111686681Y-109512338D01*
X111694151Y-109514874D01*
X111760000Y-109539560D01*
X111760000Y-108202000D01*
X110234000Y-108202000D01*
X110234000Y-109443600D01*
X109220000Y-109443600D01*
X109220000Y-108202000D01*
X107694000Y-108202000D01*
X107694000Y-109540310D01*
X106680000Y-109540310D01*
X106680000Y-108202000D01*
X105154000Y-108202000D01*
X105154000Y-109728000D01*
X104140000Y-109728000D01*
X104140000Y-108202000D01*
X102614000Y-108202000D01*
X102614000Y-109728000D01*
X101600000Y-109728000D01*
X101600000Y-108202000D01*
X100242626Y-108202000D01*
X100236206Y-108222362D01*
X100234438Y-108227569D01*
X100226926Y-108248208D01*
X100224933Y-108253333D01*
X100199494Y-108314746D01*
X100197281Y-108319776D01*
X100100520Y-108527282D01*
X100098089Y-108532212D01*
X100074000Y-108578487D01*
X100074000Y-109728000D01*
X94742000Y-109728000D01*
X94742000Y-108709020D01*
X94762002Y-108640899D01*
X94815658Y-108594406D01*
X94885932Y-108584302D01*
X94921250Y-108594825D01*
X95089947Y-108673490D01*
X95100239Y-108677236D01*
X95310688Y-108733625D01*
X95321481Y-108735528D01*
X95538525Y-108754517D01*
X95549475Y-108754517D01*
X95766519Y-108735528D01*
X95777312Y-108733625D01*
X95987761Y-108677236D01*
X95998053Y-108673490D01*
X96195511Y-108581414D01*
X96205006Y-108575931D01*
X96257048Y-108539491D01*
X96265424Y-108529012D01*
X96258356Y-108515566D01*
X95273885Y-107531095D01*
X95239859Y-107468783D01*
X95241694Y-107443132D01*
X95908408Y-107443132D01*
X95908539Y-107444965D01*
X95912790Y-107451580D01*
X96618287Y-108157077D01*
X96630062Y-108163507D01*
X96642077Y-108154211D01*
X96677934Y-108103002D01*
X96684591Y-108091472D01*
X96735973Y-108042479D01*
X96805687Y-108029042D01*
X96871598Y-108055429D01*
X96902829Y-108091472D01*
X96904153Y-108093765D01*
X96906477Y-108098749D01*
X96909631Y-108103253D01*
X97011130Y-108248208D01*
X97037802Y-108286300D01*
X97199700Y-108448198D01*
X97204208Y-108451355D01*
X97204211Y-108451357D01*
X97282389Y-108506098D01*
X97387251Y-108579523D01*
X97392233Y-108581846D01*
X97392238Y-108581849D01*
X97518873Y-108640899D01*
X97594757Y-108676284D01*
X97600065Y-108677706D01*
X97600067Y-108677707D01*
X97810598Y-108734119D01*
X97810600Y-108734119D01*
X97815913Y-108735543D01*
X98044000Y-108755498D01*
X98272087Y-108735543D01*
X98277400Y-108734119D01*
X98277402Y-108734119D01*
X98487933Y-108677707D01*
X98487935Y-108677706D01*
X98493243Y-108676284D01*
X98569127Y-108640899D01*
X98695762Y-108581849D01*
X98695767Y-108581846D01*
X98700749Y-108579523D01*
X98805611Y-108506098D01*
X98883789Y-108451357D01*
X98883792Y-108451355D01*
X98888300Y-108448198D01*
X99050198Y-108286300D01*
X99076871Y-108248208D01*
X99178366Y-108103257D01*
X99181523Y-108098749D01*
X99183846Y-108093767D01*
X99183849Y-108093762D01*
X99275961Y-107896225D01*
X99275961Y-107896224D01*
X99278284Y-107891243D01*
X99337543Y-107670087D01*
X99357498Y-107442000D01*
X99337543Y-107213913D01*
X99330600Y-107188000D01*
X110234000Y-107188000D01*
X111760000Y-107188000D01*
X112774000Y-107188000D01*
X114300000Y-107188000D01*
X115314000Y-107188000D01*
X116334000Y-107188000D01*
X116334000Y-105933682D01*
X116328833Y-105938237D01*
X116322735Y-105943282D01*
X116297780Y-105962640D01*
X116291376Y-105967293D01*
X116212221Y-106021089D01*
X116205537Y-106025331D01*
X116203515Y-106026527D01*
X116201625Y-106027900D01*
X116195077Y-106032349D01*
X116114265Y-106083632D01*
X116107451Y-106087663D01*
X116079773Y-106102878D01*
X116072721Y-106106470D01*
X116023776Y-106129500D01*
X115975558Y-106154069D01*
X115968395Y-106157439D01*
X115939407Y-106169983D01*
X115932047Y-106172897D01*
X115842018Y-106205309D01*
X115834494Y-106207754D01*
X115832259Y-106208403D01*
X115830070Y-106209270D01*
X115822624Y-106211950D01*
X115731608Y-106241522D01*
X115724006Y-106243731D01*
X115693415Y-106251585D01*
X115685691Y-106253311D01*
X115632547Y-106263448D01*
X115579743Y-106275252D01*
X115571969Y-106276735D01*
X115540776Y-106281676D01*
X115532922Y-106282669D01*
X115437646Y-106291676D01*
X115429743Y-106292173D01*
X115407610Y-106292868D01*
X115393590Y-106293750D01*
X115389637Y-106293936D01*
X115341811Y-106295438D01*
X115337856Y-106295500D01*
X115323913Y-106295500D01*
X115314000Y-106295812D01*
X115314000Y-107188000D01*
X114300000Y-107188000D01*
X114300000Y-106295500D01*
X112774000Y-106295500D01*
X112774000Y-107188000D01*
X111760000Y-107188000D01*
X111760000Y-106295500D01*
X110234000Y-106295500D01*
X110234000Y-107188000D01*
X99330600Y-107188000D01*
X99278284Y-106992757D01*
X99275961Y-106987775D01*
X99183849Y-106790238D01*
X99183846Y-106790233D01*
X99181523Y-106785251D01*
X99050198Y-106597700D01*
X98888300Y-106435802D01*
X98883792Y-106432645D01*
X98883789Y-106432643D01*
X98764898Y-106349395D01*
X98700749Y-106304477D01*
X98695767Y-106302154D01*
X98695762Y-106302151D01*
X98498225Y-106210039D01*
X98498224Y-106210039D01*
X98493243Y-106207716D01*
X98487935Y-106206294D01*
X98487933Y-106206293D01*
X98277402Y-106149881D01*
X98277400Y-106149881D01*
X98272087Y-106148457D01*
X98044000Y-106128502D01*
X97815913Y-106148457D01*
X97810600Y-106149881D01*
X97810598Y-106149881D01*
X97600067Y-106206293D01*
X97600065Y-106206294D01*
X97594757Y-106207716D01*
X97589776Y-106210039D01*
X97589775Y-106210039D01*
X97392238Y-106302151D01*
X97392233Y-106302154D01*
X97387251Y-106304477D01*
X97323102Y-106349395D01*
X97204211Y-106432643D01*
X97204208Y-106432645D01*
X97199700Y-106435802D01*
X97037802Y-106597700D01*
X96906477Y-106785251D01*
X96904153Y-106790235D01*
X96902829Y-106792528D01*
X96851447Y-106841521D01*
X96781733Y-106854957D01*
X96715822Y-106828571D01*
X96684591Y-106792528D01*
X96677934Y-106780998D01*
X96641491Y-106728952D01*
X96631012Y-106720576D01*
X96617566Y-106727644D01*
X95916022Y-107429188D01*
X95908408Y-107443132D01*
X95241694Y-107443132D01*
X95244924Y-107397968D01*
X95273885Y-107352905D01*
X96259077Y-106367713D01*
X96265507Y-106355938D01*
X96256211Y-106343923D01*
X96205006Y-106308069D01*
X96195511Y-106302586D01*
X95998053Y-106210510D01*
X95987761Y-106206764D01*
X95777312Y-106150375D01*
X95766519Y-106148472D01*
X95549475Y-106129483D01*
X95538525Y-106129483D01*
X95321481Y-106148472D01*
X95310688Y-106150375D01*
X95100239Y-106206764D01*
X95089947Y-106210510D01*
X94921250Y-106289175D01*
X94851058Y-106299836D01*
X94786246Y-106270856D01*
X94747389Y-106211436D01*
X94742000Y-106174980D01*
X94742000Y-99568000D01*
X95756000Y-99568000D01*
X96520000Y-99568000D01*
X97534000Y-99568000D01*
X99060000Y-99568000D01*
X99060000Y-98042000D01*
X97534000Y-98042000D01*
X97534000Y-99568000D01*
X96520000Y-99568000D01*
X96520000Y-98042000D01*
X95756000Y-98042000D01*
X95756000Y-99568000D01*
X94742000Y-99568000D01*
X94742000Y-97028000D01*
X95756000Y-97028000D01*
X96520000Y-97028000D01*
X97534000Y-97028000D01*
X98437375Y-97028000D01*
X98402695Y-96993320D01*
X98376985Y-96970413D01*
X98371476Y-96965198D01*
X98306792Y-96900173D01*
X98301606Y-96894636D01*
X98281586Y-96871927D01*
X98276744Y-96866089D01*
X98220356Y-96793785D01*
X98215875Y-96787668D01*
X98194200Y-96756133D01*
X98170900Y-96725766D01*
X98166467Y-96719614D01*
X98115121Y-96643635D01*
X98111065Y-96637225D01*
X98095654Y-96611167D01*
X98091990Y-96604523D01*
X98082024Y-96585088D01*
X98070755Y-96566372D01*
X98067038Y-96559755D01*
X98053012Y-96532925D01*
X98049702Y-96526101D01*
X98012187Y-96442432D01*
X98009294Y-96435422D01*
X97995761Y-96399608D01*
X97980380Y-96364569D01*
X97977542Y-96357536D01*
X97945801Y-96271498D01*
X97943391Y-96264304D01*
X97934641Y-96235322D01*
X97932668Y-96227998D01*
X97927623Y-96206738D01*
X97921151Y-96185895D01*
X97919121Y-96178587D01*
X97911900Y-96149188D01*
X97910313Y-96141770D01*
X97893838Y-96051560D01*
X97892701Y-96044061D01*
X97888106Y-96006094D01*
X97881521Y-95968360D01*
X97880442Y-95960850D01*
X97870141Y-95869719D01*
X97869517Y-95862160D01*
X97867933Y-95831929D01*
X97867764Y-95824347D01*
X97868484Y-95732652D01*
X97868772Y-95725072D01*
X97870500Y-95699723D01*
X97870500Y-95502000D01*
X97534000Y-95502000D01*
X97534000Y-97028000D01*
X96520000Y-97028000D01*
X96520000Y-95502000D01*
X95756000Y-95502000D01*
X95756000Y-97028000D01*
X94742000Y-97028000D01*
X94742000Y-94488000D01*
X95756000Y-94488000D01*
X96520000Y-94488000D01*
X97534000Y-94488000D01*
X97870500Y-94488000D01*
X97870500Y-92962000D01*
X97534000Y-92962000D01*
X97534000Y-94488000D01*
X96520000Y-94488000D01*
X96520000Y-92962000D01*
X95756000Y-92962000D01*
X95756000Y-94488000D01*
X94742000Y-94488000D01*
X94742000Y-91948000D01*
X95756000Y-91948000D01*
X96520000Y-91948000D01*
X97534000Y-91948000D01*
X97870500Y-91948000D01*
X97870500Y-90422000D01*
X97534000Y-90422000D01*
X97534000Y-91948000D01*
X96520000Y-91948000D01*
X96520000Y-90422000D01*
X95756000Y-90422000D01*
X95756000Y-91948000D01*
X94742000Y-91948000D01*
X94742000Y-89408000D01*
X95756000Y-89408000D01*
X96520000Y-89408000D01*
X97534000Y-89408000D01*
X97870500Y-89408000D01*
X97870500Y-88187473D01*
X97868520Y-88153130D01*
X97868311Y-88145547D01*
X97868552Y-88053839D01*
X97868801Y-88046258D01*
X97870702Y-88016044D01*
X97871406Y-88008491D01*
X97882662Y-87917476D01*
X97883819Y-87909979D01*
X97889005Y-87882000D01*
X97534000Y-87882000D01*
X97534000Y-89408000D01*
X96520000Y-89408000D01*
X96520000Y-87882000D01*
X95756000Y-87882000D01*
X95756000Y-89408000D01*
X94742000Y-89408000D01*
X94742000Y-86868000D01*
X95756000Y-86868000D01*
X96520000Y-86868000D01*
X97534000Y-86868000D01*
X98437375Y-86868000D01*
X99060000Y-86245375D01*
X99060000Y-85342000D01*
X97534000Y-85342000D01*
X97534000Y-86868000D01*
X96520000Y-86868000D01*
X96520000Y-85342000D01*
X95756000Y-85342000D01*
X95756000Y-86868000D01*
X94742000Y-86868000D01*
X94742000Y-84328000D01*
X95756000Y-84328000D01*
X96520000Y-84328000D01*
X97534000Y-84328000D01*
X99060000Y-84328000D01*
X100074000Y-84328000D01*
X100664500Y-84328000D01*
X100664500Y-82802000D01*
X100074000Y-82802000D01*
X100074000Y-84328000D01*
X99060000Y-84328000D01*
X99060000Y-82802000D01*
X97534000Y-82802000D01*
X97534000Y-84328000D01*
X96520000Y-84328000D01*
X96520000Y-82802000D01*
X95756000Y-82802000D01*
X95756000Y-84328000D01*
X94742000Y-84328000D01*
X94742000Y-79935402D01*
X95821000Y-79935402D01*
X95821212Y-79937975D01*
X95821212Y-79937986D01*
X95829513Y-80038946D01*
X95835678Y-80113937D01*
X95894206Y-80346944D01*
X95990003Y-80567263D01*
X96030502Y-80629865D01*
X96105018Y-80745048D01*
X96120498Y-80768977D01*
X96282186Y-80946670D01*
X96347305Y-80998098D01*
X96466670Y-81092367D01*
X96466675Y-81092370D01*
X96470724Y-81095568D01*
X96475240Y-81098061D01*
X96475243Y-81098063D01*
X96676526Y-81209177D01*
X96676530Y-81209179D01*
X96681050Y-81211674D01*
X96685919Y-81213398D01*
X96685923Y-81213400D01*
X96902640Y-81290144D01*
X96902644Y-81290145D01*
X96907515Y-81291870D01*
X96912608Y-81292777D01*
X96912611Y-81292778D01*
X97138948Y-81333095D01*
X97138954Y-81333096D01*
X97144037Y-81334001D01*
X97231400Y-81335068D01*
X97379093Y-81336873D01*
X97379095Y-81336873D01*
X97384263Y-81336936D01*
X97621744Y-81300596D01*
X97733997Y-81263906D01*
X97845183Y-81227566D01*
X97845189Y-81227563D01*
X97850101Y-81225958D01*
X97854687Y-81223571D01*
X97854691Y-81223569D01*
X98058607Y-81117416D01*
X98063200Y-81115025D01*
X98143637Y-81054631D01*
X98251185Y-80973882D01*
X98251188Y-80973880D01*
X98255320Y-80970777D01*
X98353962Y-80867554D01*
X98417730Y-80800825D01*
X98417731Y-80800824D01*
X98421301Y-80797088D01*
X98446840Y-80759649D01*
X98501751Y-80714648D01*
X98572275Y-80706477D01*
X98636022Y-80737731D01*
X98656716Y-80762210D01*
X98658085Y-80764326D01*
X98664378Y-80772498D01*
X98819050Y-80942480D01*
X98826583Y-80949506D01*
X99006944Y-81091945D01*
X99015531Y-81097650D01*
X99216722Y-81208714D01*
X99226134Y-81212944D01*
X99442768Y-81289659D01*
X99452739Y-81292293D01*
X99550163Y-81309647D01*
X99563460Y-81308187D01*
X99568000Y-81293630D01*
X99568000Y-78358904D01*
X99564082Y-78345560D01*
X99549806Y-78343573D01*
X99487485Y-78353110D01*
X99477457Y-78355499D01*
X99259012Y-78426898D01*
X99249503Y-78430895D01*
X99045656Y-78537011D01*
X99036931Y-78542505D01*
X98853148Y-78680493D01*
X98845441Y-78687336D01*
X98686661Y-78853491D01*
X98680177Y-78861498D01*
X98657763Y-78894356D01*
X98602852Y-78939359D01*
X98532328Y-78947532D01*
X98468580Y-78916278D01*
X98447884Y-78891796D01*
X98446311Y-78889365D01*
X98443502Y-78885023D01*
X98281814Y-78707330D01*
X98183112Y-78629380D01*
X98097330Y-78561633D01*
X98097325Y-78561630D01*
X98093276Y-78558432D01*
X98088760Y-78555939D01*
X98088757Y-78555937D01*
X97887474Y-78444823D01*
X97887470Y-78444821D01*
X97882950Y-78442326D01*
X97878081Y-78440602D01*
X97878077Y-78440600D01*
X97661360Y-78363856D01*
X97661356Y-78363855D01*
X97656485Y-78362130D01*
X97651392Y-78361223D01*
X97651389Y-78361222D01*
X97425052Y-78320905D01*
X97425046Y-78320904D01*
X97419963Y-78319999D01*
X97327474Y-78318869D01*
X97184907Y-78317127D01*
X97184905Y-78317127D01*
X97179737Y-78317064D01*
X96942256Y-78353404D01*
X96830003Y-78390094D01*
X96718817Y-78426434D01*
X96718811Y-78426437D01*
X96713899Y-78428042D01*
X96709313Y-78430429D01*
X96709309Y-78430431D01*
X96565164Y-78505469D01*
X96500800Y-78538975D01*
X96478209Y-78555937D01*
X96330370Y-78666938D01*
X96308680Y-78683223D01*
X96142699Y-78856912D01*
X96007314Y-79055378D01*
X96005140Y-79060061D01*
X96005138Y-79060065D01*
X95917902Y-79248000D01*
X95906163Y-79273290D01*
X95841960Y-79504798D01*
X95821000Y-79700928D01*
X95821000Y-79935402D01*
X94742000Y-79935402D01*
X94742000Y-76524062D01*
X95818493Y-76524062D01*
X95827789Y-76536077D01*
X95878994Y-76571931D01*
X95888489Y-76577414D01*
X96085947Y-76669490D01*
X96096239Y-76673236D01*
X96306688Y-76729625D01*
X96317481Y-76731528D01*
X96534525Y-76750517D01*
X96545475Y-76750517D01*
X96762519Y-76731528D01*
X96773312Y-76729625D01*
X96983761Y-76673236D01*
X96994053Y-76669490D01*
X97191511Y-76577414D01*
X97201006Y-76571931D01*
X97253048Y-76535491D01*
X97261424Y-76525012D01*
X97254356Y-76511566D01*
X96552812Y-75810022D01*
X96538868Y-75802408D01*
X96537035Y-75802539D01*
X96530420Y-75806790D01*
X95824923Y-76512287D01*
X95818493Y-76524062D01*
X94742000Y-76524062D01*
X94742000Y-75443475D01*
X95227483Y-75443475D01*
X95246472Y-75660519D01*
X95248375Y-75671312D01*
X95304764Y-75881761D01*
X95308510Y-75892053D01*
X95400586Y-76089511D01*
X95406069Y-76099006D01*
X95442509Y-76151048D01*
X95452988Y-76159424D01*
X95466434Y-76152356D01*
X96167978Y-75450812D01*
X96174356Y-75439132D01*
X96904408Y-75439132D01*
X96904539Y-75440965D01*
X96908790Y-75447580D01*
X97614287Y-76153077D01*
X97626062Y-76159507D01*
X97638077Y-76150211D01*
X97673934Y-76099002D01*
X97680591Y-76087472D01*
X97731973Y-76038479D01*
X97801687Y-76025042D01*
X97867598Y-76051429D01*
X97898829Y-76087472D01*
X97900153Y-76089765D01*
X97902477Y-76094749D01*
X97905631Y-76099253D01*
X97978035Y-76202656D01*
X98033802Y-76282300D01*
X98195700Y-76444198D01*
X98200208Y-76447355D01*
X98200211Y-76447357D01*
X98278389Y-76502098D01*
X98383251Y-76575523D01*
X98388233Y-76577846D01*
X98388238Y-76577849D01*
X98584765Y-76669490D01*
X98590757Y-76672284D01*
X98596065Y-76673706D01*
X98596067Y-76673707D01*
X98806598Y-76730119D01*
X98806600Y-76730119D01*
X98811913Y-76731543D01*
X99040000Y-76751498D01*
X99268087Y-76731543D01*
X99273400Y-76730119D01*
X99273402Y-76730119D01*
X99483933Y-76673707D01*
X99483935Y-76673706D01*
X99489243Y-76672284D01*
X99495235Y-76669490D01*
X99691762Y-76577849D01*
X99691767Y-76577846D01*
X99696749Y-76575523D01*
X99770243Y-76524062D01*
X100898493Y-76524062D01*
X100907789Y-76536077D01*
X100958994Y-76571931D01*
X100968489Y-76577414D01*
X101165947Y-76669490D01*
X101176239Y-76673236D01*
X101386688Y-76729625D01*
X101397481Y-76731528D01*
X101614525Y-76750517D01*
X101625475Y-76750517D01*
X101842519Y-76731528D01*
X101853312Y-76729625D01*
X102063761Y-76673236D01*
X102074053Y-76669490D01*
X102271511Y-76577414D01*
X102281006Y-76571931D01*
X102333048Y-76535491D01*
X102341424Y-76525012D01*
X102334356Y-76511566D01*
X101632812Y-75810022D01*
X101618868Y-75802408D01*
X101617035Y-75802539D01*
X101610420Y-75806790D01*
X100904923Y-76512287D01*
X100898493Y-76524062D01*
X99770243Y-76524062D01*
X99801611Y-76502098D01*
X99879789Y-76447357D01*
X99879792Y-76447355D01*
X99884300Y-76444198D01*
X100046198Y-76282300D01*
X100101966Y-76202656D01*
X100174366Y-76099257D01*
X100177523Y-76094749D01*
X100179846Y-76089767D01*
X100179849Y-76089762D01*
X100216081Y-76012061D01*
X100262998Y-75958776D01*
X100331276Y-75939315D01*
X100399235Y-75959857D01*
X100444471Y-76012061D01*
X100480586Y-76089511D01*
X100486069Y-76099006D01*
X100522509Y-76151048D01*
X100532988Y-76159424D01*
X100546434Y-76152356D01*
X101247978Y-75450812D01*
X101254356Y-75439132D01*
X101984408Y-75439132D01*
X101984539Y-75440965D01*
X101988790Y-75447580D01*
X102694287Y-76153077D01*
X102706062Y-76159507D01*
X102718077Y-76150211D01*
X102753934Y-76099002D01*
X102760591Y-76087472D01*
X102811973Y-76038479D01*
X102881687Y-76025042D01*
X102947598Y-76051429D01*
X102978829Y-76087472D01*
X102980153Y-76089765D01*
X102982477Y-76094749D01*
X102985631Y-76099253D01*
X103058035Y-76202656D01*
X103113802Y-76282300D01*
X103275700Y-76444198D01*
X103280208Y-76447355D01*
X103280211Y-76447357D01*
X103358389Y-76502098D01*
X103463251Y-76575523D01*
X103468233Y-76577846D01*
X103468238Y-76577849D01*
X103664765Y-76669490D01*
X103670757Y-76672284D01*
X103676065Y-76673706D01*
X103676067Y-76673707D01*
X103886598Y-76730119D01*
X103886600Y-76730119D01*
X103891913Y-76731543D01*
X104120000Y-76751498D01*
X104348087Y-76731543D01*
X104353400Y-76730119D01*
X104353402Y-76730119D01*
X104563933Y-76673707D01*
X104563935Y-76673706D01*
X104569243Y-76672284D01*
X104569329Y-76672244D01*
X107384938Y-76672244D01*
X107385235Y-76677396D01*
X107385235Y-76677400D01*
X107388275Y-76730119D01*
X107398744Y-76911680D01*
X107451470Y-77145646D01*
X107541702Y-77367859D01*
X107667014Y-77572351D01*
X107824043Y-77753630D01*
X108008571Y-77906828D01*
X108215643Y-78027831D01*
X108439697Y-78113389D01*
X108444763Y-78114420D01*
X108444764Y-78114420D01*
X108493125Y-78124259D01*
X108674716Y-78161204D01*
X108809089Y-78166131D01*
X108909225Y-78169803D01*
X108909229Y-78169803D01*
X108914389Y-78169992D01*
X108919509Y-78169336D01*
X108919511Y-78169336D01*
X109147151Y-78140175D01*
X109147152Y-78140175D01*
X109152279Y-78139518D01*
X109203140Y-78124259D01*
X109377042Y-78072086D01*
X109377047Y-78072084D01*
X109381997Y-78070599D01*
X109597374Y-77965087D01*
X109601579Y-77962087D01*
X109601585Y-77962084D01*
X109767606Y-77843662D01*
X109792627Y-77825815D01*
X109962511Y-77656523D01*
X109995195Y-77611038D01*
X110051190Y-77567390D01*
X110121893Y-77560944D01*
X110184857Y-77593746D01*
X110192743Y-77602053D01*
X110324043Y-77753630D01*
X110508571Y-77906828D01*
X110715643Y-78027831D01*
X110939697Y-78113389D01*
X110944763Y-78114420D01*
X110944764Y-78114420D01*
X110993125Y-78124259D01*
X111174716Y-78161204D01*
X111309089Y-78166131D01*
X111409225Y-78169803D01*
X111409229Y-78169803D01*
X111414389Y-78169992D01*
X111419509Y-78169336D01*
X111419511Y-78169336D01*
X111647151Y-78140175D01*
X111647152Y-78140175D01*
X111652279Y-78139518D01*
X111703140Y-78124259D01*
X111877042Y-78072086D01*
X111877047Y-78072084D01*
X111881997Y-78070599D01*
X112097374Y-77965087D01*
X112175391Y-77909438D01*
X112258368Y-77850252D01*
X112325441Y-77826978D01*
X112394450Y-77843662D01*
X112442055Y-77892321D01*
X112444235Y-77896303D01*
X112447385Y-77904705D01*
X112534739Y-78021261D01*
X112651295Y-78108615D01*
X112787684Y-78159745D01*
X112849866Y-78166500D01*
X114846134Y-78166500D01*
X114908316Y-78159745D01*
X115044705Y-78108615D01*
X115161261Y-78021261D01*
X115248615Y-77904705D01*
X115299745Y-77768316D01*
X115306500Y-77706134D01*
X115306500Y-75709866D01*
X115299745Y-75647684D01*
X115248615Y-75511295D01*
X115161261Y-75394739D01*
X115044705Y-75307385D01*
X114908316Y-75256255D01*
X114846134Y-75249500D01*
X112849866Y-75249500D01*
X112787684Y-75256255D01*
X112651295Y-75307385D01*
X112534739Y-75394739D01*
X112498213Y-75443475D01*
X112452771Y-75504109D01*
X112447385Y-75511295D01*
X112444235Y-75519699D01*
X112441124Y-75525380D01*
X112390865Y-75575525D01*
X112321474Y-75590538D01*
X112252513Y-75563751D01*
X112161946Y-75492226D01*
X112157888Y-75489021D01*
X111947922Y-75373113D01*
X111825458Y-75329746D01*
X111726720Y-75294781D01*
X111726716Y-75294780D01*
X111721845Y-75293055D01*
X111716752Y-75292148D01*
X111716749Y-75292147D01*
X111490816Y-75251902D01*
X111490810Y-75251901D01*
X111485727Y-75250996D01*
X111393484Y-75249869D01*
X111251081Y-75248129D01*
X111251079Y-75248129D01*
X111245911Y-75248066D01*
X111008837Y-75284343D01*
X110780871Y-75358854D01*
X110776279Y-75361244D01*
X110776280Y-75361244D01*
X110604222Y-75450812D01*
X110568136Y-75469597D01*
X110564003Y-75472700D01*
X110564000Y-75472702D01*
X110427053Y-75575525D01*
X110376345Y-75613598D01*
X110210648Y-75786990D01*
X110202577Y-75798822D01*
X110147666Y-75843823D01*
X110077141Y-75851994D01*
X110013394Y-75820739D01*
X110005313Y-75812633D01*
X109846104Y-75637665D01*
X109842053Y-75634466D01*
X109842049Y-75634462D01*
X109661946Y-75492226D01*
X109657888Y-75489021D01*
X109447922Y-75373113D01*
X109325458Y-75329746D01*
X109226720Y-75294781D01*
X109226716Y-75294780D01*
X109221845Y-75293055D01*
X109216752Y-75292148D01*
X109216749Y-75292147D01*
X108990816Y-75251902D01*
X108990810Y-75251901D01*
X108985727Y-75250996D01*
X108893484Y-75249869D01*
X108751081Y-75248129D01*
X108751079Y-75248129D01*
X108745911Y-75248066D01*
X108508837Y-75284343D01*
X108280871Y-75358854D01*
X108276279Y-75361244D01*
X108276280Y-75361244D01*
X108104222Y-75450812D01*
X108068136Y-75469597D01*
X108064003Y-75472700D01*
X108064000Y-75472702D01*
X107927053Y-75575525D01*
X107876345Y-75613598D01*
X107710648Y-75786990D01*
X107707737Y-75791258D01*
X107707733Y-75791263D01*
X107700041Y-75802539D01*
X107575495Y-75985117D01*
X107474516Y-76202656D01*
X107410424Y-76433768D01*
X107384938Y-76672244D01*
X104569329Y-76672244D01*
X104575235Y-76669490D01*
X104771762Y-76577849D01*
X104771767Y-76577846D01*
X104776749Y-76575523D01*
X104881611Y-76502098D01*
X104959789Y-76447357D01*
X104959792Y-76447355D01*
X104964300Y-76444198D01*
X105126198Y-76282300D01*
X105181966Y-76202656D01*
X105254366Y-76099257D01*
X105257523Y-76094749D01*
X105259846Y-76089767D01*
X105259849Y-76089762D01*
X105351961Y-75892225D01*
X105351961Y-75892224D01*
X105354284Y-75887243D01*
X105365919Y-75843823D01*
X105412119Y-75671402D01*
X105412119Y-75671400D01*
X105413543Y-75666087D01*
X105433498Y-75438000D01*
X105413543Y-75209913D01*
X105376981Y-75073461D01*
X105355707Y-74994067D01*
X105355706Y-74994065D01*
X105354284Y-74988757D01*
X105296081Y-74863939D01*
X105259849Y-74786238D01*
X105259846Y-74786233D01*
X105257523Y-74781251D01*
X105126198Y-74593700D01*
X104964300Y-74431802D01*
X104959792Y-74428645D01*
X104959789Y-74428643D01*
X104833920Y-74340509D01*
X104776749Y-74300477D01*
X104771767Y-74298154D01*
X104771762Y-74298151D01*
X104574225Y-74206039D01*
X104574224Y-74206039D01*
X104569243Y-74203716D01*
X104563935Y-74202294D01*
X104563933Y-74202293D01*
X104353402Y-74145881D01*
X104353400Y-74145881D01*
X104348087Y-74144457D01*
X104120000Y-74124502D01*
X103891913Y-74144457D01*
X103886600Y-74145881D01*
X103886598Y-74145881D01*
X103676067Y-74202293D01*
X103676065Y-74202294D01*
X103670757Y-74203716D01*
X103665776Y-74206039D01*
X103665775Y-74206039D01*
X103468238Y-74298151D01*
X103468233Y-74298154D01*
X103463251Y-74300477D01*
X103406080Y-74340509D01*
X103280211Y-74428643D01*
X103280208Y-74428645D01*
X103275700Y-74431802D01*
X103113802Y-74593700D01*
X102982477Y-74781251D01*
X102980153Y-74786235D01*
X102978829Y-74788528D01*
X102927447Y-74837521D01*
X102857733Y-74850957D01*
X102791822Y-74824571D01*
X102760591Y-74788528D01*
X102753934Y-74776998D01*
X102717491Y-74724952D01*
X102707012Y-74716576D01*
X102693566Y-74723644D01*
X101992022Y-75425188D01*
X101984408Y-75439132D01*
X101254356Y-75439132D01*
X101255592Y-75436868D01*
X101255461Y-75435035D01*
X101251210Y-75428420D01*
X100545713Y-74722923D01*
X100533938Y-74716493D01*
X100521923Y-74725789D01*
X100486069Y-74776994D01*
X100480586Y-74786489D01*
X100444471Y-74863939D01*
X100397554Y-74917224D01*
X100329276Y-74936685D01*
X100261316Y-74916143D01*
X100216081Y-74863939D01*
X100179849Y-74786238D01*
X100179846Y-74786233D01*
X100177523Y-74781251D01*
X100046198Y-74593700D01*
X99884300Y-74431802D01*
X99879792Y-74428645D01*
X99879789Y-74428643D01*
X99768886Y-74350988D01*
X100898576Y-74350988D01*
X100905644Y-74364434D01*
X101607188Y-75065978D01*
X101621132Y-75073592D01*
X101622965Y-75073461D01*
X101629580Y-75069210D01*
X102335077Y-74363713D01*
X102341507Y-74351938D01*
X102332211Y-74339923D01*
X102281006Y-74304069D01*
X102271511Y-74298586D01*
X102074053Y-74206510D01*
X102063761Y-74202764D01*
X101853312Y-74146375D01*
X101842519Y-74144472D01*
X101625475Y-74125483D01*
X101614525Y-74125483D01*
X101397481Y-74144472D01*
X101386688Y-74146375D01*
X101176239Y-74202764D01*
X101165947Y-74206510D01*
X100968489Y-74298586D01*
X100958994Y-74304069D01*
X100906952Y-74340509D01*
X100898576Y-74350988D01*
X99768886Y-74350988D01*
X99753920Y-74340509D01*
X99696749Y-74300477D01*
X99691767Y-74298154D01*
X99691762Y-74298151D01*
X99494225Y-74206039D01*
X99494224Y-74206039D01*
X99489243Y-74203716D01*
X99483935Y-74202294D01*
X99483933Y-74202293D01*
X99273402Y-74145881D01*
X99273400Y-74145881D01*
X99268087Y-74144457D01*
X99040000Y-74124502D01*
X98811913Y-74144457D01*
X98806600Y-74145881D01*
X98806598Y-74145881D01*
X98596067Y-74202293D01*
X98596065Y-74202294D01*
X98590757Y-74203716D01*
X98585776Y-74206039D01*
X98585775Y-74206039D01*
X98388238Y-74298151D01*
X98388233Y-74298154D01*
X98383251Y-74300477D01*
X98326080Y-74340509D01*
X98200211Y-74428643D01*
X98200208Y-74428645D01*
X98195700Y-74431802D01*
X98033802Y-74593700D01*
X97902477Y-74781251D01*
X97900153Y-74786235D01*
X97898829Y-74788528D01*
X97847447Y-74837521D01*
X97777733Y-74850957D01*
X97711822Y-74824571D01*
X97680591Y-74788528D01*
X97673934Y-74776998D01*
X97637491Y-74724952D01*
X97627012Y-74716576D01*
X97613566Y-74723644D01*
X96912022Y-75425188D01*
X96904408Y-75439132D01*
X96174356Y-75439132D01*
X96175592Y-75436868D01*
X96175461Y-75435035D01*
X96171210Y-75428420D01*
X95465713Y-74722923D01*
X95453938Y-74716493D01*
X95441923Y-74725789D01*
X95406069Y-74776994D01*
X95400586Y-74786489D01*
X95308510Y-74983947D01*
X95304764Y-74994239D01*
X95248375Y-75204688D01*
X95246472Y-75215481D01*
X95227483Y-75432525D01*
X95227483Y-75443475D01*
X94742000Y-75443475D01*
X94742000Y-74350988D01*
X95818576Y-74350988D01*
X95825644Y-74364434D01*
X96527188Y-75065978D01*
X96541132Y-75073592D01*
X96542965Y-75073461D01*
X96549580Y-75069210D01*
X97255077Y-74363713D01*
X97261507Y-74351938D01*
X97252211Y-74339923D01*
X97201006Y-74304069D01*
X97191511Y-74298586D01*
X96994053Y-74206510D01*
X96983761Y-74202764D01*
X96773312Y-74146375D01*
X96762519Y-74144472D01*
X96545475Y-74125483D01*
X96534525Y-74125483D01*
X96317481Y-74144472D01*
X96306688Y-74146375D01*
X96096239Y-74202764D01*
X96085947Y-74206510D01*
X95888489Y-74298586D01*
X95878994Y-74304069D01*
X95826952Y-74340509D01*
X95818576Y-74350988D01*
X94742000Y-74350988D01*
X94742000Y-73339466D01*
X97534000Y-73339466D01*
X97625034Y-73381916D01*
X97629965Y-73384348D01*
X97688935Y-73415046D01*
X97693755Y-73417690D01*
X97712776Y-73428672D01*
X97717476Y-73431524D01*
X97773538Y-73467240D01*
X97778108Y-73470294D01*
X97789564Y-73478316D01*
X97801643Y-73469858D01*
X97806213Y-73466804D01*
X97862273Y-73431089D01*
X97866973Y-73428237D01*
X97885994Y-73417255D01*
X97890815Y-73414610D01*
X97949788Y-73383911D01*
X97954718Y-73381480D01*
X98006000Y-73357567D01*
X100074000Y-73357567D01*
X100125282Y-73381480D01*
X100130212Y-73383911D01*
X100189185Y-73414610D01*
X100194006Y-73417255D01*
X100213027Y-73428237D01*
X100217727Y-73431089D01*
X100273787Y-73466804D01*
X100278357Y-73469858D01*
X100330436Y-73506324D01*
X100381892Y-73470294D01*
X100386462Y-73467240D01*
X100442524Y-73431524D01*
X100447224Y-73428672D01*
X100466245Y-73417690D01*
X100471065Y-73415046D01*
X100530035Y-73384348D01*
X100534966Y-73381916D01*
X100626000Y-73339466D01*
X102614000Y-73339466D01*
X102705034Y-73381916D01*
X102709965Y-73384348D01*
X102768935Y-73415046D01*
X102773755Y-73417690D01*
X102792776Y-73428672D01*
X102797476Y-73431524D01*
X102853538Y-73467240D01*
X102858108Y-73470294D01*
X102869564Y-73478316D01*
X102881643Y-73469858D01*
X102886213Y-73466804D01*
X102942273Y-73431089D01*
X102946973Y-73428237D01*
X102965994Y-73417255D01*
X102970815Y-73414610D01*
X103029788Y-73383911D01*
X103034718Y-73381480D01*
X103086000Y-73357567D01*
X105154000Y-73357567D01*
X105205282Y-73381480D01*
X105210212Y-73383911D01*
X105269185Y-73414610D01*
X105274006Y-73417255D01*
X105293027Y-73428237D01*
X105297727Y-73431089D01*
X105353787Y-73466804D01*
X105358357Y-73469858D01*
X105545908Y-73601183D01*
X105550343Y-73604435D01*
X105603101Y-73644919D01*
X105607390Y-73648361D01*
X105624214Y-73662479D01*
X105628345Y-73666103D01*
X105677336Y-73710997D01*
X105681305Y-73714797D01*
X105843203Y-73876695D01*
X105847003Y-73880664D01*
X105891897Y-73929655D01*
X105895521Y-73933786D01*
X105909639Y-73950610D01*
X105913081Y-73954899D01*
X105953565Y-74007657D01*
X105956817Y-74012092D01*
X106065985Y-74168000D01*
X106680000Y-74168000D01*
X107694000Y-74168000D01*
X109220000Y-74168000D01*
X110234000Y-74168000D01*
X111760000Y-74168000D01*
X112774000Y-74168000D01*
X114300000Y-74168000D01*
X115314000Y-74168000D01*
X116334000Y-74168000D01*
X116334000Y-72642000D01*
X115314000Y-72642000D01*
X115314000Y-74168000D01*
X114300000Y-74168000D01*
X114300000Y-72642000D01*
X112774000Y-72642000D01*
X112774000Y-74168000D01*
X111760000Y-74168000D01*
X111760000Y-72642000D01*
X110234000Y-72642000D01*
X110234000Y-74168000D01*
X109220000Y-74168000D01*
X109220000Y-72642000D01*
X107694000Y-72642000D01*
X107694000Y-74168000D01*
X106680000Y-74168000D01*
X106680000Y-72642000D01*
X105154000Y-72642000D01*
X105154000Y-73357567D01*
X103086000Y-73357567D01*
X103242224Y-73284719D01*
X103247254Y-73282506D01*
X103308667Y-73257067D01*
X103313792Y-73255074D01*
X103334431Y-73247562D01*
X103339638Y-73245794D01*
X103403037Y-73225805D01*
X103408314Y-73224267D01*
X103629470Y-73165008D01*
X103634809Y-73163702D01*
X103699703Y-73149315D01*
X103705094Y-73148242D01*
X103726723Y-73144428D01*
X103732157Y-73143592D01*
X103798071Y-73134914D01*
X103803536Y-73134315D01*
X104031623Y-73114360D01*
X104037108Y-73114001D01*
X104103521Y-73111101D01*
X104109018Y-73110981D01*
X104130982Y-73110981D01*
X104136479Y-73111101D01*
X104140000Y-73111255D01*
X104140000Y-72642000D01*
X102614000Y-72642000D01*
X102614000Y-73339466D01*
X100626000Y-73339466D01*
X100742393Y-73285191D01*
X100747424Y-73282978D01*
X100808840Y-73257538D01*
X100813964Y-73255545D01*
X100834603Y-73248033D01*
X100839809Y-73246266D01*
X100903209Y-73226276D01*
X100908487Y-73224737D01*
X101129559Y-73165501D01*
X101134900Y-73164194D01*
X101199798Y-73149807D01*
X101205188Y-73148735D01*
X101226818Y-73144921D01*
X101232252Y-73144085D01*
X101298162Y-73135408D01*
X101303627Y-73134809D01*
X101531626Y-73114862D01*
X101537110Y-73114503D01*
X101600000Y-73111757D01*
X101600000Y-72642000D01*
X100074000Y-72642000D01*
X100074000Y-73357567D01*
X98006000Y-73357567D01*
X98162224Y-73284719D01*
X98167254Y-73282506D01*
X98228667Y-73257067D01*
X98233792Y-73255074D01*
X98254431Y-73247562D01*
X98259638Y-73245794D01*
X98323037Y-73225805D01*
X98328314Y-73224267D01*
X98549470Y-73165008D01*
X98554809Y-73163702D01*
X98619703Y-73149315D01*
X98625094Y-73148242D01*
X98646723Y-73144428D01*
X98652157Y-73143592D01*
X98718071Y-73134914D01*
X98723536Y-73134315D01*
X98951623Y-73114360D01*
X98957108Y-73114001D01*
X99023521Y-73111101D01*
X99029018Y-73110981D01*
X99050982Y-73110981D01*
X99056479Y-73111101D01*
X99060000Y-73111255D01*
X99060000Y-72642000D01*
X97534000Y-72642000D01*
X97534000Y-73339466D01*
X94742000Y-73339466D01*
X94742000Y-71628000D01*
X95756000Y-71628000D01*
X96520000Y-71628000D01*
X97534000Y-71628000D01*
X99060000Y-71628000D01*
X100074000Y-71628000D01*
X101600000Y-71628000D01*
X102614000Y-71628000D01*
X104140000Y-71628000D01*
X105154000Y-71628000D01*
X106680000Y-71628000D01*
X106680000Y-70733182D01*
X112774000Y-70733182D01*
X112774000Y-71628000D01*
X114300000Y-71628000D01*
X114300000Y-71473978D01*
X114215460Y-71461042D01*
X114211231Y-71460321D01*
X114160262Y-71450736D01*
X114156062Y-71449872D01*
X114139335Y-71446133D01*
X114135168Y-71445127D01*
X114084977Y-71432100D01*
X114080845Y-71430952D01*
X113818266Y-71353173D01*
X113814177Y-71351886D01*
X113765004Y-71335481D01*
X113760962Y-71334056D01*
X113744897Y-71328082D01*
X113740903Y-71326519D01*
X113692920Y-71306792D01*
X113688980Y-71305093D01*
X113439387Y-71192397D01*
X113435507Y-71190565D01*
X113388972Y-71167615D01*
X113385157Y-71165652D01*
X113370052Y-71157552D01*
X113366310Y-71155463D01*
X113321493Y-71129430D01*
X113317825Y-71127214D01*
X113085836Y-70981687D01*
X113082243Y-70979347D01*
X113039285Y-70950317D01*
X113035774Y-70947857D01*
X113021908Y-70937783D01*
X113018482Y-70935204D01*
X112977584Y-70903309D01*
X112974248Y-70900614D01*
X112774000Y-70733182D01*
X106680000Y-70733182D01*
X106680000Y-70102000D01*
X105154000Y-70102000D01*
X105154000Y-71628000D01*
X104140000Y-71628000D01*
X104140000Y-70102000D01*
X102614000Y-70102000D01*
X102614000Y-71628000D01*
X101600000Y-71628000D01*
X101600000Y-70102000D01*
X100074000Y-70102000D01*
X100074000Y-71628000D01*
X99060000Y-71628000D01*
X99060000Y-70102000D01*
X97534000Y-70102000D01*
X97534000Y-71628000D01*
X96520000Y-71628000D01*
X96520000Y-70102000D01*
X95756000Y-70102000D01*
X95756000Y-71628000D01*
X94742000Y-71628000D01*
X94742000Y-70038669D01*
X107720001Y-70038669D01*
X107720371Y-70045490D01*
X107725895Y-70096352D01*
X107729521Y-70111604D01*
X107774676Y-70232054D01*
X107783214Y-70247649D01*
X107859715Y-70349724D01*
X107872276Y-70362285D01*
X107974351Y-70438786D01*
X107989946Y-70447324D01*
X108110394Y-70492478D01*
X108125649Y-70496105D01*
X108176514Y-70501631D01*
X108183328Y-70502000D01*
X109455885Y-70502000D01*
X109471124Y-70497525D01*
X109472329Y-70496135D01*
X109474000Y-70488452D01*
X109474000Y-70483884D01*
X109982000Y-70483884D01*
X109986475Y-70499123D01*
X109987865Y-70500328D01*
X109995548Y-70501999D01*
X111272669Y-70501999D01*
X111279490Y-70501629D01*
X111330352Y-70496105D01*
X111345604Y-70492479D01*
X111466054Y-70447324D01*
X111481649Y-70438786D01*
X111583724Y-70362285D01*
X111596285Y-70349724D01*
X111672786Y-70247649D01*
X111681324Y-70232054D01*
X111726478Y-70111606D01*
X111730105Y-70096351D01*
X111735631Y-70045486D01*
X111736000Y-70038672D01*
X111736000Y-68766115D01*
X111731525Y-68750876D01*
X111730135Y-68749671D01*
X111722452Y-68748000D01*
X110000115Y-68748000D01*
X109984876Y-68752475D01*
X109983671Y-68753865D01*
X109982000Y-68761548D01*
X109982000Y-70483884D01*
X109474000Y-70483884D01*
X109474000Y-68766115D01*
X109469525Y-68750876D01*
X109468135Y-68749671D01*
X109460452Y-68748000D01*
X107738116Y-68748000D01*
X107722877Y-68752475D01*
X107721672Y-68753865D01*
X107720001Y-68761548D01*
X107720001Y-70038669D01*
X94742000Y-70038669D01*
X94742000Y-69088000D01*
X95756000Y-69088000D01*
X96520000Y-69088000D01*
X96520000Y-68503941D01*
X97534000Y-68503941D01*
X97534000Y-69088000D01*
X99060000Y-69088000D01*
X100074000Y-69088000D01*
X101600000Y-69088000D01*
X102614000Y-69088000D01*
X104140000Y-69088000D01*
X105154000Y-69088000D01*
X106680000Y-69088000D01*
X106680000Y-68472918D01*
X112794917Y-68472918D01*
X112810682Y-68746320D01*
X112811507Y-68750525D01*
X112811508Y-68750533D01*
X112821350Y-68800695D01*
X112863405Y-69015053D01*
X112864792Y-69019103D01*
X112864793Y-69019108D01*
X112950723Y-69270088D01*
X112952112Y-69274144D01*
X113075160Y-69518799D01*
X113077586Y-69522328D01*
X113077589Y-69522334D01*
X113214224Y-69721137D01*
X113230274Y-69744490D01*
X113233161Y-69747663D01*
X113233162Y-69747664D01*
X113357211Y-69883993D01*
X113414582Y-69947043D01*
X113624675Y-70122707D01*
X113628316Y-70124991D01*
X113853024Y-70265951D01*
X113853028Y-70265953D01*
X113856664Y-70268234D01*
X113981460Y-70324582D01*
X114102345Y-70379164D01*
X114102349Y-70379166D01*
X114106257Y-70380930D01*
X114110377Y-70382150D01*
X114110376Y-70382150D01*
X114364723Y-70457491D01*
X114364727Y-70457492D01*
X114368836Y-70458709D01*
X114373070Y-70459357D01*
X114373075Y-70459358D01*
X114635298Y-70499483D01*
X114635300Y-70499483D01*
X114639540Y-70500132D01*
X114778912Y-70502322D01*
X114909071Y-70504367D01*
X114909077Y-70504367D01*
X114913362Y-70504434D01*
X115185235Y-70471534D01*
X115450127Y-70402041D01*
X115454087Y-70400401D01*
X115454092Y-70400399D01*
X115592534Y-70343054D01*
X115703136Y-70297241D01*
X115876812Y-70195753D01*
X115935879Y-70161237D01*
X115935880Y-70161236D01*
X115939582Y-70159073D01*
X116155089Y-69990094D01*
X116181307Y-69963040D01*
X116305524Y-69834857D01*
X116345669Y-69793431D01*
X116348202Y-69789983D01*
X116348206Y-69789978D01*
X116505257Y-69576178D01*
X116507795Y-69572723D01*
X116535154Y-69522334D01*
X116636418Y-69335830D01*
X116636419Y-69335828D01*
X116638468Y-69332054D01*
X116730688Y-69088000D01*
X117854000Y-69088000D01*
X118542269Y-69088000D01*
X118542194Y-69087238D01*
X118541791Y-69082084D01*
X118528932Y-68859064D01*
X118528740Y-68853901D01*
X118527704Y-68791438D01*
X118527725Y-68786272D01*
X118528229Y-68765630D01*
X118528461Y-68760467D01*
X118532548Y-68698095D01*
X118532991Y-68692945D01*
X118556729Y-68470820D01*
X118557384Y-68465690D01*
X118566573Y-68403849D01*
X118567438Y-68398753D01*
X118571308Y-68378470D01*
X118572379Y-68373419D01*
X118586590Y-68312594D01*
X118587869Y-68307588D01*
X118647568Y-68092323D01*
X118649050Y-68087374D01*
X118668196Y-68027918D01*
X118669879Y-68023035D01*
X118677008Y-68003657D01*
X118678892Y-67998843D01*
X118702864Y-67941109D01*
X118704944Y-67936377D01*
X118724787Y-67893629D01*
X118724102Y-67892477D01*
X118706946Y-67861142D01*
X118702926Y-67853135D01*
X118657796Y-67754679D01*
X118654354Y-67746406D01*
X118603274Y-67610151D01*
X118600737Y-67602679D01*
X118588330Y-67562000D01*
X117854000Y-67562000D01*
X117854000Y-69088000D01*
X116730688Y-69088000D01*
X116735269Y-69075877D01*
X116796407Y-68808933D01*
X116797143Y-68800695D01*
X116820531Y-68538627D01*
X116820531Y-68538625D01*
X116820751Y-68536161D01*
X116821193Y-68494000D01*
X116821024Y-68491519D01*
X116802859Y-68225055D01*
X116802858Y-68225049D01*
X116802567Y-68220778D01*
X116791094Y-68165375D01*
X116774799Y-68086695D01*
X116747032Y-67952612D01*
X116655617Y-67694465D01*
X116538303Y-67467173D01*
X116531978Y-67454919D01*
X116531978Y-67454918D01*
X116530013Y-67451112D01*
X116520040Y-67436921D01*
X116445969Y-67331529D01*
X116372545Y-67227057D01*
X116186125Y-67026445D01*
X116182810Y-67023731D01*
X116182806Y-67023728D01*
X115977523Y-66855706D01*
X115974205Y-66852990D01*
X115740704Y-66709901D01*
X115736768Y-66708173D01*
X115493873Y-66601549D01*
X115493869Y-66601548D01*
X115489945Y-66599825D01*
X115308011Y-66548000D01*
X117854000Y-66548000D01*
X118532001Y-66548000D01*
X118532723Y-66534532D01*
X118550136Y-66372561D01*
X118552293Y-66359246D01*
X118563679Y-66306904D01*
X118565289Y-66300353D01*
X118568027Y-66290373D01*
X118567969Y-66290176D01*
X118564148Y-66272611D01*
X118533282Y-66057932D01*
X118532000Y-66040000D01*
X118532000Y-65784000D01*
X117854000Y-65784000D01*
X117854000Y-66548000D01*
X115308011Y-66548000D01*
X115226566Y-66524800D01*
X115222324Y-66524196D01*
X115222318Y-66524195D01*
X114995366Y-66491895D01*
X114955443Y-66486213D01*
X114811589Y-66485460D01*
X114685877Y-66484802D01*
X114685871Y-66484802D01*
X114681591Y-66484780D01*
X114677347Y-66485339D01*
X114677343Y-66485339D01*
X114569416Y-66499548D01*
X114410078Y-66520525D01*
X114405938Y-66521658D01*
X114405936Y-66521658D01*
X114358877Y-66534532D01*
X114145928Y-66592788D01*
X114141980Y-66594472D01*
X113897982Y-66698546D01*
X113897978Y-66698548D01*
X113894030Y-66700232D01*
X113874125Y-66712145D01*
X113662725Y-66838664D01*
X113662721Y-66838667D01*
X113659043Y-66840868D01*
X113445318Y-67012094D01*
X113428717Y-67029588D01*
X113271243Y-67195531D01*
X113256808Y-67210742D01*
X113097002Y-67433136D01*
X112968857Y-67675161D01*
X112967385Y-67679184D01*
X112967383Y-67679188D01*
X112907703Y-67842270D01*
X112874743Y-67932337D01*
X112816404Y-68199907D01*
X112794917Y-68472918D01*
X106680000Y-68472918D01*
X106680000Y-68221885D01*
X107720000Y-68221885D01*
X107724475Y-68237124D01*
X107725865Y-68238329D01*
X107733548Y-68240000D01*
X109455885Y-68240000D01*
X109471124Y-68235525D01*
X109472329Y-68234135D01*
X109474000Y-68226452D01*
X109474000Y-68221885D01*
X109982000Y-68221885D01*
X109986475Y-68237124D01*
X109987865Y-68238329D01*
X109995548Y-68240000D01*
X111717884Y-68240000D01*
X111733123Y-68235525D01*
X111734328Y-68234135D01*
X111735999Y-68226452D01*
X111735999Y-66949331D01*
X111735629Y-66942510D01*
X111730105Y-66891648D01*
X111726479Y-66876396D01*
X111681324Y-66755946D01*
X111672786Y-66740351D01*
X111596285Y-66638276D01*
X111583724Y-66625715D01*
X111481649Y-66549214D01*
X111466054Y-66540676D01*
X111345606Y-66495522D01*
X111330351Y-66491895D01*
X111279486Y-66486369D01*
X111272672Y-66486000D01*
X110000115Y-66486000D01*
X109984876Y-66490475D01*
X109983671Y-66491865D01*
X109982000Y-66499548D01*
X109982000Y-68221885D01*
X109474000Y-68221885D01*
X109474000Y-66504116D01*
X109469525Y-66488877D01*
X109468135Y-66487672D01*
X109460452Y-66486001D01*
X108183331Y-66486001D01*
X108176510Y-66486371D01*
X108125648Y-66491895D01*
X108110396Y-66495521D01*
X107989946Y-66540676D01*
X107974351Y-66549214D01*
X107872276Y-66625715D01*
X107859715Y-66638276D01*
X107783214Y-66740351D01*
X107774676Y-66755946D01*
X107729522Y-66876394D01*
X107725895Y-66891649D01*
X107720369Y-66942514D01*
X107720000Y-66949328D01*
X107720000Y-68221885D01*
X106680000Y-68221885D01*
X106680000Y-67562000D01*
X106164004Y-67562000D01*
X106149837Y-67583527D01*
X106146908Y-67587786D01*
X106016551Y-67769198D01*
X106013450Y-67773332D01*
X105974934Y-67822542D01*
X105971666Y-67826545D01*
X105958283Y-67842270D01*
X105954853Y-67846137D01*
X105912433Y-67892026D01*
X105908849Y-67895747D01*
X105750613Y-68053431D01*
X105746878Y-68057003D01*
X105700836Y-68099266D01*
X105696957Y-68102682D01*
X105681185Y-68116010D01*
X105677171Y-68119264D01*
X105627834Y-68157602D01*
X105623690Y-68160688D01*
X105441824Y-68290411D01*
X105437555Y-68293326D01*
X105385216Y-68327509D01*
X105380831Y-68330246D01*
X105363095Y-68340818D01*
X105358605Y-68343371D01*
X105303684Y-68373128D01*
X105299092Y-68375495D01*
X105154000Y-68446575D01*
X105154000Y-69088000D01*
X104140000Y-69088000D01*
X104140000Y-68667616D01*
X103956440Y-68660885D01*
X103951282Y-68660590D01*
X103888980Y-68655742D01*
X103883836Y-68655236D01*
X103863332Y-68652791D01*
X103858213Y-68652073D01*
X103796519Y-68642135D01*
X103791436Y-68641209D01*
X103572531Y-68596672D01*
X103567492Y-68595539D01*
X103506839Y-68580586D01*
X103501849Y-68579247D01*
X103482021Y-68573487D01*
X103477088Y-68571943D01*
X103417825Y-68552057D01*
X103412959Y-68550313D01*
X103204267Y-68470621D01*
X103199479Y-68468679D01*
X103142055Y-68444008D01*
X103137348Y-68441870D01*
X103118727Y-68432948D01*
X103114114Y-68430620D01*
X103058924Y-68401336D01*
X103054411Y-68398822D01*
X102886373Y-68300629D01*
X102845216Y-68327509D01*
X102840831Y-68330246D01*
X102823095Y-68340818D01*
X102818605Y-68343371D01*
X102763684Y-68373128D01*
X102759092Y-68375495D01*
X102614000Y-68446575D01*
X102614000Y-69088000D01*
X101600000Y-69088000D01*
X101600000Y-68667616D01*
X101416440Y-68660885D01*
X101411282Y-68660590D01*
X101348980Y-68655742D01*
X101343836Y-68655236D01*
X101323332Y-68652791D01*
X101318213Y-68652073D01*
X101256519Y-68642135D01*
X101251436Y-68641209D01*
X101032531Y-68596672D01*
X101027492Y-68595539D01*
X100966839Y-68580586D01*
X100961849Y-68579247D01*
X100942021Y-68573487D01*
X100937088Y-68571943D01*
X100877825Y-68552057D01*
X100872959Y-68550313D01*
X100673833Y-68474274D01*
X100673720Y-68474341D01*
X100642385Y-68491497D01*
X100634377Y-68495517D01*
X100535920Y-68540647D01*
X100527648Y-68544089D01*
X100391259Y-68595219D01*
X100383790Y-68597755D01*
X100292574Y-68625578D01*
X100284959Y-68627643D01*
X100254337Y-68634924D01*
X100246609Y-68636507D01*
X100152636Y-68652717D01*
X100144826Y-68653814D01*
X100082644Y-68660569D01*
X100079252Y-68660891D01*
X100074000Y-68661318D01*
X100074000Y-69088000D01*
X99060000Y-69088000D01*
X99060000Y-68666500D01*
X98176866Y-68666500D01*
X98173458Y-68666454D01*
X98132249Y-68665339D01*
X98128843Y-68665201D01*
X98115235Y-68664464D01*
X98111833Y-68664233D01*
X98070748Y-68660891D01*
X98067356Y-68660569D01*
X98005174Y-68653814D01*
X97997364Y-68652717D01*
X97903391Y-68636507D01*
X97895663Y-68634924D01*
X97865041Y-68627643D01*
X97857426Y-68625578D01*
X97766210Y-68597755D01*
X97758741Y-68595219D01*
X97622352Y-68544089D01*
X97614080Y-68540647D01*
X97534000Y-68503941D01*
X96520000Y-68503941D01*
X96520000Y-67562000D01*
X95756000Y-67562000D01*
X95756000Y-69088000D01*
X94742000Y-69088000D01*
X94742000Y-66548000D01*
X95756000Y-66548000D01*
X96520000Y-66548000D01*
X96520000Y-65784000D01*
X95756000Y-65784000D01*
X95756000Y-66548000D01*
X94742000Y-66548000D01*
X94742000Y-65327329D01*
X94743500Y-65307944D01*
X94745805Y-65293143D01*
X94745805Y-65293140D01*
X94747186Y-65284271D01*
X94746009Y-65275270D01*
X94745738Y-65244832D01*
X94753148Y-65179065D01*
X94759427Y-65151557D01*
X94783356Y-65083171D01*
X94826685Y-65023986D01*
X94837647Y-65015765D01*
X95075380Y-64837465D01*
X95122939Y-64801796D01*
X95184431Y-64777388D01*
X95210258Y-64774478D01*
X95225904Y-64773695D01*
X95234857Y-64773804D01*
X95243731Y-64775186D01*
X95275253Y-64771064D01*
X95291590Y-64770000D01*
X97898139Y-64770000D01*
X97966260Y-64790002D01*
G37*
%TD.AperFunction*%
%TD*%
M02*
