%TF.GenerationSoftware,KiCad,Pcbnew,(5.99.0-11170-gbcb5618315)*%
%TF.CreationDate,2021-07-13T11:01:09+10:00*%
%TF.ProjectId,Breadboard Power Supply,42726561-6462-46f6-9172-6420506f7765,rev?*%
%TF.SameCoordinates,Original*%
%TF.FileFunction,Plated,1,2,PTH,Mixed*%
%TF.FilePolarity,Positive*%
%FSLAX46Y46*%
G04 Gerber Fmt 4.6, Leading zero omitted, Abs format (unit mm)*
G04 Created by KiCad (PCBNEW (5.99.0-11170-gbcb5618315)) date 2021-07-13 11:01:09*
%MOMM*%
%LPD*%
G01*
G04 APERTURE LIST*
%TA.AperFunction,ViaDrill*%
%ADD10C,0.500000*%
%TD*%
%TA.AperFunction,ComponentDrill*%
%ADD11C,0.700000*%
%TD*%
%TA.AperFunction,ComponentDrill*%
%ADD12C,0.800000*%
%TD*%
%TA.AperFunction,ComponentDrill*%
%ADD13C,0.900000*%
%TD*%
%TA.AperFunction,ComponentDrill*%
%ADD14C,1.000000*%
%TD*%
G04 aperture for slot hole*
%TA.AperFunction,ComponentDrill*%
%ADD15O,1.000000X3.000000*%
%TD*%
G04 aperture for slot hole*
%TA.AperFunction,ComponentDrill*%
%ADD16O,3.000000X1.000000*%
%TD*%
%TA.AperFunction,ComponentDrill*%
%ADD17C,1.100000*%
%TD*%
%TA.AperFunction,ComponentDrill*%
%ADD18C,1.520000*%
%TD*%
G04 APERTURE END LIST*
D10*
X107188000Y-104902000D03*
D11*
%TO.C,R1*%
X107696000Y-82804000D03*
%TO.C,R3*%
X108948000Y-100330000D03*
%TO.C,R2*%
X108948000Y-103378000D03*
%TO.C,R1*%
X115316000Y-82804000D03*
%TO.C,R3*%
X116568000Y-100330000D03*
%TO.C,R2*%
X116568000Y-103378000D03*
D12*
%TO.C,C2*%
X95544000Y-107442000D03*
%TO.C,C3*%
X96540000Y-75438000D03*
%TO.C,C2*%
X98044000Y-107442000D03*
%TO.C,C3*%
X99040000Y-75438000D03*
%TO.C,C1*%
X101620000Y-75438000D03*
X104120000Y-75438000D03*
D13*
%TO.C,S1*%
X108848000Y-76708000D03*
X111348000Y-76708000D03*
X113848000Y-76708000D03*
%TO.C,D1*%
X114268000Y-89921000D03*
X114268000Y-92461000D03*
D14*
%TO.C,J3*%
X99075000Y-66294000D03*
%TO.C,J7*%
X99314000Y-114554000D03*
%TO.C,J3*%
X101615000Y-66294000D03*
%TO.C,J7*%
X101854000Y-114554000D03*
D15*
%TO.C,J1*%
X102616000Y-91244500D03*
D14*
%TO.C,J3*%
X104155000Y-66294000D03*
%TO.C,J7*%
X104394000Y-114554000D03*
D16*
%TO.C,J1*%
X105616000Y-95944500D03*
D15*
X108616000Y-91244500D03*
D14*
%TO.C,J6*%
X120904000Y-66294000D03*
X120904000Y-68834000D03*
%TO.C,J4*%
X120904000Y-112115600D03*
X120904000Y-114655600D03*
D17*
%TO.C,U2*%
X97282000Y-79827000D03*
%TO.C,U1*%
X97282000Y-102870000D03*
%TO.C,U2*%
X99822000Y-79827000D03*
%TO.C,U1*%
X99822000Y-102870000D03*
%TO.C,U2*%
X102362000Y-79827000D03*
%TO.C,U1*%
X102362000Y-102870000D03*
D18*
%TO.C,J2*%
X109728000Y-68494000D03*
%TO.C,J5*%
X109728000Y-112465600D03*
%TO.C,J2*%
X114808000Y-68494000D03*
%TO.C,J5*%
X114808000Y-112465600D03*
M02*
