%TF.GenerationSoftware,KiCad,Pcbnew,(5.99.0-12741-g2662433374)*%
%TF.CreationDate,2021-10-19T15:00:24+11:00*%
%TF.ProjectId,Breadboard Power Supply,42726561-6462-46f6-9172-6420506f7765,rev?*%
%TF.SameCoordinates,Original*%
%TF.FileFunction,Legend,Top*%
%TF.FilePolarity,Positive*%
%FSLAX46Y46*%
G04 Gerber Fmt 4.6, Leading zero omitted, Abs format (unit mm)*
G04 Created by KiCad (PCBNEW (5.99.0-12741-g2662433374)) date 2021-10-19 15:00:24*
%MOMM*%
%LPD*%
G01*
G04 APERTURE LIST*
%ADD10C,0.150000*%
%ADD11C,0.120000*%
%ADD12C,0.100000*%
G04 APERTURE END LIST*
D10*
X108521619Y-79208380D02*
X108712095Y-79208380D01*
X108807333Y-79256000D01*
X108902571Y-79351238D01*
X108950190Y-79541714D01*
X108950190Y-79875047D01*
X108902571Y-80065523D01*
X108807333Y-80160761D01*
X108712095Y-80208380D01*
X108521619Y-80208380D01*
X108426380Y-80160761D01*
X108331142Y-80065523D01*
X108283523Y-79875047D01*
X108283523Y-79541714D01*
X108331142Y-79351238D01*
X108426380Y-79256000D01*
X108521619Y-79208380D01*
X109712095Y-79684571D02*
X109378761Y-79684571D01*
X109378761Y-80208380D02*
X109378761Y-79208380D01*
X109854952Y-79208380D01*
X110569238Y-79684571D02*
X110235904Y-79684571D01*
X110235904Y-80208380D02*
X110235904Y-79208380D01*
X110712095Y-79208380D01*
X112664952Y-79208380D02*
X112855428Y-79208380D01*
X112950666Y-79256000D01*
X113045904Y-79351238D01*
X113093523Y-79541714D01*
X113093523Y-79875047D01*
X113045904Y-80065523D01*
X112950666Y-80160761D01*
X112855428Y-80208380D01*
X112664952Y-80208380D01*
X112569714Y-80160761D01*
X112474476Y-80065523D01*
X112426857Y-79875047D01*
X112426857Y-79541714D01*
X112474476Y-79351238D01*
X112569714Y-79256000D01*
X112664952Y-79208380D01*
X113522095Y-80208380D02*
X113522095Y-79208380D01*
X114093523Y-80208380D01*
X114093523Y-79208380D01*
X115951047Y-88209428D02*
X116712952Y-88209428D01*
X116332000Y-88590380D02*
X116332000Y-87828476D01*
X109317404Y-107196000D02*
X109222166Y-107148380D01*
X109079309Y-107148380D01*
X108936452Y-107196000D01*
X108841214Y-107291238D01*
X108793595Y-107386476D01*
X108745976Y-107576952D01*
X108745976Y-107719809D01*
X108793595Y-107910285D01*
X108841214Y-108005523D01*
X108936452Y-108100761D01*
X109079309Y-108148380D01*
X109174547Y-108148380D01*
X109317404Y-108100761D01*
X109365023Y-108053142D01*
X109365023Y-107719809D01*
X109174547Y-107719809D01*
X109793595Y-108148380D02*
X109793595Y-107148380D01*
X110365023Y-108148380D01*
X110365023Y-107148380D01*
X110841214Y-108148380D02*
X110841214Y-107148380D01*
X111079309Y-107148380D01*
X111222166Y-107196000D01*
X111317404Y-107291238D01*
X111365023Y-107386476D01*
X111412642Y-107576952D01*
X111412642Y-107719809D01*
X111365023Y-107910285D01*
X111317404Y-108005523D01*
X111222166Y-108100761D01*
X111079309Y-108148380D01*
X110841214Y-108148380D01*
X103949523Y-68286380D02*
X103473333Y-68286380D01*
X103425714Y-68762571D01*
X103473333Y-68714952D01*
X103568571Y-68667333D01*
X103806666Y-68667333D01*
X103901904Y-68714952D01*
X103949523Y-68762571D01*
X103997142Y-68857809D01*
X103997142Y-69095904D01*
X103949523Y-69191142D01*
X103901904Y-69238761D01*
X103806666Y-69286380D01*
X103568571Y-69286380D01*
X103473333Y-69238761D01*
X103425714Y-69191142D01*
X104282857Y-68286380D02*
X104616190Y-69286380D01*
X104949523Y-68286380D01*
X115951047Y-94813428D02*
X116712952Y-94813428D01*
X97583809Y-68286380D02*
X98202857Y-68286380D01*
X97869523Y-68667333D01*
X98012380Y-68667333D01*
X98107619Y-68714952D01*
X98155238Y-68762571D01*
X98202857Y-68857809D01*
X98202857Y-69095904D01*
X98155238Y-69191142D01*
X98107619Y-69238761D01*
X98012380Y-69286380D01*
X97726666Y-69286380D01*
X97631428Y-69238761D01*
X97583809Y-69191142D01*
X98631428Y-69191142D02*
X98679047Y-69238761D01*
X98631428Y-69286380D01*
X98583809Y-69238761D01*
X98631428Y-69191142D01*
X98631428Y-69286380D01*
X99012380Y-68286380D02*
X99631428Y-68286380D01*
X99298095Y-68667333D01*
X99440952Y-68667333D01*
X99536190Y-68714952D01*
X99583809Y-68762571D01*
X99631428Y-68857809D01*
X99631428Y-69095904D01*
X99583809Y-69191142D01*
X99536190Y-69238761D01*
X99440952Y-69286380D01*
X99155238Y-69286380D01*
X99060000Y-69238761D01*
X99012380Y-69191142D01*
X99917142Y-68286380D02*
X100250476Y-69286380D01*
X100583809Y-68286380D01*
X104203523Y-111466380D02*
X103727333Y-111466380D01*
X103679714Y-111942571D01*
X103727333Y-111894952D01*
X103822571Y-111847333D01*
X104060666Y-111847333D01*
X104155904Y-111894952D01*
X104203523Y-111942571D01*
X104251142Y-112037809D01*
X104251142Y-112275904D01*
X104203523Y-112371142D01*
X104155904Y-112418761D01*
X104060666Y-112466380D01*
X103822571Y-112466380D01*
X103727333Y-112418761D01*
X103679714Y-112371142D01*
X104536857Y-111466380D02*
X104870190Y-112466380D01*
X105203523Y-111466380D01*
X118118000Y-112424595D02*
X118070380Y-112519833D01*
X118070380Y-112662690D01*
X118118000Y-112805547D01*
X118213238Y-112900785D01*
X118308476Y-112948404D01*
X118498952Y-112996023D01*
X118641809Y-112996023D01*
X118832285Y-112948404D01*
X118927523Y-112900785D01*
X119022761Y-112805547D01*
X119070380Y-112662690D01*
X119070380Y-112567452D01*
X119022761Y-112424595D01*
X118975142Y-112376976D01*
X118641809Y-112376976D01*
X118641809Y-112567452D01*
X119070380Y-111948404D02*
X118070380Y-111948404D01*
X119070380Y-111376976D01*
X118070380Y-111376976D01*
X119070380Y-110900785D02*
X118070380Y-110900785D01*
X118070380Y-110662690D01*
X118118000Y-110519833D01*
X118213238Y-110424595D01*
X118308476Y-110376976D01*
X118498952Y-110329357D01*
X118641809Y-110329357D01*
X118832285Y-110376976D01*
X118927523Y-110424595D01*
X119022761Y-110519833D01*
X119070380Y-110662690D01*
X119070380Y-110900785D01*
X97837809Y-111466380D02*
X98456857Y-111466380D01*
X98123523Y-111847333D01*
X98266380Y-111847333D01*
X98361619Y-111894952D01*
X98409238Y-111942571D01*
X98456857Y-112037809D01*
X98456857Y-112275904D01*
X98409238Y-112371142D01*
X98361619Y-112418761D01*
X98266380Y-112466380D01*
X97980666Y-112466380D01*
X97885428Y-112418761D01*
X97837809Y-112371142D01*
X98885428Y-112371142D02*
X98933047Y-112418761D01*
X98885428Y-112466380D01*
X98837809Y-112418761D01*
X98885428Y-112371142D01*
X98885428Y-112466380D01*
X99266380Y-111466380D02*
X99885428Y-111466380D01*
X99552095Y-111847333D01*
X99694952Y-111847333D01*
X99790190Y-111894952D01*
X99837809Y-111942571D01*
X99885428Y-112037809D01*
X99885428Y-112275904D01*
X99837809Y-112371142D01*
X99790190Y-112418761D01*
X99694952Y-112466380D01*
X99409238Y-112466380D01*
X99314000Y-112418761D01*
X99266380Y-112371142D01*
X100171142Y-111466380D02*
X100504476Y-112466380D01*
X100837809Y-111466380D01*
X108809404Y-72652000D02*
X108714166Y-72604380D01*
X108571309Y-72604380D01*
X108428452Y-72652000D01*
X108333214Y-72747238D01*
X108285595Y-72842476D01*
X108237976Y-73032952D01*
X108237976Y-73175809D01*
X108285595Y-73366285D01*
X108333214Y-73461523D01*
X108428452Y-73556761D01*
X108571309Y-73604380D01*
X108666547Y-73604380D01*
X108809404Y-73556761D01*
X108857023Y-73509142D01*
X108857023Y-73175809D01*
X108666547Y-73175809D01*
X109285595Y-73604380D02*
X109285595Y-72604380D01*
X109857023Y-73604380D01*
X109857023Y-72604380D01*
X110333214Y-73604380D02*
X110333214Y-72604380D01*
X110571309Y-72604380D01*
X110714166Y-72652000D01*
X110809404Y-72747238D01*
X110857023Y-72842476D01*
X110904642Y-73032952D01*
X110904642Y-73175809D01*
X110857023Y-73366285D01*
X110809404Y-73461523D01*
X110714166Y-73556761D01*
X110571309Y-73604380D01*
X110333214Y-73604380D01*
X118118000Y-66704595D02*
X118070380Y-66799833D01*
X118070380Y-66942690D01*
X118118000Y-67085547D01*
X118213238Y-67180785D01*
X118308476Y-67228404D01*
X118498952Y-67276023D01*
X118641809Y-67276023D01*
X118832285Y-67228404D01*
X118927523Y-67180785D01*
X119022761Y-67085547D01*
X119070380Y-66942690D01*
X119070380Y-66847452D01*
X119022761Y-66704595D01*
X118975142Y-66656976D01*
X118641809Y-66656976D01*
X118641809Y-66847452D01*
X119070380Y-66228404D02*
X118070380Y-66228404D01*
X119070380Y-65656976D01*
X118070380Y-65656976D01*
X119070380Y-65180785D02*
X118070380Y-65180785D01*
X118070380Y-64942690D01*
X118118000Y-64799833D01*
X118213238Y-64704595D01*
X118308476Y-64656976D01*
X118498952Y-64609357D01*
X118641809Y-64609357D01*
X118832285Y-64656976D01*
X118927523Y-64704595D01*
X119022761Y-64799833D01*
X119070380Y-64942690D01*
X119070380Y-65180785D01*
%TO.C,J3*%
X96286666Y-65910666D02*
X96286666Y-66410666D01*
X96253333Y-66510666D01*
X96186666Y-66577333D01*
X96086666Y-66610666D01*
X96020000Y-66610666D01*
X96553333Y-65910666D02*
X96986666Y-65910666D01*
X96753333Y-66177333D01*
X96853333Y-66177333D01*
X96920000Y-66210666D01*
X96953333Y-66244000D01*
X96986666Y-66310666D01*
X96986666Y-66477333D01*
X96953333Y-66544000D01*
X96920000Y-66577333D01*
X96853333Y-66610666D01*
X96653333Y-66610666D01*
X96586666Y-66577333D01*
X96553333Y-66544000D01*
%TO.C,R2*%
X112641333Y-105614666D02*
X112408000Y-105281333D01*
X112241333Y-105614666D02*
X112241333Y-104914666D01*
X112508000Y-104914666D01*
X112574666Y-104948000D01*
X112608000Y-104981333D01*
X112641333Y-105048000D01*
X112641333Y-105148000D01*
X112608000Y-105214666D01*
X112574666Y-105248000D01*
X112508000Y-105281333D01*
X112241333Y-105281333D01*
X112908000Y-104981333D02*
X112941333Y-104948000D01*
X113008000Y-104914666D01*
X113174666Y-104914666D01*
X113241333Y-104948000D01*
X113274666Y-104981333D01*
X113308000Y-105048000D01*
X113308000Y-105114666D01*
X113274666Y-105214666D01*
X112874666Y-105614666D01*
X113308000Y-105614666D01*
X108574000Y-98168666D02*
X109007333Y-98168666D01*
X108774000Y-98435333D01*
X108874000Y-98435333D01*
X108940666Y-98468666D01*
X108974000Y-98502000D01*
X109007333Y-98568666D01*
X109007333Y-98735333D01*
X108974000Y-98802000D01*
X108940666Y-98835333D01*
X108874000Y-98868666D01*
X108674000Y-98868666D01*
X108607333Y-98835333D01*
X108574000Y-98802000D01*
X109240666Y-98168666D02*
X109674000Y-98168666D01*
X109440666Y-98435333D01*
X109540666Y-98435333D01*
X109607333Y-98468666D01*
X109640666Y-98502000D01*
X109674000Y-98568666D01*
X109674000Y-98735333D01*
X109640666Y-98802000D01*
X109607333Y-98835333D01*
X109540666Y-98868666D01*
X109340666Y-98868666D01*
X109274000Y-98835333D01*
X109240666Y-98802000D01*
X110107333Y-98168666D02*
X110174000Y-98168666D01*
X110240666Y-98202000D01*
X110274000Y-98235333D01*
X110307333Y-98302000D01*
X110340666Y-98435333D01*
X110340666Y-98602000D01*
X110307333Y-98735333D01*
X110274000Y-98802000D01*
X110240666Y-98835333D01*
X110174000Y-98868666D01*
X110107333Y-98868666D01*
X110040666Y-98835333D01*
X110007333Y-98802000D01*
X109974000Y-98735333D01*
X109940666Y-98602000D01*
X109940666Y-98435333D01*
X109974000Y-98302000D01*
X110007333Y-98235333D01*
X110040666Y-98202000D01*
X110107333Y-98168666D01*
%TO.C,J2*%
X106192666Y-70228666D02*
X106192666Y-70728666D01*
X106159333Y-70828666D01*
X106092666Y-70895333D01*
X105992666Y-70928666D01*
X105926000Y-70928666D01*
X106492666Y-70295333D02*
X106526000Y-70262000D01*
X106592666Y-70228666D01*
X106759333Y-70228666D01*
X106826000Y-70262000D01*
X106859333Y-70295333D01*
X106892666Y-70362000D01*
X106892666Y-70428666D01*
X106859333Y-70528666D01*
X106459333Y-70928666D01*
X106892666Y-70928666D01*
%TO.C,J7*%
X96600666Y-114787333D02*
X97100666Y-114787333D01*
X97200666Y-114820666D01*
X97267333Y-114887333D01*
X97300666Y-114987333D01*
X97300666Y-115054000D01*
X96600666Y-114520666D02*
X96600666Y-114054000D01*
X97300666Y-114354000D01*
%TO.C,J5*%
X116352666Y-107312666D02*
X116352666Y-107812666D01*
X116319333Y-107912666D01*
X116252666Y-107979333D01*
X116152666Y-108012666D01*
X116086000Y-108012666D01*
X117019333Y-107312666D02*
X116686000Y-107312666D01*
X116652666Y-107646000D01*
X116686000Y-107612666D01*
X116752666Y-107579333D01*
X116919333Y-107579333D01*
X116986000Y-107612666D01*
X117019333Y-107646000D01*
X117052666Y-107712666D01*
X117052666Y-107879333D01*
X117019333Y-107946000D01*
X116986000Y-107979333D01*
X116919333Y-108012666D01*
X116752666Y-108012666D01*
X116686000Y-107979333D01*
X116652666Y-107946000D01*
%TO.C,C2*%
X95133333Y-109470000D02*
X95100000Y-109503333D01*
X95000000Y-109536666D01*
X94933333Y-109536666D01*
X94833333Y-109503333D01*
X94766666Y-109436666D01*
X94733333Y-109370000D01*
X94700000Y-109236666D01*
X94700000Y-109136666D01*
X94733333Y-109003333D01*
X94766666Y-108936666D01*
X94833333Y-108870000D01*
X94933333Y-108836666D01*
X95000000Y-108836666D01*
X95100000Y-108870000D01*
X95133333Y-108903333D01*
X95400000Y-108903333D02*
X95433333Y-108870000D01*
X95500000Y-108836666D01*
X95666666Y-108836666D01*
X95733333Y-108870000D01*
X95766666Y-108903333D01*
X95800000Y-108970000D01*
X95800000Y-109036666D01*
X95766666Y-109136666D01*
X95366666Y-109536666D01*
X95800000Y-109536666D01*
X98928833Y-109536666D02*
X98528833Y-109536666D01*
X98728833Y-109536666D02*
X98728833Y-108836666D01*
X98662166Y-108936666D01*
X98595500Y-109003333D01*
X98528833Y-109036666D01*
X99528833Y-109070000D02*
X99528833Y-109536666D01*
X99228833Y-109070000D02*
X99228833Y-109436666D01*
X99262166Y-109503333D01*
X99328833Y-109536666D01*
X99428833Y-109536666D01*
X99495500Y-109503333D01*
X99528833Y-109470000D01*
%TO.C,J1*%
X99932666Y-96611166D02*
X99932666Y-97111166D01*
X99899333Y-97211166D01*
X99832666Y-97277833D01*
X99732666Y-97311166D01*
X99666000Y-97311166D01*
X100632666Y-97311166D02*
X100232666Y-97311166D01*
X100432666Y-97311166D02*
X100432666Y-96611166D01*
X100366000Y-96711166D01*
X100299333Y-96777833D01*
X100232666Y-96811166D01*
X95001333Y-85802000D02*
X95101333Y-85835333D01*
X95134666Y-85868666D01*
X95168000Y-85935333D01*
X95168000Y-86035333D01*
X95134666Y-86102000D01*
X95101333Y-86135333D01*
X95034666Y-86168666D01*
X94768000Y-86168666D01*
X94768000Y-85468666D01*
X95001333Y-85468666D01*
X95068000Y-85502000D01*
X95101333Y-85535333D01*
X95134666Y-85602000D01*
X95134666Y-85668666D01*
X95101333Y-85735333D01*
X95068000Y-85768666D01*
X95001333Y-85802000D01*
X94768000Y-85802000D01*
X95768000Y-86168666D02*
X95768000Y-85802000D01*
X95734666Y-85735333D01*
X95668000Y-85702000D01*
X95534666Y-85702000D01*
X95468000Y-85735333D01*
X95768000Y-86135333D02*
X95701333Y-86168666D01*
X95534666Y-86168666D01*
X95468000Y-86135333D01*
X95434666Y-86068666D01*
X95434666Y-86002000D01*
X95468000Y-85935333D01*
X95534666Y-85902000D01*
X95701333Y-85902000D01*
X95768000Y-85868666D01*
X96101333Y-86168666D02*
X96101333Y-85702000D01*
X96101333Y-85835333D02*
X96134666Y-85768666D01*
X96168000Y-85735333D01*
X96234666Y-85702000D01*
X96301333Y-85702000D01*
X96534666Y-86168666D02*
X96534666Y-85702000D01*
X96534666Y-85835333D02*
X96568000Y-85768666D01*
X96601333Y-85735333D01*
X96668000Y-85702000D01*
X96734666Y-85702000D01*
X97234666Y-86135333D02*
X97168000Y-86168666D01*
X97034666Y-86168666D01*
X96968000Y-86135333D01*
X96934666Y-86068666D01*
X96934666Y-85802000D01*
X96968000Y-85735333D01*
X97034666Y-85702000D01*
X97168000Y-85702000D01*
X97234666Y-85735333D01*
X97268000Y-85802000D01*
X97268000Y-85868666D01*
X96934666Y-85935333D01*
X97668000Y-86168666D02*
X97601333Y-86135333D01*
X97568000Y-86068666D01*
X97568000Y-85468666D01*
X97768000Y-86235333D02*
X98301333Y-86235333D01*
X98668000Y-85468666D02*
X98668000Y-85968666D01*
X98634666Y-86068666D01*
X98568000Y-86135333D01*
X98468000Y-86168666D01*
X98401333Y-86168666D01*
X99301333Y-86168666D02*
X99301333Y-85802000D01*
X99268000Y-85735333D01*
X99201333Y-85702000D01*
X99068000Y-85702000D01*
X99001333Y-85735333D01*
X99301333Y-86135333D02*
X99234666Y-86168666D01*
X99068000Y-86168666D01*
X99001333Y-86135333D01*
X98968000Y-86068666D01*
X98968000Y-86002000D01*
X99001333Y-85935333D01*
X99068000Y-85902000D01*
X99234666Y-85902000D01*
X99301333Y-85868666D01*
X99934666Y-86135333D02*
X99868000Y-86168666D01*
X99734666Y-86168666D01*
X99668000Y-86135333D01*
X99634666Y-86102000D01*
X99601333Y-86035333D01*
X99601333Y-85835333D01*
X99634666Y-85768666D01*
X99668000Y-85735333D01*
X99734666Y-85702000D01*
X99868000Y-85702000D01*
X99934666Y-85735333D01*
X100234666Y-86168666D02*
X100234666Y-85468666D01*
X100301333Y-85902000D02*
X100501333Y-86168666D01*
X100501333Y-85702000D02*
X100234666Y-85968666D01*
X100634666Y-86235333D02*
X101168000Y-86235333D01*
X101301333Y-86135333D02*
X101401333Y-86168666D01*
X101568000Y-86168666D01*
X101634666Y-86135333D01*
X101668000Y-86102000D01*
X101701333Y-86035333D01*
X101701333Y-85968666D01*
X101668000Y-85902000D01*
X101634666Y-85868666D01*
X101568000Y-85835333D01*
X101434666Y-85802000D01*
X101368000Y-85768666D01*
X101334666Y-85735333D01*
X101301333Y-85668666D01*
X101301333Y-85602000D01*
X101334666Y-85535333D01*
X101368000Y-85502000D01*
X101434666Y-85468666D01*
X101601333Y-85468666D01*
X101701333Y-85502000D01*
X101934666Y-85702000D02*
X102068000Y-86168666D01*
X102201333Y-85835333D01*
X102334666Y-86168666D01*
X102468000Y-85702000D01*
X102734666Y-86168666D02*
X102734666Y-85702000D01*
X102734666Y-85468666D02*
X102701333Y-85502000D01*
X102734666Y-85535333D01*
X102768000Y-85502000D01*
X102734666Y-85468666D01*
X102734666Y-85535333D01*
X102968000Y-85702000D02*
X103234666Y-85702000D01*
X103068000Y-85468666D02*
X103068000Y-86068666D01*
X103101333Y-86135333D01*
X103168000Y-86168666D01*
X103234666Y-86168666D01*
X103768000Y-86135333D02*
X103701333Y-86168666D01*
X103568000Y-86168666D01*
X103501333Y-86135333D01*
X103468000Y-86102000D01*
X103434666Y-86035333D01*
X103434666Y-85835333D01*
X103468000Y-85768666D01*
X103501333Y-85735333D01*
X103568000Y-85702000D01*
X103701333Y-85702000D01*
X103768000Y-85735333D01*
X104068000Y-86168666D02*
X104068000Y-85468666D01*
X104368000Y-86168666D02*
X104368000Y-85802000D01*
X104334666Y-85735333D01*
X104268000Y-85702000D01*
X104168000Y-85702000D01*
X104101333Y-85735333D01*
X104068000Y-85768666D01*
%TO.C,J4*%
X118130666Y-114424666D02*
X118130666Y-114924666D01*
X118097333Y-115024666D01*
X118030666Y-115091333D01*
X117930666Y-115124666D01*
X117864000Y-115124666D01*
X118764000Y-114658000D02*
X118764000Y-115124666D01*
X118597333Y-114391333D02*
X118430666Y-114891333D01*
X118864000Y-114891333D01*
%TO.C,U1*%
X99288666Y-98216666D02*
X99288666Y-98783333D01*
X99322000Y-98850000D01*
X99355333Y-98883333D01*
X99422000Y-98916666D01*
X99555333Y-98916666D01*
X99622000Y-98883333D01*
X99655333Y-98850000D01*
X99688666Y-98783333D01*
X99688666Y-98216666D01*
X100388666Y-98916666D02*
X99988666Y-98916666D01*
X100188666Y-98916666D02*
X100188666Y-98216666D01*
X100122000Y-98316666D01*
X100055333Y-98383333D01*
X99988666Y-98416666D01*
X95289333Y-105218666D02*
X94956000Y-105218666D01*
X94956000Y-104518666D01*
X95522666Y-105218666D02*
X95522666Y-104518666D01*
X95756000Y-105018666D01*
X95989333Y-104518666D01*
X95989333Y-105218666D01*
X96256000Y-104518666D02*
X96689333Y-104518666D01*
X96456000Y-104785333D01*
X96556000Y-104785333D01*
X96622666Y-104818666D01*
X96656000Y-104852000D01*
X96689333Y-104918666D01*
X96689333Y-105085333D01*
X96656000Y-105152000D01*
X96622666Y-105185333D01*
X96556000Y-105218666D01*
X96356000Y-105218666D01*
X96289333Y-105185333D01*
X96256000Y-105152000D01*
X97356000Y-105218666D02*
X96956000Y-105218666D01*
X97156000Y-105218666D02*
X97156000Y-104518666D01*
X97089333Y-104618666D01*
X97022666Y-104685333D01*
X96956000Y-104718666D01*
X97589333Y-104518666D02*
X98056000Y-104518666D01*
X97756000Y-105218666D01*
X98156000Y-105285333D02*
X98689333Y-105285333D01*
X98756000Y-104518666D02*
X99156000Y-104518666D01*
X98956000Y-105218666D02*
X98956000Y-104518666D01*
X99522666Y-104518666D02*
X99656000Y-104518666D01*
X99722666Y-104552000D01*
X99789333Y-104618666D01*
X99822666Y-104752000D01*
X99822666Y-104985333D01*
X99789333Y-105118666D01*
X99722666Y-105185333D01*
X99656000Y-105218666D01*
X99522666Y-105218666D01*
X99456000Y-105185333D01*
X99389333Y-105118666D01*
X99356000Y-104985333D01*
X99356000Y-104752000D01*
X99389333Y-104618666D01*
X99456000Y-104552000D01*
X99522666Y-104518666D01*
X100122666Y-104952000D02*
X100656000Y-104952000D01*
X100956000Y-104585333D02*
X100989333Y-104552000D01*
X101056000Y-104518666D01*
X101222666Y-104518666D01*
X101289333Y-104552000D01*
X101322666Y-104585333D01*
X101356000Y-104652000D01*
X101356000Y-104718666D01*
X101322666Y-104818666D01*
X100922666Y-105218666D01*
X101356000Y-105218666D01*
X101622666Y-104585333D02*
X101656000Y-104552000D01*
X101722666Y-104518666D01*
X101889333Y-104518666D01*
X101956000Y-104552000D01*
X101989333Y-104585333D01*
X102022666Y-104652000D01*
X102022666Y-104718666D01*
X101989333Y-104818666D01*
X101589333Y-105218666D01*
X102022666Y-105218666D01*
X102456000Y-104518666D02*
X102522666Y-104518666D01*
X102589333Y-104552000D01*
X102622666Y-104585333D01*
X102656000Y-104652000D01*
X102689333Y-104785333D01*
X102689333Y-104952000D01*
X102656000Y-105085333D01*
X102622666Y-105152000D01*
X102589333Y-105185333D01*
X102522666Y-105218666D01*
X102456000Y-105218666D01*
X102389333Y-105185333D01*
X102356000Y-105152000D01*
X102322666Y-105085333D01*
X102289333Y-104952000D01*
X102289333Y-104785333D01*
X102322666Y-104652000D01*
X102356000Y-104585333D01*
X102389333Y-104552000D01*
X102456000Y-104518666D01*
%TO.C,D1*%
X113783333Y-87692666D02*
X113783333Y-86992666D01*
X113950000Y-86992666D01*
X114050000Y-87026000D01*
X114116666Y-87092666D01*
X114150000Y-87159333D01*
X114183333Y-87292666D01*
X114183333Y-87392666D01*
X114150000Y-87526000D01*
X114116666Y-87592666D01*
X114050000Y-87659333D01*
X113950000Y-87692666D01*
X113783333Y-87692666D01*
X114850000Y-87692666D02*
X114450000Y-87692666D01*
X114650000Y-87692666D02*
X114650000Y-86992666D01*
X114583333Y-87092666D01*
X114516666Y-87159333D01*
X114450000Y-87192666D01*
X113596000Y-95566666D02*
X113262666Y-95566666D01*
X113262666Y-94866666D01*
X113829333Y-95200000D02*
X114062666Y-95200000D01*
X114162666Y-95566666D02*
X113829333Y-95566666D01*
X113829333Y-94866666D01*
X114162666Y-94866666D01*
X114462666Y-95566666D02*
X114462666Y-94866666D01*
X114629333Y-94866666D01*
X114729333Y-94900000D01*
X114796000Y-94966666D01*
X114829333Y-95033333D01*
X114862666Y-95166666D01*
X114862666Y-95266666D01*
X114829333Y-95400000D01*
X114796000Y-95466666D01*
X114729333Y-95533333D01*
X114629333Y-95566666D01*
X114462666Y-95566666D01*
%TO.C,R1*%
X115199333Y-85152666D02*
X114966000Y-84819333D01*
X114799333Y-85152666D02*
X114799333Y-84452666D01*
X115066000Y-84452666D01*
X115132666Y-84486000D01*
X115166000Y-84519333D01*
X115199333Y-84586000D01*
X115199333Y-84686000D01*
X115166000Y-84752666D01*
X115132666Y-84786000D01*
X115066000Y-84819333D01*
X114799333Y-84819333D01*
X115866000Y-85152666D02*
X115466000Y-85152666D01*
X115666000Y-85152666D02*
X115666000Y-84452666D01*
X115599333Y-84552666D01*
X115532666Y-84619333D01*
X115466000Y-84652666D01*
X106796000Y-84198666D02*
X107229333Y-84198666D01*
X106996000Y-84465333D01*
X107096000Y-84465333D01*
X107162666Y-84498666D01*
X107196000Y-84532000D01*
X107229333Y-84598666D01*
X107229333Y-84765333D01*
X107196000Y-84832000D01*
X107162666Y-84865333D01*
X107096000Y-84898666D01*
X106896000Y-84898666D01*
X106829333Y-84865333D01*
X106796000Y-84832000D01*
X107462666Y-84198666D02*
X107896000Y-84198666D01*
X107662666Y-84465333D01*
X107762666Y-84465333D01*
X107829333Y-84498666D01*
X107862666Y-84532000D01*
X107896000Y-84598666D01*
X107896000Y-84765333D01*
X107862666Y-84832000D01*
X107829333Y-84865333D01*
X107762666Y-84898666D01*
X107562666Y-84898666D01*
X107496000Y-84865333D01*
X107462666Y-84832000D01*
X108329333Y-84198666D02*
X108396000Y-84198666D01*
X108462666Y-84232000D01*
X108496000Y-84265333D01*
X108529333Y-84332000D01*
X108562666Y-84465333D01*
X108562666Y-84632000D01*
X108529333Y-84765333D01*
X108496000Y-84832000D01*
X108462666Y-84865333D01*
X108396000Y-84898666D01*
X108329333Y-84898666D01*
X108262666Y-84865333D01*
X108229333Y-84832000D01*
X108196000Y-84765333D01*
X108162666Y-84632000D01*
X108162666Y-84465333D01*
X108196000Y-84332000D01*
X108229333Y-84265333D01*
X108262666Y-84232000D01*
X108329333Y-84198666D01*
%TO.C,C1*%
X104277333Y-73910000D02*
X104244000Y-73943333D01*
X104144000Y-73976666D01*
X104077333Y-73976666D01*
X103977333Y-73943333D01*
X103910666Y-73876666D01*
X103877333Y-73810000D01*
X103844000Y-73676666D01*
X103844000Y-73576666D01*
X103877333Y-73443333D01*
X103910666Y-73376666D01*
X103977333Y-73310000D01*
X104077333Y-73276666D01*
X104144000Y-73276666D01*
X104244000Y-73310000D01*
X104277333Y-73343333D01*
X104944000Y-73976666D02*
X104544000Y-73976666D01*
X104744000Y-73976666D02*
X104744000Y-73276666D01*
X104677333Y-73376666D01*
X104610666Y-73443333D01*
X104544000Y-73476666D01*
X100960833Y-73976666D02*
X100560833Y-73976666D01*
X100760833Y-73976666D02*
X100760833Y-73276666D01*
X100694166Y-73376666D01*
X100627500Y-73443333D01*
X100560833Y-73476666D01*
X101394166Y-73276666D02*
X101460833Y-73276666D01*
X101527500Y-73310000D01*
X101560833Y-73343333D01*
X101594166Y-73410000D01*
X101627500Y-73543333D01*
X101627500Y-73710000D01*
X101594166Y-73843333D01*
X101560833Y-73910000D01*
X101527500Y-73943333D01*
X101460833Y-73976666D01*
X101394166Y-73976666D01*
X101327500Y-73943333D01*
X101294166Y-73910000D01*
X101260833Y-73843333D01*
X101227500Y-73710000D01*
X101227500Y-73543333D01*
X101260833Y-73410000D01*
X101294166Y-73343333D01*
X101327500Y-73310000D01*
X101394166Y-73276666D01*
X102227500Y-73510000D02*
X102227500Y-73976666D01*
X101927500Y-73510000D02*
X101927500Y-73876666D01*
X101960833Y-73943333D01*
X102027500Y-73976666D01*
X102127500Y-73976666D01*
X102194166Y-73943333D01*
X102227500Y-73910000D01*
%TO.C,J6*%
X118384666Y-68958666D02*
X118384666Y-69458666D01*
X118351333Y-69558666D01*
X118284666Y-69625333D01*
X118184666Y-69658666D01*
X118118000Y-69658666D01*
X119018000Y-68958666D02*
X118884666Y-68958666D01*
X118818000Y-68992000D01*
X118784666Y-69025333D01*
X118718000Y-69125333D01*
X118684666Y-69258666D01*
X118684666Y-69525333D01*
X118718000Y-69592000D01*
X118751333Y-69625333D01*
X118818000Y-69658666D01*
X118951333Y-69658666D01*
X119018000Y-69625333D01*
X119051333Y-69592000D01*
X119084666Y-69525333D01*
X119084666Y-69358666D01*
X119051333Y-69292000D01*
X119018000Y-69258666D01*
X118951333Y-69225333D01*
X118818000Y-69225333D01*
X118751333Y-69258666D01*
X118718000Y-69292000D01*
X118684666Y-69358666D01*
%TO.C,U2*%
X103606666Y-83690666D02*
X103606666Y-84257333D01*
X103640000Y-84324000D01*
X103673333Y-84357333D01*
X103740000Y-84390666D01*
X103873333Y-84390666D01*
X103940000Y-84357333D01*
X103973333Y-84324000D01*
X104006666Y-84257333D01*
X104006666Y-83690666D01*
X104306666Y-83757333D02*
X104340000Y-83724000D01*
X104406666Y-83690666D01*
X104573333Y-83690666D01*
X104640000Y-83724000D01*
X104673333Y-83757333D01*
X104706666Y-83824000D01*
X104706666Y-83890666D01*
X104673333Y-83990666D01*
X104273333Y-84390666D01*
X104706666Y-84390666D01*
X94881333Y-84136666D02*
X94548000Y-84136666D01*
X94548000Y-83436666D01*
X95114666Y-84136666D02*
X95114666Y-83436666D01*
X95348000Y-83936666D01*
X95581333Y-83436666D01*
X95581333Y-84136666D01*
X95848000Y-83436666D02*
X96314666Y-83436666D01*
X96014666Y-84136666D01*
X96681333Y-83736666D02*
X96614666Y-83703333D01*
X96581333Y-83670000D01*
X96548000Y-83603333D01*
X96548000Y-83570000D01*
X96581333Y-83503333D01*
X96614666Y-83470000D01*
X96681333Y-83436666D01*
X96814666Y-83436666D01*
X96881333Y-83470000D01*
X96914666Y-83503333D01*
X96948000Y-83570000D01*
X96948000Y-83603333D01*
X96914666Y-83670000D01*
X96881333Y-83703333D01*
X96814666Y-83736666D01*
X96681333Y-83736666D01*
X96614666Y-83770000D01*
X96581333Y-83803333D01*
X96548000Y-83870000D01*
X96548000Y-84003333D01*
X96581333Y-84070000D01*
X96614666Y-84103333D01*
X96681333Y-84136666D01*
X96814666Y-84136666D01*
X96881333Y-84103333D01*
X96914666Y-84070000D01*
X96948000Y-84003333D01*
X96948000Y-83870000D01*
X96914666Y-83803333D01*
X96881333Y-83770000D01*
X96814666Y-83736666D01*
X97381333Y-83436666D02*
X97448000Y-83436666D01*
X97514666Y-83470000D01*
X97548000Y-83503333D01*
X97581333Y-83570000D01*
X97614666Y-83703333D01*
X97614666Y-83870000D01*
X97581333Y-84003333D01*
X97548000Y-84070000D01*
X97514666Y-84103333D01*
X97448000Y-84136666D01*
X97381333Y-84136666D01*
X97314666Y-84103333D01*
X97281333Y-84070000D01*
X97248000Y-84003333D01*
X97214666Y-83870000D01*
X97214666Y-83703333D01*
X97248000Y-83570000D01*
X97281333Y-83503333D01*
X97314666Y-83470000D01*
X97381333Y-83436666D01*
X98248000Y-83436666D02*
X97914666Y-83436666D01*
X97881333Y-83770000D01*
X97914666Y-83736666D01*
X97981333Y-83703333D01*
X98148000Y-83703333D01*
X98214666Y-83736666D01*
X98248000Y-83770000D01*
X98281333Y-83836666D01*
X98281333Y-84003333D01*
X98248000Y-84070000D01*
X98214666Y-84103333D01*
X98148000Y-84136666D01*
X97981333Y-84136666D01*
X97914666Y-84103333D01*
X97881333Y-84070000D01*
X98414666Y-84203333D02*
X98948000Y-84203333D01*
X99014666Y-83436666D02*
X99414666Y-83436666D01*
X99214666Y-84136666D02*
X99214666Y-83436666D01*
X99781333Y-83436666D02*
X99914666Y-83436666D01*
X99981333Y-83470000D01*
X100048000Y-83536666D01*
X100081333Y-83670000D01*
X100081333Y-83903333D01*
X100048000Y-84036666D01*
X99981333Y-84103333D01*
X99914666Y-84136666D01*
X99781333Y-84136666D01*
X99714666Y-84103333D01*
X99648000Y-84036666D01*
X99614666Y-83903333D01*
X99614666Y-83670000D01*
X99648000Y-83536666D01*
X99714666Y-83470000D01*
X99781333Y-83436666D01*
X100348000Y-83503333D02*
X100381333Y-83470000D01*
X100448000Y-83436666D01*
X100614666Y-83436666D01*
X100681333Y-83470000D01*
X100714666Y-83503333D01*
X100748000Y-83570000D01*
X100748000Y-83636666D01*
X100714666Y-83736666D01*
X100314666Y-84136666D01*
X100748000Y-84136666D01*
X101014666Y-83503333D02*
X101048000Y-83470000D01*
X101114666Y-83436666D01*
X101281333Y-83436666D01*
X101348000Y-83470000D01*
X101381333Y-83503333D01*
X101414666Y-83570000D01*
X101414666Y-83636666D01*
X101381333Y-83736666D01*
X100981333Y-84136666D01*
X101414666Y-84136666D01*
X101848000Y-83436666D02*
X101914666Y-83436666D01*
X101981333Y-83470000D01*
X102014666Y-83503333D01*
X102048000Y-83570000D01*
X102081333Y-83703333D01*
X102081333Y-83870000D01*
X102048000Y-84003333D01*
X102014666Y-84070000D01*
X101981333Y-84103333D01*
X101914666Y-84136666D01*
X101848000Y-84136666D01*
X101781333Y-84103333D01*
X101748000Y-84070000D01*
X101714666Y-84003333D01*
X101681333Y-83870000D01*
X101681333Y-83703333D01*
X101714666Y-83570000D01*
X101748000Y-83503333D01*
X101781333Y-83470000D01*
X101848000Y-83436666D01*
%TO.C,C3*%
X99197333Y-73910000D02*
X99164000Y-73943333D01*
X99064000Y-73976666D01*
X98997333Y-73976666D01*
X98897333Y-73943333D01*
X98830666Y-73876666D01*
X98797333Y-73810000D01*
X98764000Y-73676666D01*
X98764000Y-73576666D01*
X98797333Y-73443333D01*
X98830666Y-73376666D01*
X98897333Y-73310000D01*
X98997333Y-73276666D01*
X99064000Y-73276666D01*
X99164000Y-73310000D01*
X99197333Y-73343333D01*
X99430666Y-73276666D02*
X99864000Y-73276666D01*
X99630666Y-73543333D01*
X99730666Y-73543333D01*
X99797333Y-73576666D01*
X99830666Y-73610000D01*
X99864000Y-73676666D01*
X99864000Y-73843333D01*
X99830666Y-73910000D01*
X99797333Y-73943333D01*
X99730666Y-73976666D01*
X99530666Y-73976666D01*
X99464000Y-73943333D01*
X99430666Y-73910000D01*
X95647500Y-73276666D02*
X95714166Y-73276666D01*
X95780833Y-73310000D01*
X95814166Y-73343333D01*
X95847500Y-73410000D01*
X95880833Y-73543333D01*
X95880833Y-73710000D01*
X95847500Y-73843333D01*
X95814166Y-73910000D01*
X95780833Y-73943333D01*
X95714166Y-73976666D01*
X95647500Y-73976666D01*
X95580833Y-73943333D01*
X95547500Y-73910000D01*
X95514166Y-73843333D01*
X95480833Y-73710000D01*
X95480833Y-73543333D01*
X95514166Y-73410000D01*
X95547500Y-73343333D01*
X95580833Y-73310000D01*
X95647500Y-73276666D01*
X96180833Y-73910000D02*
X96214166Y-73943333D01*
X96180833Y-73976666D01*
X96147500Y-73943333D01*
X96180833Y-73910000D01*
X96180833Y-73976666D01*
X96880833Y-73976666D02*
X96480833Y-73976666D01*
X96680833Y-73976666D02*
X96680833Y-73276666D01*
X96614166Y-73376666D01*
X96547500Y-73443333D01*
X96480833Y-73476666D01*
X97480833Y-73510000D02*
X97480833Y-73976666D01*
X97180833Y-73510000D02*
X97180833Y-73876666D01*
X97214166Y-73943333D01*
X97280833Y-73976666D01*
X97380833Y-73976666D01*
X97447500Y-73943333D01*
X97480833Y-73910000D01*
%TO.C,R3*%
X112641333Y-98726666D02*
X112408000Y-98393333D01*
X112241333Y-98726666D02*
X112241333Y-98026666D01*
X112508000Y-98026666D01*
X112574666Y-98060000D01*
X112608000Y-98093333D01*
X112641333Y-98160000D01*
X112641333Y-98260000D01*
X112608000Y-98326666D01*
X112574666Y-98360000D01*
X112508000Y-98393333D01*
X112241333Y-98393333D01*
X112874666Y-98026666D02*
X113308000Y-98026666D01*
X113074666Y-98293333D01*
X113174666Y-98293333D01*
X113241333Y-98326666D01*
X113274666Y-98360000D01*
X113308000Y-98426666D01*
X113308000Y-98593333D01*
X113274666Y-98660000D01*
X113241333Y-98693333D01*
X113174666Y-98726666D01*
X112974666Y-98726666D01*
X112908000Y-98693333D01*
X112874666Y-98660000D01*
X108547500Y-104772666D02*
X108214166Y-104772666D01*
X108180833Y-105106000D01*
X108214166Y-105072666D01*
X108280833Y-105039333D01*
X108447500Y-105039333D01*
X108514166Y-105072666D01*
X108547500Y-105106000D01*
X108580833Y-105172666D01*
X108580833Y-105339333D01*
X108547500Y-105406000D01*
X108514166Y-105439333D01*
X108447500Y-105472666D01*
X108280833Y-105472666D01*
X108214166Y-105439333D01*
X108180833Y-105406000D01*
X109180833Y-104772666D02*
X109047500Y-104772666D01*
X108980833Y-104806000D01*
X108947500Y-104839333D01*
X108880833Y-104939333D01*
X108847500Y-105072666D01*
X108847500Y-105339333D01*
X108880833Y-105406000D01*
X108914166Y-105439333D01*
X108980833Y-105472666D01*
X109114166Y-105472666D01*
X109180833Y-105439333D01*
X109214166Y-105406000D01*
X109247500Y-105339333D01*
X109247500Y-105172666D01*
X109214166Y-105106000D01*
X109180833Y-105072666D01*
X109114166Y-105039333D01*
X108980833Y-105039333D01*
X108914166Y-105072666D01*
X108880833Y-105106000D01*
X108847500Y-105172666D01*
X109680833Y-104772666D02*
X109747500Y-104772666D01*
X109814166Y-104806000D01*
X109847500Y-104839333D01*
X109880833Y-104906000D01*
X109914166Y-105039333D01*
X109914166Y-105206000D01*
X109880833Y-105339333D01*
X109847500Y-105406000D01*
X109814166Y-105439333D01*
X109747500Y-105472666D01*
X109680833Y-105472666D01*
X109614166Y-105439333D01*
X109580833Y-105406000D01*
X109547500Y-105339333D01*
X109514166Y-105206000D01*
X109514166Y-105039333D01*
X109547500Y-104906000D01*
X109580833Y-104839333D01*
X109614166Y-104806000D01*
X109680833Y-104772666D01*
%TO.C,S1*%
X116052666Y-80039333D02*
X116152666Y-80072666D01*
X116319333Y-80072666D01*
X116386000Y-80039333D01*
X116419333Y-80006000D01*
X116452666Y-79939333D01*
X116452666Y-79872666D01*
X116419333Y-79806000D01*
X116386000Y-79772666D01*
X116319333Y-79739333D01*
X116186000Y-79706000D01*
X116119333Y-79672666D01*
X116086000Y-79639333D01*
X116052666Y-79572666D01*
X116052666Y-79506000D01*
X116086000Y-79439333D01*
X116119333Y-79406000D01*
X116186000Y-79372666D01*
X116352666Y-79372666D01*
X116452666Y-79406000D01*
X117119333Y-80072666D02*
X116719333Y-80072666D01*
X116919333Y-80072666D02*
X116919333Y-79372666D01*
X116852666Y-79472666D01*
X116786000Y-79539333D01*
X116719333Y-79572666D01*
X113736666Y-73864000D02*
X113970000Y-73864000D01*
X114070000Y-74230666D02*
X113736666Y-74230666D01*
X113736666Y-73530666D01*
X114070000Y-73530666D01*
X114736666Y-73564000D02*
X114670000Y-73530666D01*
X114570000Y-73530666D01*
X114470000Y-73564000D01*
X114403333Y-73630666D01*
X114370000Y-73697333D01*
X114336666Y-73830666D01*
X114336666Y-73930666D01*
X114370000Y-74064000D01*
X114403333Y-74130666D01*
X114470000Y-74197333D01*
X114570000Y-74230666D01*
X114636666Y-74230666D01*
X114736666Y-74197333D01*
X114770000Y-74164000D01*
X114770000Y-73930666D01*
X114636666Y-73930666D01*
X115436666Y-74230666D02*
X115036666Y-74230666D01*
X115236666Y-74230666D02*
X115236666Y-73530666D01*
X115170000Y-73630666D01*
X115103333Y-73697333D01*
X115036666Y-73730666D01*
X115703333Y-73597333D02*
X115736666Y-73564000D01*
X115803333Y-73530666D01*
X115970000Y-73530666D01*
X116036666Y-73564000D01*
X116070000Y-73597333D01*
X116103333Y-73664000D01*
X116103333Y-73730666D01*
X116070000Y-73830666D01*
X115670000Y-74230666D01*
X116103333Y-74230666D01*
X116770000Y-74230666D02*
X116370000Y-74230666D01*
X116570000Y-74230666D02*
X116570000Y-73530666D01*
X116503333Y-73630666D01*
X116436666Y-73697333D01*
X116370000Y-73730666D01*
X117170000Y-73830666D02*
X117103333Y-73797333D01*
X117070000Y-73764000D01*
X117036666Y-73697333D01*
X117036666Y-73664000D01*
X117070000Y-73597333D01*
X117103333Y-73564000D01*
X117170000Y-73530666D01*
X117303333Y-73530666D01*
X117370000Y-73564000D01*
X117403333Y-73597333D01*
X117436666Y-73664000D01*
X117436666Y-73697333D01*
X117403333Y-73764000D01*
X117370000Y-73797333D01*
X117303333Y-73830666D01*
X117170000Y-73830666D01*
X117103333Y-73864000D01*
X117070000Y-73897333D01*
X117036666Y-73964000D01*
X117036666Y-74097333D01*
X117070000Y-74164000D01*
X117103333Y-74197333D01*
X117170000Y-74230666D01*
X117303333Y-74230666D01*
X117370000Y-74197333D01*
X117403333Y-74164000D01*
X117436666Y-74097333D01*
X117436666Y-73964000D01*
X117403333Y-73897333D01*
X117370000Y-73864000D01*
X117303333Y-73830666D01*
D11*
%TO.C,J3*%
X99075000Y-67624000D02*
X97745000Y-67624000D01*
X100345000Y-67624000D02*
X100345000Y-64964000D01*
X100345000Y-67624000D02*
X105485000Y-67624000D01*
X97745000Y-67624000D02*
X97745000Y-66294000D01*
X105485000Y-67624000D02*
X105485000Y-64964000D01*
X100345000Y-64964000D02*
X105485000Y-64964000D01*
%TO.C,R2*%
X109888000Y-103378000D02*
X110838000Y-103378000D01*
X110838000Y-104298000D02*
X114678000Y-104298000D01*
X114678000Y-102458000D02*
X110838000Y-102458000D01*
X114678000Y-104298000D02*
X114678000Y-102458000D01*
X110838000Y-102458000D02*
X110838000Y-104298000D01*
X115628000Y-103378000D02*
X114678000Y-103378000D01*
%TO.C,J2*%
X117348000Y-64684000D02*
X107188000Y-64684000D01*
X117348000Y-72304000D02*
X117348000Y-64684000D01*
X107188000Y-72304000D02*
X117348000Y-72304000D01*
X107188000Y-64684000D02*
X107188000Y-72304000D01*
X117348000Y-71034000D02*
X107188000Y-71034000D01*
%TO.C,J7*%
X99314000Y-115884000D02*
X97984000Y-115884000D01*
X100584000Y-115884000D02*
X105724000Y-115884000D01*
X97984000Y-115884000D02*
X97984000Y-114554000D01*
X105724000Y-115884000D02*
X105724000Y-113224000D01*
X100584000Y-113224000D02*
X105724000Y-113224000D01*
X100584000Y-115884000D02*
X100584000Y-113224000D01*
%TO.C,J5*%
X117348000Y-116275600D02*
X117348000Y-108655600D01*
X107188000Y-108655600D02*
X107188000Y-116275600D01*
X117348000Y-115005600D02*
X107188000Y-115005600D01*
X117348000Y-108655600D02*
X107188000Y-108655600D01*
X107188000Y-116275600D02*
X117348000Y-116275600D01*
%TO.C,C2*%
X97423000Y-106522000D02*
X96165000Y-106522000D01*
X97423000Y-108362000D02*
X96165000Y-108362000D01*
%TO.C,J1*%
X109516000Y-86644500D02*
X109516000Y-89244500D01*
X109716000Y-87494500D02*
X109716000Y-86444500D01*
X94816000Y-86644500D02*
X109516000Y-86644500D01*
X94816000Y-95844500D02*
X94816000Y-86644500D01*
X109516000Y-95844500D02*
X107616000Y-95844500D01*
X108666000Y-86444500D02*
X109716000Y-86444500D01*
X109516000Y-93144500D02*
X109516000Y-95844500D01*
X103616000Y-95844500D02*
X94816000Y-95844500D01*
%TO.C,J4*%
X119574000Y-113385600D02*
X119574000Y-115985600D01*
X119574000Y-112115600D02*
X119574000Y-110785600D01*
X119574000Y-113385600D02*
X122234000Y-113385600D01*
X119574000Y-110785600D02*
X120904000Y-110785600D01*
X122234000Y-113385600D02*
X122234000Y-115985600D01*
X119574000Y-115985600D02*
X122234000Y-115985600D01*
%TO.C,U1*%
X101673000Y-99600000D02*
X101673000Y-101110000D01*
X94702000Y-101110000D02*
X104942000Y-101110000D01*
X94702000Y-99600000D02*
X104942000Y-99600000D01*
X94702000Y-104241000D02*
X104942000Y-104241000D01*
X104942000Y-99600000D02*
X104942000Y-104241000D01*
X97972000Y-99600000D02*
X97972000Y-101110000D01*
X94702000Y-99600000D02*
X94702000Y-104241000D01*
%TO.C,D1*%
X112723000Y-93751000D02*
X115813000Y-93751000D01*
X114267538Y-88201000D02*
G75*
G02*
X115812830Y-93751000I462J-2990000D01*
G01*
X114268462Y-88201000D02*
G75*
G03*
X112723170Y-93751000I-462J-2990000D01*
G01*
X116768000Y-91191000D02*
G75*
G03*
X116768000Y-91191000I-2500000J0D01*
G01*
%TO.C,R1*%
X113426000Y-81884000D02*
X109586000Y-81884000D01*
X109586000Y-81884000D02*
X109586000Y-83724000D01*
X108636000Y-82804000D02*
X109586000Y-82804000D01*
X113426000Y-83724000D02*
X113426000Y-81884000D01*
X109586000Y-83724000D02*
X113426000Y-83724000D01*
X114376000Y-82804000D02*
X113426000Y-82804000D01*
%TO.C,C1*%
X103499000Y-76358000D02*
X102241000Y-76358000D01*
X103499000Y-74518000D02*
X102241000Y-74518000D01*
%TO.C,J6*%
X122234000Y-67564000D02*
X122234000Y-70164000D01*
X119574000Y-66294000D02*
X119574000Y-64964000D01*
X119574000Y-64964000D02*
X120904000Y-64964000D01*
X119574000Y-67564000D02*
X119574000Y-70164000D01*
X119574000Y-70164000D02*
X122234000Y-70164000D01*
X119574000Y-67564000D02*
X122234000Y-67564000D01*
%TO.C,U2*%
X94702000Y-83097000D02*
X94702000Y-78456000D01*
X104942000Y-81587000D02*
X94702000Y-81587000D01*
X104942000Y-83097000D02*
X104942000Y-78456000D01*
X104942000Y-78456000D02*
X94702000Y-78456000D01*
X104942000Y-83097000D02*
X94702000Y-83097000D01*
X101672000Y-83097000D02*
X101672000Y-81587000D01*
X97971000Y-83097000D02*
X97971000Y-81587000D01*
%TO.C,C3*%
X98419000Y-74518000D02*
X97161000Y-74518000D01*
X98419000Y-76358000D02*
X97161000Y-76358000D01*
%TO.C,R3*%
X110838000Y-99410000D02*
X110838000Y-101250000D01*
X115628000Y-100330000D02*
X114678000Y-100330000D01*
X114678000Y-99410000D02*
X110838000Y-99410000D01*
X109888000Y-100330000D02*
X110838000Y-100330000D01*
X114678000Y-101250000D02*
X114678000Y-99410000D01*
X110838000Y-101250000D02*
X114678000Y-101250000D01*
D12*
%TO.C,S1*%
X105548000Y-78808000D02*
X105548000Y-78308000D01*
X117448000Y-74608000D02*
X117448000Y-75108000D01*
X117448000Y-74608000D02*
X116948000Y-74608000D01*
X105548000Y-78808000D02*
X106048000Y-78808000D01*
X117448000Y-78808000D02*
X117448000Y-78308000D01*
X105548000Y-74608000D02*
X106048000Y-74608000D01*
X117448000Y-78808000D02*
X116948000Y-78808000D01*
X105548000Y-74608000D02*
X105548000Y-75108000D01*
%TD*%
M02*
